<svg width="17" height="30" viewBox="0 0 17 30" fill="none" xmlns="http://www.w3.org/2000/svg">
<path fill-rule="evenodd" clip-rule="evenodd" d="M16.2061 29.5613C15.5888 30.1462 14.5906 30.1462 13.9749 29.5613L0.924541 17.1659C0.632416 16.8927 0.399805 16.5638 0.240858 16.1993C0.0819092 15.8349 -5.72205e-05 15.4424 -5.72205e-05 15.0458C-5.72205e-05 14.6491 0.0819092 14.2566 0.240858 13.8922C0.399805 13.5277 0.632416 13.1988 0.924541 12.9256L14.0694 0.438741C14.3677 0.159676 14.7627 0.00282358 15.1743 3.77515e-05C15.5859 -0.00274808 15.9831 0.148742 16.2853 0.423742C16.435 0.559545 16.5548 0.724149 16.6372 0.907361C16.7197 1.09057 16.763 1.28849 16.7646 1.48886C16.7662 1.68923 16.7259 1.88778 16.6464 2.07223C16.5668 2.25667 16.4496 2.42307 16.3021 2.56113L4.27133 13.9861C4.12514 14.1227 4.00874 14.2872 3.92919 14.4695C3.84965 14.6518 3.80863 14.8481 3.80863 15.0465C3.80863 15.2449 3.84965 15.4412 3.92919 15.6235C4.00874 15.8059 4.12514 15.9703 4.27133 16.107L16.2061 27.4419C16.3522 27.5784 16.4686 27.7427 16.5481 27.9249C16.6276 28.1071 16.6686 28.3033 16.6686 28.5016C16.6686 28.6999 16.6276 28.8961 16.5481 29.0783C16.4686 29.2604 16.3522 29.4248 16.2061 29.5613Z" fill="#4E002E"/>
</svg>
