<svg width="25" height="25" viewBox="0 0 25 25" fill="none" xmlns="http://www.w3.org/2000/svg">
<rect width="25" height="25" fill="#1E1E1E"/>
<g id="Bracelets category page" clip-path="url(#clip0_0_1)">
<rect width="1512" height="4727" transform="translate(-120 -2043)" fill="white"/>
<rect id="Rectangle 6" x="-120" y="-1950" width="1512" height="9908" fill="#F5DBCB" fill-opacity="0.25"/>
<rect id="Rectangle 139" x="-60" y="-604" width="680" height="670" fill="#D9D9D9"/>
<rect id="Rectangle 151" x="-28" y="-13" width="205" height="51" rx="25.5" fill="#4E002E"/>
<g id="&#240;&#159;&#166;&#134; icon &#34;shopping bag&#34;">
<path id="Vector" d="M0 0H25V25H0V0Z" fill="#4E002E"/>
<path id="Vector_2" d="M18.7493 6.25065H16.666C16.666 3.94857 14.8014 2.08398 12.4993 2.08398C10.1973 2.08398 8.33268 3.94857 8.33268 6.25065H6.24935C5.10352 6.25065 4.16602 7.18815 4.16602 8.33398V20.834C4.16602 21.9798 5.10352 22.9173 6.24935 22.9173H18.7493C19.8952 22.9173 20.8327 21.9798 20.8327 20.834V8.33398C20.8327 7.18815 19.8952 6.25065 18.7493 6.25065ZM12.4993 4.16732C13.6452 4.16732 14.5827 5.10482 14.5827 6.25065H10.416C10.416 5.10482 11.3535 4.16732 12.4993 4.16732ZM18.7493 20.834H6.24935V8.33398H8.33268V10.4173C8.33268 10.9902 8.80143 11.459 9.37435 11.459C9.94727 11.459 10.416 10.9902 10.416 10.4173V8.33398H14.5827V10.4173C14.5827 10.9902 15.0514 11.459 15.6243 11.459C16.1973 11.459 16.666 10.9902 16.666 10.4173V8.33398H18.7493V20.834Z" fill="#F5DBCB"/>
</g>
</g>
<defs>
<clipPath id="clip0_0_1">
<rect width="1512" height="4727" fill="white" transform="translate(-120 -2043)"/>
</clipPath>
</defs>
</svg>
