<svg width="17" height="21" viewBox="0 0 17 21" fill="none" xmlns="http://www.w3.org/2000/svg">
<path d="M14.7493 4.25016H12.666C12.666 1.94808 10.8014 0.0834961 8.49935 0.0834961C6.19727 0.0834961 4.33268 1.94808 4.33268 4.25016H2.24935C1.10352 4.25016 0.166016 5.18766 0.166016 6.3335V18.8335C0.166016 19.9793 1.10352 20.9168 2.24935 20.9168H14.7493C15.8952 20.9168 16.8327 19.9793 16.8327 18.8335V6.3335C16.8327 5.18766 15.8952 4.25016 14.7493 4.25016ZM8.49935 2.16683C9.64518 2.16683 10.5827 3.10433 10.5827 4.25016H6.41602C6.41602 3.10433 7.35352 2.16683 8.49935 2.16683ZM14.7493 18.8335H2.24935V6.3335H4.33268V8.41683C4.33268 8.98975 4.80143 9.4585 5.37435 9.4585C5.94727 9.4585 6.41602 8.98975 6.41602 8.41683V6.3335H10.5827V8.41683C10.5827 8.98975 11.0514 9.4585 11.6243 9.4585C12.1973 9.4585 12.666 8.98975 12.666 8.41683V6.3335H14.7493V18.8335Z" fill="#4E002E"/>
</svg>
