<svg width="13" height="7" viewBox="0 0 13 7" fill="none" xmlns="http://www.w3.org/2000/svg">
<path id="Vector" fill-rule="evenodd" clip-rule="evenodd" d="M0.190115 0.233235C-0.0633717 0.490958 -0.0633717 0.907768 0.190115 1.16485L5.56144 6.61394C5.67984 6.73592 5.82235 6.83304 5.98028 6.89941C6.13822 6.96578 6.3083 7 6.48017 7C6.65204 7 6.82212 6.96578 6.98006 6.89941C7.138 6.83304 7.2805 6.73592 7.3989 6.61394L12.8099 1.1254C12.9308 1.00084 12.9988 0.835881 13 0.664032C13.0012 0.492182 12.9355 0.326326 12.8164 0.200145C12.7575 0.137637 12.6862 0.087623 12.6068 0.0531991C12.5274 0.0187752 12.4417 0.000674682 12.3548 1.84771e-05C12.268 -0.000637727 12.182 0.0161643 12.102 0.0493842C12.0221 0.0826041 11.95 0.131534 11.8902 0.193145L6.93937 5.21651C6.88017 5.27755 6.8089 5.32615 6.7299 5.35937C6.6509 5.39258 6.56582 5.40971 6.47985 5.40971C6.39387 5.40971 6.3088 5.39258 6.2298 5.35937C6.1508 5.32615 6.07953 5.27755 6.02032 5.21651L1.10852 0.233235C1.04937 0.172215 0.978157 0.123622 0.899211 0.0904159C0.820265 0.0572095 0.735241 0.0400847 0.649318 0.0400847C0.563395 0.0400847 0.47837 0.0572095 0.399424 0.0904159C0.320477 0.123622 0.249263 0.172215 0.190115 0.233235Z" fill="#4E002E"/>
</svg>
