<svg width="13" height="13" viewBox="0 0 13 13" fill="none" xmlns="http://www.w3.org/2000/svg">
<g clip-path="url(#clip0_233_15636)">
<path d="M12.1601 4.47056C11.6166 3.92708 10.8962 3.62664 10.1266 3.62664C9.81717 3.62844 9.51564 3.67864 9.23 3.77253C9.32389 3.48581 9.37336 3.18356 9.37336 2.87336C9.37336 2.10347 9.07689 1.38306 8.53342 0.839944C7.99031 0.296472 7.26989 0 6.5 0C5.73011 0 5.01403 0.296472 4.47056 0.839944C3.92708 1.38342 3.62664 2.10383 3.62664 2.87336C3.62844 3.18356 3.67864 3.48617 3.77325 3.77253C3.48689 3.67864 3.18428 3.62844 2.87336 3.62664C2.10781 3.62664 1.38739 3.92708 0.843917 4.47056C0.300444 5.01403 0 5.73444 0 6.5C0 7.26556 0.300444 7.99031 0.843917 8.53342C1.38739 9.07689 2.10781 9.37336 2.87336 9.37336C3.18356 9.37336 3.48544 9.32461 3.77108 9.23144C3.67792 9.51636 3.62844 9.81753 3.62664 10.1266C3.62664 10.8922 3.92708 11.6126 4.47056 12.1561C5.01403 12.6996 5.73444 13 6.5 13C7.26556 13 7.99031 12.6996 8.53342 12.1561C9.07689 11.6126 9.37336 10.8922 9.37336 10.1266C9.37336 9.81753 9.32461 9.51636 9.23217 9.23144C9.51744 9.32425 9.81825 9.37336 10.1266 9.37336C10.8965 9.37336 11.6169 9.07689 12.1601 8.53342C12.7035 7.98994 13 7.26953 13 6.5C13 5.73047 12.7035 5.01403 12.1601 4.47056ZM11.7238 8.09719C11.2956 8.52114 10.7319 8.75586 10.1266 8.75586C9.52142 8.75586 8.99419 8.53558 8.57495 8.13692C8.56086 8.12247 8.5475 8.10767 8.53342 8.09322L6.96006 6.52383L6.94056 6.50433L6.93658 6.50036L6.50036 6.93658L6.50433 6.94056L6.52347 6.95969L8.09719 8.53378C8.11092 8.5475 8.125 8.56014 8.13908 8.5735C8.97722 9.4575 8.96386 10.8575 8.09719 11.7199C7.21608 12.601 5.78789 12.601 4.90678 11.7199C4.46622 11.2793 4.24811 10.703 4.24811 10.127C4.24811 9.55103 4.45322 9.00756 4.86597 8.57278C4.87969 8.55978 4.89342 8.54714 4.90678 8.53378L5.69256 7.74583L6.5 6.94056V6.93658L6.06378 6.50036L6.05981 6.50433L4.47092 8.09322C4.45683 8.10731 4.44347 8.12211 4.42939 8.13656C3.54539 8.97722 2.14392 8.96458 1.2805 8.09719C0.399389 7.21608 0.399389 5.78789 1.2805 4.90678C1.72106 4.46622 2.29739 4.24811 2.87336 4.24811C3.44933 4.24811 4.03 4.46622 4.47056 4.90678L6.05944 6.5H6.06342L6.49964 6.06378L6.49567 6.05981L4.90678 4.46658C4.4785 4.04264 4.24414 3.47461 4.24414 2.87336C4.24414 2.27211 4.47886 1.70444 4.90678 1.27617C5.33072 0.852222 5.89875 0.6175 6.5 0.6175C7.10125 0.6175 7.66892 0.852222 8.09719 1.27617C8.52114 1.70444 8.75586 2.26814 8.75586 2.87336C8.75586 3.47858 8.52114 4.04264 8.09719 4.46658L6.50397 6.05981L6.5 6.06378L6.93622 6.5L6.94019 6.49603L8.53306 4.90714C8.957 4.47886 9.52503 4.2445 10.1263 4.2445C10.7275 4.2445 11.2952 4.47922 11.7235 4.90714C12.1474 5.33108 12.3821 5.89911 12.3821 6.50036C12.3821 7.10161 12.1474 7.66928 11.7235 8.09756L11.7238 8.09719Z" fill="#FF8C6B"/>
</g>
<defs>
<clipPath id="clip0_233_15636">
<rect width="13" height="13" fill="white"/>
</clipPath>
</defs>
</svg>
