<svg width="43" height="42" viewBox="0 0 43 42" fill="none" xmlns="http://www.w3.org/2000/svg">
<g clip-path="url(#clip0_0_235)">
<path d="M39.4413 14.4426C37.6857 12.687 35.3576 11.7169 32.872 11.7169C31.8734 11.7217 30.8985 11.8839 29.9746 12.1876C30.2783 11.2621 30.4374 10.2841 30.4374 9.28227C30.4374 6.79512 29.48 4.46859 27.7244 2.71296C25.9688 0.957328 23.6422 0 21.1551 0C18.6679 0 16.3541 0.957328 14.5985 2.71296C12.8429 4.46859 11.8728 6.79671 11.8728 9.28227C11.8776 10.2841 12.0414 11.2621 12.3467 12.1876C11.4212 11.8839 10.4432 11.7217 9.43816 11.7169C6.96532 11.7169 4.6372 12.687 2.88157 14.4426C1.12594 16.1983 0.154297 18.5264 0.154297 21.0008C0.154297 23.4752 1.12594 25.8161 2.88157 27.5701C4.6372 29.3257 6.96532 30.2831 9.43816 30.2831C10.44 30.2831 11.4148 30.1256 12.3388 29.8251C12.0382 30.7458 11.8776 31.7175 11.8728 32.7177C11.8728 35.1906 12.8429 37.5187 14.5985 39.2743C16.3541 41.03 18.6807 42.0016 21.1551 42.0016C23.6295 42.0016 25.9688 41.0315 27.7244 39.2743C29.48 37.5187 30.4374 35.1906 30.4374 32.7177C30.4374 31.7191 30.2799 30.7458 29.981 29.8251C30.9017 30.1256 31.8734 30.2831 32.8704 30.2831C35.3576 30.2831 37.6841 29.3257 39.4397 27.5701C41.1954 25.8145 42.1527 23.4879 42.1527 21.0008C42.1527 18.5137 41.1954 16.1998 39.4397 14.4442L39.4413 14.4426ZM38.0324 26.1611C36.6489 27.5303 34.828 28.2889 32.872 28.2889C30.916 28.2889 29.2145 27.5765 27.8596 26.2884C27.815 26.2422 27.7721 26.193 27.726 26.1468L22.642 21.0755L22.5784 21.0119L22.5656 20.9992L21.1551 22.4098L21.1678 22.4225L21.2298 22.4845L26.3154 27.5701C26.36 27.6146 26.4061 27.656 26.4506 27.6989C29.1588 30.555 29.1159 35.0777 26.3154 37.8638C23.4689 40.7103 18.854 40.7103 16.0075 37.8638C14.5842 36.4405 13.8797 34.5783 13.8797 32.7177C13.8797 30.8571 14.5428 29.0999 15.8755 27.6957C15.92 27.6528 15.9645 27.613 16.0075 27.5701L18.5455 25.0241L21.1535 22.4225V22.4098L19.743 20.9992L19.7302 21.0119L14.5969 26.1452C14.5508 26.1914 14.5079 26.2391 14.4633 26.2852C11.6073 29.0013 7.07982 28.96 4.29053 26.158C1.44399 23.3114 1.44399 18.6965 4.29053 15.85C5.7138 14.4267 7.57598 13.7222 9.43657 13.7222C11.2972 13.7222 13.1736 14.4267 14.5969 15.85L19.7302 20.9976H19.743L21.1535 19.5871L21.1408 19.5743L16.0075 14.4283C14.624 13.0591 13.867 11.2224 13.867 9.28068C13.867 7.33899 14.6255 5.50384 16.0075 4.12033C17.3767 2.75113 19.2134 1.99258 21.1551 1.99258C23.0968 1.99258 24.9319 2.75113 26.3154 4.12033C27.6846 5.50384 28.4432 7.32468 28.4432 9.28068C28.4432 11.2367 27.6846 13.0575 26.3154 14.4283L21.1678 19.5743L21.1551 19.5871L22.5656 20.9976L22.5784 20.9849L27.7244 15.8516C29.0936 14.4681 30.9303 13.7111 32.872 13.7111C34.8137 13.7111 36.6489 14.4697 38.0324 15.8516C39.4016 17.2208 40.1601 19.0575 40.1601 20.9992C40.1601 22.9409 39.4016 24.776 38.0324 26.1596V26.1611Z" fill="#F5DBCB"/>
</g>
<defs>
<clipPath id="clip0_0_235">
<rect width="42" height="42" fill="white" transform="translate(0.154297)"/>
</clipPath>
</defs>
</svg>
