<svg width="233" height="72" viewBox="0 0 233 72" fill="none" xmlns="http://www.w3.org/2000/svg">
<g clip-path="url(#clip0_26_457)">
<path d="M17.8495 17.2135C21.2549 17.2135 24.2811 18.072 26.9252 19.7889C29.5693 21.5058 31.6665 23.8625 33.2167 26.8588C34.7668 29.8551 35.5419 33.3 35.5419 37.1935C35.5419 41.0871 34.7668 44.4932 33.2167 47.5671C31.6637 50.6409 29.5556 53.0751 26.8867 54.8668C24.2179 56.6612 21.2055 57.5557 17.8495 57.5557C16.1729 57.5557 14.5567 57.2981 13.0065 56.7858C11.4536 56.2735 10.0189 55.5452 8.6968 54.5954C7.37475 53.6483 6.16539 52.4963 5.07421 51.1366C3.98028 49.7797 3.02654 48.2538 2.21296 46.5646L3.20519 45.4902V55.2489C3.20519 55.6588 3.06502 56.016 2.78466 56.3234C2.50431 56.6308 2.136 56.7858 1.67974 56.7858C1.27296 56.7858 0.918395 56.6308 0.613305 56.3234C0.308216 56.016 0.154297 55.6588 0.154297 55.2489V1.53692C0.154297 1.12708 0.294473 0.769846 0.574826 0.462462C0.85243 0.155077 1.22348 0 1.67974 0C2.136 0 2.50431 0.155077 2.78466 0.462462C3.06502 0.769846 3.20519 1.12708 3.20519 1.53692V29.3538L2.21296 28.8166C2.92484 26.9225 3.81537 25.2582 4.88181 23.8209C5.94825 22.3865 7.16861 21.1818 8.54288 20.2098C9.91441 19.2378 11.3904 18.4957 12.9653 17.9806C14.5402 17.4683 16.1674 17.2108 17.8467 17.2108L17.8495 17.2135ZM17.6956 20.1323C14.7958 20.1323 12.2424 20.8634 10.0299 22.3228C7.81727 23.7822 6.07743 25.7926 4.80485 28.3542C3.53227 30.9157 2.89735 33.8622 2.89735 37.1908C2.89735 40.5194 3.53227 43.5046 4.80485 46.1437C6.07468 48.7828 7.81727 50.8569 10.0299 52.3689C12.2424 53.8809 14.7958 54.6369 17.6956 54.6369C20.5953 54.6369 23.0717 53.8698 25.2843 52.3329C27.4969 50.796 29.2505 48.708 30.5478 46.0689C31.8451 43.4298 32.4938 40.4723 32.4938 37.1935C32.4938 33.9148 31.8451 30.9185 30.5478 28.3569C29.2505 25.7954 27.4969 23.7849 25.2843 22.3255C23.0717 20.8662 20.5431 20.1351 17.6956 20.1351V20.1323Z" fill="#F5DBCB"/>
<path d="M41.6437 11.988C40.8301 11.988 40.1815 11.7582 39.6977 11.2957C39.214 10.8332 38.9749 10.2462 38.9749 9.52892V8.91415C38.9749 8.19692 39.2277 7.60708 39.7362 7.14739C40.2447 6.68769 40.9043 6.45508 41.7179 6.45508C42.4298 6.45508 43.0262 6.68492 43.51 7.14739C43.9937 7.60985 44.2356 8.19692 44.2356 8.91415V9.52892C44.2356 10.2462 43.9937 10.836 43.51 11.2957C43.0262 11.7582 42.405 11.988 41.641 11.988H41.6437ZM43.1691 55.2489C43.1691 55.6588 43.0152 56.016 42.7101 56.3234C42.405 56.6308 42.0505 56.7858 41.6437 56.7858C41.1874 56.7858 40.8164 56.6308 40.5388 56.3234C40.2584 56.016 40.1182 55.6588 40.1182 55.2489V18.7505C40.1182 18.3406 40.2722 17.9834 40.5773 17.676C40.8824 17.3686 41.2369 17.2135 41.6437 17.2135C42.1 17.2135 42.4683 17.3686 42.7486 17.676C43.029 17.9834 43.1691 18.3434 43.1691 18.7505V55.2489Z" fill="#F5DBCB"/>
<path d="M54.1523 61.2419C54.1523 63.5487 53.5669 65.4927 52.3988 67.0822C51.2279 68.669 49.8426 69.8875 48.2429 70.7321C46.6405 71.5767 45.1288 72.0004 43.7051 72.0004C43.2488 72.0004 42.8943 71.8592 42.6386 71.5795C42.3858 71.297 42.2566 70.9758 42.2566 70.6185V70.4662C42.2566 70.0564 42.3968 69.7213 42.6771 69.4665C42.9575 69.209 43.2763 69.0567 43.6309 69.0069C44.7468 68.8019 45.8819 68.417 47.0226 67.8549C48.166 67.2899 49.1307 66.473 49.9223 65.3958C50.7112 64.3185 51.1042 62.9367 51.1042 61.2447V19.9029C51.1042 19.493 51.2444 19.1358 51.522 18.8284C51.8023 18.521 52.1706 18.3659 52.6269 18.3659C53.0832 18.3659 53.4542 18.521 53.7346 18.8284C54.0122 19.1358 54.1523 19.493 54.1523 19.9029V61.2419ZM52.6241 11.9109C51.8106 11.9109 51.1619 11.681 50.6782 11.2185C50.1944 10.7561 49.9553 10.169 49.9553 9.45178V8.83701C49.9553 8.11978 50.2082 7.52993 50.7166 7.07024C51.2251 6.60778 51.8848 6.37793 52.6984 6.37793C53.4102 6.37793 54.0067 6.60778 54.4904 7.07024C54.9714 7.5327 55.2133 8.11978 55.2133 8.83701V9.45178C55.2133 10.169 54.9714 10.7589 54.4904 11.2185C54.0067 11.6782 53.3855 11.9109 52.6214 11.9109H52.6241Z" fill="#F5DBCB"/>
<path d="M133.391 18.4404C133.847 18.4404 134.215 18.5955 134.495 18.9029C134.776 19.2103 134.913 19.5703 134.913 19.9801V42.3417C134.913 47.3124 133.528 51.037 130.757 53.521C127.987 56.0051 124.312 57.2484 119.738 57.2484C115.165 57.2484 111.564 56.0078 108.794 53.521C106.02 51.037 104.635 47.3097 104.635 42.3417V19.9801C104.635 19.5703 104.789 19.2103 105.094 18.9029C105.399 18.5955 105.754 18.4404 106.161 18.4404C106.617 18.4404 106.985 18.5955 107.266 18.9029C107.546 19.2103 107.686 19.5703 107.686 19.9801V42.3417C107.686 46.2352 108.766 49.2066 110.927 51.2558C113.087 53.305 116.022 54.3297 119.736 54.3297C123.449 54.3297 126.459 53.305 128.622 51.2558C130.782 49.2066 131.862 46.2352 131.862 42.3417V19.9801C131.862 19.5703 132.002 19.2103 132.283 18.9029C132.56 18.5955 132.931 18.4404 133.388 18.4404H133.391Z" fill="#F5DBCB"/>
<path d="M173.583 17.2139C175.872 17.2139 178.019 17.4714 180.028 17.9837C182.037 18.496 183.664 19.1745 184.909 20.0191C186.155 20.8637 186.778 21.7471 186.778 22.6693C186.778 23.0265 186.638 23.3726 186.361 23.7049C186.08 24.04 185.737 24.2034 185.33 24.2034C184.769 24.2034 184.327 24.0483 183.994 23.7409C183.664 23.4336 183.321 23.0625 182.966 22.6277C182.609 22.1929 182.051 21.7942 181.29 21.4369C180.578 21.0797 179.574 20.7723 178.277 20.5148C176.98 20.26 175.391 20.1299 173.511 20.1299C170.562 20.1299 167.868 20.8997 165.425 22.4366C162.984 23.9736 161.041 26.0366 159.59 28.6231C158.141 31.2096 157.416 34.1173 157.416 37.3462C157.416 40.5751 158.089 43.5714 159.436 46.1828C160.783 48.7969 162.665 50.8573 165.079 52.3692C167.492 53.8812 170.304 54.6372 173.506 54.6372C175.792 54.6372 177.535 54.4212 178.731 53.9837C179.924 53.5489 180.954 53.0754 181.82 52.5631C182.886 51.9483 183.623 51.3585 184.033 50.7963C184.439 50.2342 184.92 49.9517 185.481 49.9517C185.888 49.9517 186.204 50.0791 186.435 50.3366C186.666 50.5942 186.778 50.9265 186.778 51.3363C186.778 51.9511 186.218 52.7569 185.102 53.7566C183.983 54.7563 182.419 55.6397 180.413 56.4068C178.404 57.1739 176.029 57.5588 173.28 57.5588C169.57 57.5588 166.291 56.6754 163.44 54.9086C160.593 53.1419 158.369 50.7326 156.767 47.6865C155.165 44.6403 154.365 41.1926 154.365 37.3517C154.365 33.7656 155.165 30.448 156.767 27.4019C158.369 24.3557 160.607 21.8966 163.479 20.0246C166.351 18.1554 169.721 17.2194 173.585 17.2194L173.583 17.2139Z" fill="#F5DBCB"/>
<path d="M225.673 37.4209C225.673 41.212 224.86 44.632 223.233 47.6782C221.605 50.7271 219.382 53.1336 216.559 54.9003C213.736 56.6671 210.52 57.5505 206.912 57.5505C203.303 57.5505 200.147 56.6671 197.303 54.9003C194.455 53.1336 192.204 50.7243 190.552 47.6782C188.9 44.632 188.073 41.212 188.073 37.4209C188.073 33.6299 188.898 30.1351 190.552 27.0862C192.204 24.04 194.455 21.6308 197.303 19.864C200.15 18.0973 203.352 17.2139 206.912 17.2139C210.471 17.2139 213.736 18.0973 216.559 19.864C219.382 21.6308 221.605 24.04 223.233 27.0862C224.86 30.1351 225.673 33.58 225.673 37.4209ZM222.622 37.4209C222.622 34.0923 221.949 31.132 220.602 28.5456C219.255 25.9591 217.397 23.9099 215.034 22.3979C212.67 20.8886 209.962 20.1299 206.912 20.1299C203.861 20.1299 201.217 20.8859 198.828 22.3979C196.437 23.9099 194.557 25.9591 193.185 28.5456C191.814 31.132 191.127 34.0923 191.127 37.4209C191.127 40.7496 191.814 43.6323 193.185 46.2188C194.557 48.8052 196.44 50.8545 198.828 52.3665C201.217 53.8785 203.91 54.6345 206.912 54.6345C209.913 54.6345 212.67 53.8785 215.034 52.3665C217.397 50.8573 219.253 48.808 220.602 46.2188C221.949 43.6323 222.622 40.6997 222.622 37.4209Z" fill="#F5DBCB"/>
<path d="M229.79 56.7857C229.131 56.7857 228.62 56.5559 228.265 56.0934C227.91 55.6309 227.732 55.0688 227.732 54.4042V52.6374C227.732 51.9202 227.91 51.3442 228.265 50.9094C228.62 50.4746 229.131 50.2559 229.79 50.2559H230.096C230.807 50.2559 231.327 50.4746 231.66 50.9094C231.989 51.3442 232.157 51.9202 232.157 52.6374V54.4042C232.157 55.0716 231.989 55.6337 231.66 56.0934C231.33 56.5559 230.807 56.7857 230.096 56.7857H229.79Z" fill="#F5DBCB"/>
<path d="M79.3951 29.9046C81.1267 33.3966 84.0429 36.3348 87.5089 38.0794C84.0402 39.824 81.1267 42.7622 79.3951 46.2542C77.6635 42.7594 74.7473 39.824 71.2814 38.0794C74.7473 36.3348 77.6635 33.3966 79.3951 29.9046ZM79.3951 22.8486C79.3951 30.7465 72.117 38.0794 64.2781 38.0794C72.117 38.0794 79.3951 45.4123 79.3951 53.3102C79.3951 45.4123 86.6733 38.0794 94.5122 38.0794C86.6733 38.0794 79.3951 30.7465 79.3951 22.8486Z" fill="#F5DBCB"/>
<path d="M79.3951 59.3171C67.7714 59.3171 58.3164 49.7882 58.3164 38.0771C58.3164 26.366 67.7714 16.8398 79.3951 16.8398C91.0187 16.8398 100.476 26.366 100.476 38.0771C100.476 49.7882 91.0187 59.3171 79.3951 59.3171ZM79.3951 18.9749C68.9396 18.9749 60.4328 27.5457 60.4328 38.0798C60.4328 48.614 68.9396 57.1848 79.3951 57.1848C89.8506 57.1848 98.3574 48.614 98.3574 38.0798C98.3574 27.5457 89.8506 18.9749 79.3951 18.9749Z" fill="#F5DBCB"/>
<path d="M79.3951 53.8446C70.7647 53.8446 63.7449 46.772 63.7449 38.0766C63.7449 29.3812 70.7647 22.3086 79.3951 22.3086C88.0256 22.3086 95.0454 29.3812 95.0454 38.0766C95.0454 46.772 88.0256 53.8446 79.3951 53.8446ZM79.3951 24.2775C71.8421 24.2775 65.6963 30.4695 65.6963 38.0794C65.6963 45.6892 71.8421 51.8812 79.3951 51.8812C86.9482 51.8812 93.0939 45.6892 93.0939 38.0794C93.0939 30.4695 86.9482 24.2775 79.3951 24.2775Z" fill="#F5DBCB"/>
<path d="M78.3835 38.085L74.7444 41.7597C72.727 43.7923 69.4479 43.7923 67.4387 41.7597C65.4213 39.7271 65.4213 36.4317 67.4387 34.3991C68.4475 33.3828 69.7668 32.8788 71.0861 32.8788C72.4054 32.8788 73.7357 33.3828 74.7444 34.3991L78.3835 38.0739H78.3917L79.3922 37.0659L75.7449 33.3911C74.4998 32.1366 72.8506 31.4526 71.0888 31.4443C69.3352 31.4443 67.6861 32.1366 66.441 33.3911C65.1959 34.6456 64.5088 36.3071 64.5088 38.0739C64.5088 39.8406 65.1959 41.5105 66.441 42.7649C67.6861 44.0194 69.3352 44.7034 71.0888 44.7034C72.8424 44.7034 74.4998 44.0194 75.7449 42.7649L79.384 39.0902L79.3922 39.0819L78.3917 38.0739L78.3835 38.0822V38.085Z" fill="#F5DBCB"/>
<path d="M92.3516 33.394C91.1066 32.1396 89.4574 31.4473 87.6956 31.4473C85.942 31.4556 84.2929 32.1396 83.0478 33.394L79.4005 37.0688H79.3922L80.3927 38.0768L80.4009 38.0685L84.0483 34.402C85.0185 33.4134 86.3213 32.8734 87.6956 32.8734C89.0699 32.8734 90.3727 33.4134 91.3539 34.402C92.3242 35.3796 92.8629 36.6894 92.8629 38.0768C92.8629 39.4642 92.3269 40.774 91.3539 41.7626C90.3727 42.7402 89.0836 43.283 87.6956 43.283C86.3076 43.283 85.0185 42.743 84.0483 41.7626L80.4009 38.0879L80.3927 38.0796L79.3922 39.0876L79.4005 39.0959L83.0478 42.7706C84.2929 44.0251 85.942 44.7091 87.6956 44.7091C89.4492 44.7091 91.1066 44.0251 92.3516 42.7706C93.5967 41.5162 94.2756 39.8546 94.2756 38.0796C94.2756 36.3045 93.5967 34.6513 92.3516 33.3968V33.394Z" fill="#F5DBCB"/>
</g>
<defs>
<clipPath id="clip0_26_457">
<rect width="232" height="72" fill="white" transform="translate(0.154297)"/>
</clipPath>
</defs>
</svg>
