<svg width="31" height="29" viewBox="0 0 31 29" fill="none" xmlns="http://www.w3.org/2000/svg">
<g clip-path="url(#clip0_26_313)">
<path d="M0.154297 14.5C6.2038 13.565 10.841 9.63813 13.3582 4.99712C14.1906 3.43844 14.7815 1.77565 15.1548 0C16.5481 7.15708 8.95058 15.5148 0.154297 14.5Z" fill="#4E002E"/>
<path d="M30.1543 14.5C21.357 15.5138 13.7615 7.15806 15.1538 0C15.5271 1.77565 16.118 3.43844 16.9504 4.99711C19.4676 9.6391 24.1038 13.566 30.1543 14.5Z" fill="#4E002E"/>
<path d="M0.154297 14.5C8.95158 13.4862 16.5471 21.842 15.1538 29C14.7805 27.2244 14.1896 25.5616 13.3572 24.0029C10.841 19.3619 6.2038 15.4351 0.154297 14.5Z" fill="#4E002E"/>
<path d="M30.1543 14.4999C24.1048 15.435 19.4676 19.3618 16.9504 24.0028C16.118 25.5615 15.5271 27.2243 15.1538 28.9999C13.7605 21.8429 21.357 13.4851 30.1543 14.4999Z" fill="#4E002E"/>
<path d="M11.1634 19.4659L15.1438 15.576L15.1538 15.5663L14.0609 14.5009L14.0509 14.5107L10.0704 18.4005L11.1634 19.4659ZM10.0704 10.6101L14.0509 14.5H14.0609L15.1538 13.4346L11.1634 9.54468L10.0704 10.6101Z" fill="#4E002E"/>
<path d="M20.2481 18.4005L16.2577 14.5107L16.2477 14.5009L15.1548 15.5663L15.1648 15.576L19.1552 19.4659L20.2481 18.4005ZM19.1552 9.54468L15.1648 13.4346H15.1548L16.2477 14.5L16.2577 14.4902L20.2481 10.6101L19.1552 9.54468Z" fill="#4E002E"/>
</g>
<defs>
<clipPath id="clip0_26_313">
<rect width="30" height="29" fill="white" transform="translate(0.154297)"/>
</clipPath>
</defs>
</svg>
