<svg width="1512" height="889" viewBox="0 0 1512 889" fill="none" xmlns="http://www.w3.org/2000/svg">
<rect width="1512" height="889" fill="#F5DBCB" fill-opacity="0.25"/>
<g clip-path="url(#clip0_34_12)">
<path d="M165.722 710.247C153.338 747.335 153.338 788.951 165.722 826.039C128.641 813.652 87.0326 813.652 49.9515 826.039C62.3359 788.951 62.3359 747.335 49.9515 710.247C87.0326 722.633 128.641 722.633 165.722 710.247ZM215.682 660.277C159.764 716.206 55.9187 716.206 0 660.277C55.9187 716.206 55.9187 820.071 0 876C55.9187 820.071 159.764 820.071 215.673 876C159.755 820.071 159.764 716.206 215.673 660.277H215.682Z" fill="#FF8C6B" fill-opacity="0.1"/>
<path d="M381.782 710.247C369.398 747.335 369.398 788.951 381.782 826.039C344.701 813.652 303.093 813.652 266.012 826.039C278.396 788.951 278.396 747.335 266.012 710.247C303.093 722.633 344.701 722.633 381.782 710.247ZM431.734 660.277C375.815 716.206 271.97 716.206 216.051 660.277C271.97 716.206 271.97 820.071 216.051 876C271.97 820.071 375.815 820.071 431.725 876C375.806 820.071 375.815 716.206 431.725 660.277H431.734Z" fill="#FF8C6B" fill-opacity="0.1"/>
<path d="M597.834 710.247C585.449 747.335 585.449 788.951 597.834 826.039C560.753 813.652 519.144 813.652 482.063 826.039C494.448 788.951 494.448 747.335 482.063 710.247C519.144 722.633 560.753 722.633 597.834 710.247ZM647.785 660.277C591.867 716.206 488.022 716.206 432.103 660.277C488.022 716.206 488.022 820.071 432.103 876C488.022 820.071 591.867 820.071 647.776 876C591.858 820.071 591.867 716.206 647.776 660.277H647.785Z" fill="#FF8C6B" fill-opacity="0.1"/>
<path d="M813.885 710.247C801.501 747.335 801.501 788.951 813.885 826.039C776.804 813.652 735.196 813.652 698.115 826.039C710.499 788.951 710.499 747.335 698.115 710.247C735.196 722.633 776.804 722.633 813.885 710.247ZM863.837 660.277C807.918 716.206 704.073 716.206 648.154 660.277C704.073 716.206 704.073 820.071 648.154 876C704.073 820.071 807.918 820.071 863.828 876C807.909 820.071 807.918 716.206 863.828 660.277H863.837Z" fill="#FF8C6B" fill-opacity="0.1"/>
<path d="M1029.94 710.247C1017.55 747.335 1017.55 788.951 1029.94 826.039C992.856 813.652 951.247 813.652 914.166 826.039C926.551 788.951 926.551 747.335 914.166 710.247C951.247 722.633 992.856 722.633 1029.94 710.247ZM1079.9 660.277C1023.98 716.206 920.133 716.206 864.215 660.277C920.133 716.206 920.133 820.071 864.215 876C920.133 820.071 1023.98 820.071 1079.89 876C1023.97 820.071 1023.98 716.206 1079.89 660.277H1079.9Z" fill="#FF8C6B" fill-opacity="0.1"/>
<path d="M1245.99 710.247C1233.6 747.335 1233.6 788.951 1245.99 826.039C1208.91 813.652 1167.3 813.652 1130.22 826.039C1142.6 788.951 1142.6 747.335 1130.22 710.247C1167.3 722.633 1208.91 722.633 1245.99 710.247ZM1295.95 660.277C1240.03 716.206 1136.18 716.206 1080.27 660.277C1136.18 716.206 1136.18 820.071 1080.27 876C1136.18 820.071 1240.03 820.071 1295.94 876C1240.02 820.071 1240.03 716.206 1295.94 660.277H1295.95Z" fill="#FF8C6B" fill-opacity="0.1"/>
<path d="M165.722 494.154C153.338 531.243 153.338 572.859 165.722 609.947C128.641 597.56 87.0326 597.56 49.9515 609.947C62.3359 572.859 62.3359 531.243 49.9515 494.154C87.0326 506.541 128.641 506.541 165.722 494.154ZM215.682 444.185C159.764 500.114 55.9187 500.114 0 444.185C55.9187 500.114 55.9187 603.979 0 659.908C55.9187 603.979 159.764 603.979 215.673 659.908C159.755 603.979 159.764 500.114 215.673 444.185H215.682Z" fill="#FF8C6B" fill-opacity="0.1"/>
<path d="M381.782 494.154C369.398 531.243 369.398 572.859 381.782 609.947C344.701 597.56 303.093 597.56 266.012 609.947C278.396 572.859 278.396 531.243 266.012 494.154C303.093 506.541 344.701 506.541 381.782 494.154ZM431.734 444.185C375.815 500.114 271.97 500.114 216.051 444.185C271.97 500.114 271.97 603.979 216.051 659.908C271.97 603.979 375.815 603.979 431.725 659.908C375.806 603.979 375.815 500.114 431.725 444.185H431.734Z" fill="#FF8C6B" fill-opacity="0.1"/>
<path d="M165.722 278.062C153.338 315.15 153.338 356.766 165.722 393.855C128.641 381.468 87.0326 381.468 49.9515 393.855C62.3359 356.766 62.3359 315.15 49.9515 278.062C87.0326 290.449 128.641 290.449 165.722 278.062ZM215.682 228.092C159.764 284.022 55.9187 284.022 0 228.092C55.9187 284.022 55.9187 387.886 0 443.815C55.9187 387.886 159.764 387.886 215.673 443.815C159.755 387.886 159.764 284.022 215.673 228.092H215.682Z" fill="#FF8C6B" fill-opacity="0.1"/>
<path d="M381.782 278.062C369.398 315.15 369.398 356.766 381.782 393.855C344.701 381.468 303.093 381.468 266.012 393.855C278.396 356.766 278.396 315.15 266.012 278.062C303.093 290.449 344.701 290.449 381.782 278.062ZM431.734 228.092C375.815 284.022 271.97 284.022 216.051 228.092C271.97 284.022 271.97 387.886 216.051 443.815C271.97 387.886 375.815 387.886 431.725 443.815C375.806 387.886 375.815 284.022 431.725 228.092H431.734Z" fill="#FF8C6B" fill-opacity="0.1"/>
<path d="M597.834 494.154C585.449 531.243 585.449 572.859 597.834 609.947C560.753 597.56 519.144 597.56 482.063 609.947C494.448 572.859 494.448 531.243 482.063 494.154C519.144 506.541 560.753 506.541 597.834 494.154ZM647.785 444.185C591.867 500.114 488.022 500.114 432.103 444.185C488.022 500.114 488.022 603.979 432.103 659.908C488.022 603.979 591.867 603.979 647.776 659.908C591.858 603.979 591.867 500.114 647.776 444.185H647.785Z" fill="#FF8C6B" fill-opacity="0.1"/>
<path d="M813.885 494.154C801.501 531.243 801.501 572.859 813.885 609.947C776.804 597.56 735.196 597.56 698.115 609.947C710.499 572.859 710.499 531.243 698.115 494.154C735.196 506.541 776.804 506.541 813.885 494.154ZM863.837 444.185C807.918 500.114 704.073 500.114 648.154 444.185C704.073 500.114 704.073 603.979 648.154 659.908C704.073 603.979 807.918 603.979 863.828 659.908C807.909 603.979 807.918 500.114 863.828 444.185H863.837Z" fill="#FF8C6B" fill-opacity="0.1"/>
<path d="M597.834 278.062C585.449 315.15 585.449 356.766 597.834 393.855C560.753 381.468 519.144 381.468 482.063 393.855C494.448 356.766 494.448 315.15 482.063 278.062C519.144 290.449 560.753 290.449 597.834 278.062ZM647.785 228.092C591.867 284.022 488.022 284.022 432.103 228.092C488.022 284.022 488.022 387.886 432.103 443.815C488.022 387.886 591.867 387.886 647.776 443.815C591.858 387.886 591.867 284.022 647.776 228.092H647.785Z" fill="#FF8C6B" fill-opacity="0.1"/>
<path d="M813.885 278.062C801.501 315.15 801.501 356.766 813.885 393.855C776.804 381.468 735.196 381.468 698.115 393.855C710.499 356.766 710.499 315.15 698.115 278.062C735.196 290.449 776.804 290.449 813.885 278.062ZM863.837 228.092C807.918 284.022 704.073 284.022 648.154 228.092C704.073 284.022 704.073 387.886 648.154 443.815C704.073 387.886 807.918 387.886 863.828 443.815C807.909 387.886 807.918 284.022 863.828 228.092H863.837Z" fill="#FF8C6B" fill-opacity="0.1"/>
<path d="M1029.94 494.154C1017.55 531.243 1017.55 572.859 1029.94 609.947C992.856 597.56 951.247 597.56 914.166 609.947C926.551 572.859 926.551 531.243 914.166 494.154C951.247 506.541 992.856 506.541 1029.94 494.154ZM1079.9 444.185C1023.98 500.114 920.133 500.114 864.215 444.185C920.133 500.114 920.133 603.979 864.215 659.908C920.133 603.979 1023.98 603.979 1079.89 659.908C1023.97 603.979 1023.98 500.114 1079.89 444.185H1079.9Z" fill="#FF8C6B" fill-opacity="0.1"/>
<path d="M1245.99 494.154C1233.6 531.243 1233.6 572.859 1245.99 609.947C1208.91 597.56 1167.3 597.56 1130.22 609.947C1142.6 572.859 1142.6 531.243 1130.22 494.154C1167.3 506.541 1208.91 506.541 1245.99 494.154ZM1295.95 444.185C1240.03 500.114 1136.18 500.114 1080.27 444.185C1136.18 500.114 1136.18 603.979 1080.27 659.908C1136.18 603.979 1240.03 603.979 1295.94 659.908C1240.02 603.979 1240.03 500.114 1295.94 444.185H1295.95Z" fill="#FF8C6B" fill-opacity="0.1"/>
<path d="M1029.94 278.062C1017.55 315.15 1017.55 356.766 1029.94 393.855C992.856 381.468 951.247 381.468 914.166 393.855C926.551 356.766 926.551 315.15 914.166 278.062C951.247 290.449 992.856 290.449 1029.94 278.062ZM1079.9 228.092C1023.98 284.022 920.133 284.022 864.215 228.092C920.133 284.022 920.133 387.886 864.215 443.815C920.133 387.886 1023.98 387.886 1079.89 443.815C1023.97 387.886 1023.98 284.022 1079.89 228.092H1079.9Z" fill="#FF8C6B" fill-opacity="0.1"/>
<path d="M1245.99 278.062C1233.6 315.15 1233.6 356.766 1245.99 393.855C1208.91 381.468 1167.3 381.468 1130.22 393.855C1142.6 356.766 1142.6 315.15 1130.22 278.062C1167.3 290.449 1208.91 290.449 1245.99 278.062ZM1295.95 228.092C1240.03 284.022 1136.18 284.022 1080.27 228.092C1136.18 284.022 1136.18 387.886 1080.27 443.815C1136.18 387.886 1240.03 387.886 1295.94 443.815C1240.02 387.886 1240.03 284.022 1295.94 228.092H1295.95Z" fill="#FF8C6B" fill-opacity="0.1"/>
<path d="M1462.04 710.247C1449.66 747.335 1449.66 788.951 1462.04 826.039C1424.96 813.652 1383.35 813.652 1346.27 826.039C1358.65 788.951 1358.65 747.335 1346.27 710.247C1383.35 722.633 1424.96 722.633 1462.04 710.247ZM1512 660.277C1456.08 716.206 1352.24 716.206 1296.32 660.277C1352.24 716.206 1352.24 820.071 1296.32 876C1352.24 820.071 1456.08 820.071 1511.99 876C1456.07 820.071 1456.08 716.206 1511.99 660.277H1512Z" fill="#FF8C6B" fill-opacity="0.1"/>
<path d="M1462.04 494.154C1449.66 531.243 1449.66 572.859 1462.04 609.947C1424.96 597.56 1383.35 597.56 1346.27 609.947C1358.65 572.859 1358.65 531.243 1346.27 494.154C1383.35 506.541 1424.96 506.541 1462.04 494.154ZM1512 444.185C1456.08 500.114 1352.24 500.114 1296.32 444.185C1352.24 500.114 1352.24 603.979 1296.32 659.908C1352.24 603.979 1456.08 603.979 1511.99 659.908C1456.07 603.979 1456.08 500.114 1511.99 444.185H1512Z" fill="#FF8C6B" fill-opacity="0.1"/>
<path d="M1462.04 278.062C1449.66 315.15 1449.66 356.766 1462.04 393.855C1424.96 381.468 1383.35 381.468 1346.27 393.855C1358.65 356.766 1358.65 315.15 1346.27 278.062C1383.35 290.449 1424.96 290.449 1462.04 278.062ZM1512 228.092C1456.08 284.022 1352.24 284.022 1296.32 228.092C1352.24 284.022 1352.24 387.886 1296.32 443.815C1352.24 387.886 1456.08 387.886 1511.99 443.815C1456.07 387.886 1456.08 284.022 1511.99 228.092H1512Z" fill="#FF8C6B" fill-opacity="0.1"/>
<path d="M165.722 61.9609C153.338 99.049 153.338 140.665 165.722 177.753C128.641 165.367 87.0326 165.367 49.9515 177.753C62.3359 140.665 62.3359 99.049 49.9515 61.9609C87.0326 74.3476 128.641 74.3476 165.722 61.9609ZM215.682 12C159.764 67.9292 55.9187 67.9292 0 12C55.9187 67.9292 55.9187 171.794 0 227.723C55.9187 171.794 159.764 171.794 215.673 227.723C159.764 171.794 159.764 67.9292 215.682 12Z" fill="#FF8C6B" fill-opacity="0.1"/>
<path d="M381.782 61.9609C369.398 99.049 369.398 140.665 381.782 177.753C344.701 165.367 303.093 165.367 266.012 177.753C278.396 140.665 278.396 99.049 266.012 61.9609C303.093 74.3476 344.701 74.3476 381.782 61.9609ZM431.734 12C375.815 67.9292 271.97 67.9292 216.051 12C271.97 67.9292 271.97 171.794 216.051 227.723C271.97 171.794 375.815 171.794 431.725 227.723C375.815 171.794 375.815 67.9292 431.734 12Z" fill="#FF8C6B" fill-opacity="0.1"/>
<path d="M597.834 61.9609C585.449 99.049 585.449 140.665 597.834 177.753C560.753 165.367 519.144 165.367 482.063 177.753C494.448 140.665 494.448 99.049 482.063 61.9609C519.144 74.3476 560.753 74.3476 597.834 61.9609ZM647.785 12C591.867 67.9292 488.022 67.9292 432.103 12C488.022 67.9292 488.022 171.794 432.103 227.723C488.022 171.794 591.867 171.794 647.776 227.723C591.867 171.794 591.876 67.9292 647.785 12Z" fill="#FF8C6B" fill-opacity="0.1"/>
<path d="M813.885 61.9609C801.501 99.049 801.501 140.665 813.885 177.753C776.804 165.367 735.196 165.367 698.115 177.753C710.499 140.665 710.499 99.049 698.115 61.9609C735.196 74.3476 776.804 74.3476 813.885 61.9609ZM863.837 12C807.918 67.9292 704.073 67.9292 648.154 12C704.073 67.9292 704.073 171.794 648.154 227.723C704.073 171.794 807.918 171.794 863.828 227.723C807.918 171.794 807.927 67.9292 863.837 12Z" fill="#FF8C6B" fill-opacity="0.1"/>
<path d="M1029.94 61.9609C1017.55 99.049 1017.55 140.665 1029.94 177.753C992.856 165.367 951.247 165.367 914.166 177.753C926.551 140.665 926.551 99.049 914.166 61.9609C951.247 74.3476 992.856 74.3476 1029.94 61.9609ZM1079.9 12C1023.98 67.9292 920.133 67.9292 864.215 12C920.133 67.9292 920.133 171.794 864.215 227.723C920.133 171.794 1023.98 171.794 1079.89 227.723C1023.97 171.794 1023.98 67.9292 1079.9 12Z" fill="#FF8C6B" fill-opacity="0.1"/>
<path d="M1245.99 61.9609C1233.6 99.049 1233.6 140.665 1245.99 177.753C1208.91 165.367 1167.3 165.367 1130.22 177.753C1142.6 140.665 1142.6 99.049 1130.22 61.9609C1167.3 74.3476 1208.91 74.3476 1245.99 61.9609ZM1295.95 12C1240.03 67.9292 1136.18 67.9292 1080.27 12C1136.18 67.9292 1136.18 171.794 1080.27 227.723C1136.18 171.794 1240.03 171.794 1295.94 227.723C1240.03 171.794 1240.03 67.9292 1295.95 12Z" fill="#FF8C6B" fill-opacity="0.1"/>
<path d="M1462.04 61.9609C1449.66 99.049 1449.66 140.665 1462.04 177.753C1424.96 165.367 1383.35 165.367 1346.27 177.753C1358.65 140.665 1358.65 99.049 1346.27 61.9609C1383.35 74.3476 1424.96 74.3476 1462.04 61.9609ZM1512 12C1456.08 67.9292 1352.24 67.9292 1296.32 12C1352.24 67.9292 1352.24 171.794 1296.32 227.723C1352.24 171.794 1456.08 171.794 1511.99 227.723C1456.08 171.794 1456.08 67.9292 1512 12Z" fill="#FF8C6B" fill-opacity="0.1"/>
</g>
<defs>
<clipPath id="clip0_34_12">
<rect width="1512" height="864" fill="white" transform="translate(0 12)"/>
</clipPath>
</defs>
</svg>
