<svg width="39" height="38" viewBox="0 0 39 38" fill="none" xmlns="http://www.w3.org/2000/svg">
<path d="M29.3003 6.574C28.8494 6.574 28.4085 6.70772 28.0336 6.95825C27.6587 7.20878 27.3664 7.56487 27.1939 7.98148C27.0213 8.3981 26.9761 8.85653 27.0641 9.29881C27.1521 9.74108 27.3692 10.1473 27.6881 10.4662C28.007 10.7851 28.4132 11.0022 28.8555 11.0902C29.2978 11.1782 29.7562 11.133 30.1728 10.9604C30.5894 10.7879 30.9455 10.4956 31.196 10.1207C31.4466 9.74576 31.5803 9.30494 31.5803 8.854C31.5803 8.24931 31.3401 7.66938 30.9125 7.2418C30.4849 6.81421 29.905 6.574 29.3003 6.574ZM38.0403 11.172C38.0033 9.59557 37.7081 8.03586 37.1663 6.555C36.6832 5.28795 35.9313 4.14063 34.9623 3.192C34.0215 2.21811 32.8715 1.47094 31.5993 1.007C30.1223 0.448705 28.5609 0.146699 26.9823 0.114C24.9683 -1.06171e-07 24.3223 0 19.1543 0C13.9863 0 13.3403 -1.06171e-07 11.3263 0.114C9.74769 0.146699 8.18625 0.448705 6.7093 1.007C5.43948 1.47563 4.29047 2.22217 3.3463 3.192C2.37241 4.13284 1.62523 5.28284 1.1613 6.555C0.603002 8.03195 0.300996 9.59339 0.268297 11.172C0.154297 13.186 0.154297 13.832 0.154297 19C0.154297 24.168 0.154297 24.814 0.268297 26.828C0.300996 28.4066 0.603002 29.968 1.1613 31.445C1.62523 32.7172 2.37241 33.8672 3.3463 34.808C4.29047 35.7778 5.43948 36.5244 6.7093 36.993C8.18625 37.5513 9.74769 37.8533 11.3263 37.886C13.3403 38 13.9863 38 19.1543 38C24.3223 38 24.9683 38 26.9823 37.886C28.5609 37.8533 30.1223 37.5513 31.5993 36.993C32.8715 36.5291 34.0215 35.7819 34.9623 34.808C35.9356 33.8629 36.6881 32.7146 37.1663 31.445C37.7081 29.9641 38.0033 28.4044 38.0403 26.828C38.0403 24.814 38.1543 24.168 38.1543 19C38.1543 13.832 38.1543 13.186 38.0403 11.172ZM34.6203 26.6C34.6065 27.8061 34.388 29.001 33.9743 30.134C33.6709 30.9609 33.1837 31.708 32.5493 32.319C31.933 32.947 31.1874 33.4332 30.3643 33.744C29.2313 34.1577 28.0364 34.3762 26.8303 34.39C24.9303 34.485 24.2273 34.504 19.2303 34.504C14.2333 34.504 13.5303 34.504 11.6303 34.39C10.378 34.4134 9.13103 34.2206 7.9443 33.82C7.15728 33.4933 6.44587 33.0083 5.8543 32.395C5.22367 31.7846 4.7425 31.0369 4.4483 30.21C3.98442 29.0608 3.72714 27.8387 3.6883 26.6C3.6883 24.7 3.5743 23.997 3.5743 19C3.5743 14.003 3.5743 13.3 3.6883 11.4C3.69681 10.167 3.9219 8.9451 4.3533 7.79C4.68779 6.98803 5.2012 6.27315 5.8543 5.7C6.43154 5.04672 7.14494 4.52788 7.9443 4.18C9.10244 3.76208 10.3231 3.54365 11.5543 3.534C13.4543 3.534 14.1573 3.42 19.1543 3.42C24.1513 3.42 24.8543 3.42 26.7543 3.534C27.9604 3.54783 29.1553 3.76627 30.2883 4.18C31.1517 4.50044 31.9267 5.02141 32.5493 5.7C33.1719 6.28364 33.6584 6.99719 33.9743 7.79C34.3966 8.94697 34.6151 10.1684 34.6203 11.4C34.7153 13.3 34.7343 14.003 34.7343 19C34.7343 23.997 34.7153 24.7 34.6203 26.6ZM19.1543 9.253C17.2273 9.25676 15.3447 9.8316 13.7443 10.9049C12.144 11.9782 10.8976 13.5018 10.1628 15.2831C9.42799 17.0645 9.23767 19.0237 9.61591 20.9132C9.99414 22.8026 10.9239 24.5376 12.2878 25.8989C13.6517 27.2601 15.3885 28.1865 17.2787 28.5611C19.1689 28.9356 21.1278 28.7415 22.9077 28.0032C24.6876 27.2649 26.2088 26.0156 27.2789 24.4132C28.3491 22.8107 28.9203 20.927 28.9203 19C28.9228 17.7177 28.6718 16.4476 28.1817 15.2626C27.6915 14.0777 26.972 13.0013 26.0643 12.0955C25.1567 11.1897 24.079 10.4722 22.8931 9.98437C21.7072 9.49654 20.4366 9.24799 19.1543 9.253ZM19.1543 25.327C17.9029 25.327 16.6797 24.9559 15.6392 24.2607C14.5987 23.5655 13.7878 22.5773 13.3089 21.4212C12.83 20.2651 12.7047 18.993 12.9489 17.7657C13.193 16.5383 13.7956 15.411 14.6804 14.5261C15.5653 13.6413 16.6926 13.0387 17.92 12.7946C19.1473 12.5504 20.4194 12.6757 21.5755 13.1546C22.7316 13.6335 23.7198 14.4444 24.415 15.4849C25.1102 16.5254 25.4813 17.7486 25.4813 19C25.4813 19.8309 25.3176 20.6536 24.9997 21.4212C24.6817 22.1889 24.2157 22.8863 23.6282 23.4739C23.0406 24.0614 22.3432 24.5274 21.5755 24.8454C20.8079 25.1633 19.9852 25.327 19.1543 25.327Z" fill="#EFEEED"/>
</svg>
