<svg width="1848" height="74" viewBox="0 0 1848 74" fill="none" xmlns="http://www.w3.org/2000/svg">
<g clip-path="url(#clip0_219_53)">
<path d="M113.353 73.1374C92.5171 73.1374 75.5688 56.7301 75.5688 36.5687C75.5688 16.4073 92.5171 0 113.353 0C134.189 0 151.138 16.403 151.138 36.5687C151.138 56.7344 134.185 73.1374 113.353 73.1374ZM113.353 3.67631C94.6106 3.67631 79.3674 18.4334 79.3674 36.5687C79.3674 54.704 94.615 69.4611 113.353 69.4611C132.091 69.4611 147.339 54.704 147.339 36.5687C147.339 18.4334 132.091 3.67631 113.353 3.67631Z" fill="#4E002E"/>
<path d="M113.353 63.716C97.8871 63.716 85.3042 51.5379 85.3042 36.5692C85.3042 21.6004 97.8871 9.42236 113.353 9.42236C128.82 9.42236 141.403 21.6004 141.403 36.5692C141.403 51.5379 128.82 63.716 113.353 63.716ZM113.353 12.8049C99.8154 12.8049 88.7992 23.4623 88.7992 36.5692C88.7992 49.676 99.8109 60.3334 113.353 60.3334C126.896 60.3334 137.908 49.676 137.908 36.5692C137.908 23.4623 126.896 12.8049 113.353 12.8049Z" fill="#4E002E"/>
<path d="M37.7844 73.1374C16.9483 73.1374 0 56.7301 0 36.5687C0 16.4073 16.9483 0 37.7844 0C58.6204 0 75.5687 16.403 75.5687 36.5687C75.5687 56.7344 58.616 73.1374 37.7844 73.1374ZM37.7844 3.67631C19.0417 3.67631 3.79852 18.4291 3.79852 36.5687C3.79852 54.7083 19.0462 69.4611 37.7844 69.4611C56.5225 69.4611 71.7702 54.704 71.7702 36.5687C71.7702 18.4334 56.5225 3.67631 37.7844 3.67631Z" fill="#4E002E"/>
<path d="M37.7846 63.716C22.3182 63.716 9.73535 51.5379 9.73535 36.5692C9.73535 21.6004 22.3182 9.42236 37.7846 9.42236C53.251 9.42236 65.8339 21.6004 65.8339 36.5692C65.8339 51.5379 53.251 63.716 37.7846 63.716ZM37.7846 12.8049C24.2465 12.8049 13.2303 23.4623 13.2303 36.5692C13.2303 49.676 24.242 60.3334 37.7846 60.3334C51.3272 60.3334 62.3389 49.676 62.3389 36.5692C62.3389 23.4623 51.3272 12.8049 37.7846 12.8049Z" fill="#4E002E"/>
<path d="M188.922 73.1374C168.085 73.1374 151.137 56.7301 151.137 36.5687C151.137 16.4073 168.085 0 188.922 0C209.758 0 226.706 16.403 226.706 36.5687C226.706 56.7344 209.753 73.1374 188.922 73.1374ZM188.922 3.67631C170.179 3.67631 154.936 18.4334 154.936 36.5687C154.936 54.704 170.183 69.4611 188.922 69.4611C207.66 69.4611 222.907 54.704 222.907 36.5687C222.907 18.4334 207.664 3.67631 188.922 3.67631Z" fill="#4E002E"/>
<path d="M188.922 63.716C173.455 63.716 160.873 51.5379 160.873 36.5692C160.873 21.6004 173.455 9.42236 188.922 9.42236C204.388 9.42236 216.971 21.6004 216.971 36.5692C216.971 51.5379 204.388 63.716 188.922 63.716ZM188.922 12.8049C175.384 12.8049 164.368 23.4623 164.368 36.5692C164.368 49.676 175.379 60.3334 188.922 60.3334C202.464 60.3334 213.476 49.676 213.476 36.5692C213.476 23.4623 202.464 12.8049 188.922 12.8049Z" fill="#4E002E"/>
<path d="M147.424 73.1374C126.587 73.1374 109.639 56.7301 109.639 36.5687C109.639 16.4073 126.592 0 147.424 0C168.255 0 185.208 16.403 185.208 36.5687C185.208 56.7344 168.255 73.1374 147.424 73.1374ZM147.424 3.67631C128.681 3.67631 113.438 18.4334 113.438 36.5687C113.438 54.704 128.685 69.4611 147.424 69.4611C166.162 69.4611 181.409 54.704 181.409 36.5687C181.409 18.4334 166.166 3.67631 147.424 3.67631Z" fill="#4E002E"/>
<path d="M147.424 63.716C131.957 63.716 119.375 51.5379 119.375 36.5692C119.375 21.6004 131.957 9.42236 147.424 9.42236C162.89 9.42236 175.473 21.6004 175.473 36.5692C175.473 51.5379 162.89 63.716 147.424 63.716ZM147.424 12.8049C133.886 12.8049 122.87 23.4623 122.87 36.5692C122.87 49.676 133.881 60.3334 147.424 60.3334C160.966 60.3334 171.978 49.676 171.978 36.5692C171.978 23.4623 160.966 12.8049 147.424 12.8049Z" fill="#4E002E"/>
<path d="M71.8552 73.1374C51.0191 73.1374 34.0708 56.7301 34.0708 36.5687C34.0708 16.4073 51.0191 0 71.8552 0C92.6912 0 109.64 16.403 109.64 36.5687C109.64 56.7344 92.6868 73.1374 71.8552 73.1374ZM71.8552 3.67631C53.1125 3.67631 37.8693 18.4334 37.8693 36.5687C37.8693 54.704 53.117 69.4611 71.8552 69.4611C90.5933 69.4611 105.841 54.704 105.841 36.5687C105.841 18.4334 90.5978 3.67631 71.8552 3.67631Z" fill="#4E002E"/>
<path d="M71.8554 63.716C56.389 63.716 43.8062 51.5379 43.8062 36.5692C43.8062 21.6004 56.389 9.42236 71.8554 9.42236C87.3218 9.42236 99.9047 21.6004 99.9047 36.5692C99.9047 51.5379 87.3218 63.716 71.8554 63.716ZM71.8554 12.8049C58.3173 12.8049 47.3012 23.4623 47.3012 36.5692C47.3012 49.676 58.3128 60.3334 71.8554 60.3334C85.398 60.3334 96.4097 49.676 96.4097 36.5692C96.4097 23.4623 85.398 12.8049 71.8554 12.8049Z" fill="#4E002E"/>
<path d="M222.993 73.1374C202.157 73.1374 185.208 56.7301 185.208 36.5687C185.208 16.4073 202.161 0 222.993 0C243.824 0 260.777 16.403 260.777 36.5687C260.777 56.7344 243.824 73.1374 222.993 73.1374ZM222.993 3.67631C204.25 3.67631 189.007 18.4334 189.007 36.5687C189.007 54.704 204.255 69.4611 222.993 69.4611C241.731 69.4611 256.979 54.704 256.979 36.5687C256.979 18.4334 241.731 3.67631 222.993 3.67631Z" fill="#4E002E"/>
<path d="M222.993 63.716C207.527 63.716 194.944 51.5379 194.944 36.5692C194.944 21.6004 207.527 9.42236 222.993 9.42236C238.459 9.42236 251.042 21.6004 251.042 36.5692C251.042 51.5379 238.459 63.716 222.993 63.716ZM222.993 12.8049C209.455 12.8049 198.439 23.4623 198.439 36.5692C198.439 49.676 209.451 60.3334 222.993 60.3334C236.536 60.3334 247.547 49.676 247.547 36.5692C247.547 23.4623 236.536 12.8049 222.993 12.8049Z" fill="#4E002E"/>
<path d="M340.059 73.1374C319.223 73.1374 302.275 56.7301 302.275 36.5687C302.275 16.4073 319.228 0 340.059 0C360.891 0 377.844 16.403 377.844 36.5687C377.844 56.7344 360.891 73.1374 340.059 73.1374ZM340.059 3.67631C321.317 3.67631 306.073 18.4334 306.073 36.5687C306.073 54.704 321.321 69.4611 340.059 69.4611C358.797 69.4611 374.045 54.704 374.045 36.5687C374.045 18.4334 358.797 3.67631 340.059 3.67631Z" fill="#4E002E"/>
<path d="M340.059 63.716C324.593 63.716 312.01 51.5379 312.01 36.5692C312.01 21.6004 324.593 9.42236 340.059 9.42236C355.526 9.42236 368.109 21.6004 368.109 36.5692C368.109 51.5379 355.526 63.716 340.059 63.716ZM340.059 12.8049C326.521 12.8049 315.505 23.4623 315.505 36.5692C315.505 49.676 326.517 60.3334 340.059 60.3334C353.602 60.3334 364.614 49.676 364.614 36.5692C364.614 23.4623 353.602 12.8049 340.059 12.8049Z" fill="#4E002E"/>
<path d="M264.491 73.1374C243.655 73.1374 226.707 56.7301 226.707 36.5687C226.707 16.4073 243.659 0 264.491 0C285.323 0 302.275 16.403 302.275 36.5687C302.275 56.7344 285.323 73.1374 264.491 73.1374ZM264.491 3.67631C245.748 3.67631 230.505 18.4334 230.505 36.5687C230.505 54.704 245.753 69.4611 264.491 69.4611C283.229 69.4611 298.477 54.704 298.477 36.5687C298.477 18.4334 283.229 3.67631 264.491 3.67631Z" fill="#4E002E"/>
<path d="M264.491 63.716C249.025 63.716 236.442 51.5379 236.442 36.5692C236.442 21.6004 249.025 9.42236 264.491 9.42236C279.958 9.42236 292.54 21.6004 292.54 36.5692C292.54 51.5379 279.958 63.716 264.491 63.716ZM264.491 12.8049C250.953 12.8049 239.937 23.4623 239.937 36.5692C239.937 49.676 250.949 60.3334 264.491 60.3334C278.034 60.3334 289.045 49.676 289.045 36.5692C289.045 23.4623 278.034 12.8049 264.491 12.8049Z" fill="#4E002E"/>
<path d="M415.628 73.1374C394.792 73.1374 377.844 56.7301 377.844 36.5687C377.844 16.4073 394.797 0 415.628 0C436.46 0 453.412 16.403 453.412 36.5687C453.412 56.7344 436.46 73.1374 415.628 73.1374ZM415.628 3.67631C396.885 3.67631 381.642 18.4334 381.642 36.5687C381.642 54.704 396.89 69.4611 415.628 69.4611C434.366 69.4611 449.614 54.704 449.614 36.5687C449.614 18.4334 434.366 3.67631 415.628 3.67631Z" fill="#4E002E"/>
<path d="M415.628 63.716C400.162 63.716 387.579 51.5379 387.579 36.5692C387.579 21.6004 400.162 9.42236 415.628 9.42236C431.095 9.42236 443.678 21.6004 443.678 36.5692C443.678 51.5379 431.095 63.716 415.628 63.716ZM415.628 12.8049C402.09 12.8049 391.074 23.4623 391.074 36.5692C391.074 49.676 402.086 60.3334 415.628 60.3334C429.171 60.3334 440.183 49.676 440.183 36.5692C440.183 23.4623 429.171 12.8049 415.628 12.8049Z" fill="#4E002E"/>
<path d="M374.13 73.1374C353.294 73.1374 336.346 56.7301 336.346 36.5687C336.346 16.4073 353.298 0 374.13 0C394.962 0 411.914 16.403 411.914 36.5687C411.914 56.7344 394.962 73.1374 374.13 73.1374ZM374.13 3.67631C355.387 3.67631 340.144 18.4334 340.144 36.5687C340.144 54.704 355.392 69.4611 374.13 69.4611C392.868 69.4611 408.116 54.704 408.116 36.5687C408.116 18.4334 392.868 3.67631 374.13 3.67631Z" fill="#4E002E"/>
<path d="M374.135 63.716C358.668 63.716 346.085 51.5379 346.085 36.5692C346.085 21.6004 358.668 9.42236 374.135 9.42236C389.601 9.42236 402.184 21.6004 402.184 36.5692C402.184 51.5379 389.601 63.716 374.135 63.716ZM374.135 12.8049C360.597 12.8049 349.58 23.4623 349.58 36.5692C349.58 49.676 360.592 60.3334 374.135 60.3334C387.677 60.3334 398.689 49.676 398.689 36.5692C398.689 23.4623 387.677 12.8049 374.135 12.8049Z" fill="#4E002E"/>
<path d="M298.561 73.1374C277.725 73.1374 260.777 56.7301 260.777 36.5687C260.777 16.4073 277.73 0 298.561 0C319.393 0 336.346 16.403 336.346 36.5687C336.346 56.7344 319.393 73.1374 298.561 73.1374ZM298.561 3.67631C279.819 3.67631 264.575 18.4334 264.575 36.5687C264.575 54.704 279.823 69.4611 298.561 69.4611C317.299 69.4611 332.547 54.704 332.547 36.5687C332.547 18.4334 317.299 3.67631 298.561 3.67631Z" fill="#4E002E"/>
<path d="M298.566 63.716C283.099 63.716 270.517 51.5379 270.517 36.5692C270.517 21.6004 283.099 9.42236 298.566 9.42236C314.032 9.42236 326.615 21.6004 326.615 36.5692C326.615 51.5379 314.032 63.716 298.566 63.716ZM298.566 12.8049C285.028 12.8049 274.012 23.4623 274.012 36.5692C274.012 49.676 285.023 60.3334 298.566 60.3334C312.108 60.3334 323.12 49.676 323.12 36.5692C323.12 23.4623 312.108 12.8049 298.566 12.8049Z" fill="#4E002E"/>
<path d="M449.698 73.1374C428.862 73.1374 411.914 56.7301 411.914 36.5687C411.914 16.4073 428.867 0 449.698 0C470.53 0 487.483 16.403 487.483 36.5687C487.483 56.7344 470.53 73.1374 449.698 73.1374ZM449.698 3.67631C430.956 3.67631 415.713 18.4334 415.713 36.5687C415.713 54.704 430.96 69.4611 449.698 69.4611C468.437 69.4611 483.684 54.704 483.684 36.5687C483.684 18.4334 468.437 3.67631 449.698 3.67631Z" fill="#4E002E"/>
<path d="M449.703 63.716C434.237 63.716 421.654 51.5379 421.654 36.5692C421.654 21.6004 434.237 9.42236 449.703 9.42236C465.169 9.42236 477.752 21.6004 477.752 36.5692C477.752 51.5379 465.169 63.716 449.703 63.716ZM449.703 12.8049C436.165 12.8049 425.149 23.4623 425.149 36.5692C425.149 49.676 436.16 60.3334 449.703 60.3334C463.246 60.3334 474.257 49.676 474.257 36.5692C474.257 23.4623 463.246 12.8049 449.703 12.8049Z" fill="#4E002E"/>
<path d="M566.766 73.1374C545.93 73.1374 528.981 56.7301 528.981 36.5687C528.981 16.4073 545.934 0 566.766 0C587.597 0 604.55 16.403 604.55 36.5687C604.55 56.7344 587.597 73.1374 566.766 73.1374ZM566.766 3.67631C548.023 3.67631 532.78 18.4334 532.78 36.5687C532.78 54.704 548.028 69.4611 566.766 69.4611C585.504 69.4611 600.752 54.704 600.752 36.5687C600.752 18.4334 585.504 3.67631 566.766 3.67631Z" fill="#4E002E"/>
<path d="M566.77 63.716C551.304 63.716 538.721 51.5379 538.721 36.5692C538.721 21.6004 551.304 9.42236 566.77 9.42236C582.237 9.42236 594.82 21.6004 594.82 36.5692C594.82 51.5379 582.237 63.716 566.77 63.716ZM566.77 12.8049C553.232 12.8049 542.216 23.4623 542.216 36.5692C542.216 49.676 553.228 60.3334 566.77 60.3334C580.313 60.3334 591.325 49.676 591.325 36.5692C591.325 23.4623 580.313 12.8049 566.77 12.8049Z" fill="#4E002E"/>
<path d="M491.196 73.1374C470.36 73.1374 453.412 56.7301 453.412 36.5687C453.412 16.4073 470.365 0 491.196 0C512.028 0 528.981 16.403 528.981 36.5687C528.981 56.7344 512.028 73.1374 491.196 73.1374ZM491.196 3.67631C472.454 3.67631 457.211 18.4334 457.211 36.5687C457.211 54.704 472.458 69.4611 491.196 69.4611C509.935 69.4611 525.182 54.704 525.182 36.5687C525.182 18.4334 509.935 3.67631 491.196 3.67631Z" fill="#4E002E"/>
<path d="M491.201 63.716C475.735 63.716 463.152 51.5379 463.152 36.5692C463.152 21.6004 475.735 9.42236 491.201 9.42236C506.667 9.42236 519.25 21.6004 519.25 36.5692C519.25 51.5379 506.667 63.716 491.201 63.716ZM491.201 12.8049C477.663 12.8049 466.647 23.4623 466.647 36.5692C466.647 49.676 477.659 60.3334 491.201 60.3334C504.744 60.3334 515.755 49.676 515.755 36.5692C515.755 23.4623 504.744 12.8049 491.201 12.8049Z" fill="#4E002E"/>
<path d="M642.339 73.1374C621.502 73.1374 604.554 56.7301 604.554 36.5687C604.554 16.4073 621.502 0 642.339 0C663.175 0 680.123 16.403 680.123 36.5687C680.123 56.7344 663.17 73.1374 642.339 73.1374ZM642.339 3.67631C623.596 3.67631 608.353 18.4334 608.353 36.5687C608.353 54.704 623.6 69.4611 642.339 69.4611C661.077 69.4611 676.324 54.704 676.324 36.5687C676.324 18.4334 661.077 3.67631 642.339 3.67631Z" fill="#4E002E"/>
<path d="M642.339 63.716C626.872 63.716 614.29 51.5379 614.29 36.5692C614.29 21.6004 626.872 9.42236 642.339 9.42236C657.805 9.42236 670.388 21.6004 670.388 36.5692C670.388 51.5379 657.805 63.716 642.339 63.716ZM642.339 12.8049C628.801 12.8049 617.785 23.4623 617.785 36.5692C617.785 49.676 628.796 60.3334 642.339 60.3334C655.881 60.3334 666.893 49.676 666.893 36.5692C666.893 23.4623 655.881 12.8049 642.339 12.8049Z" fill="#4E002E"/>
<path d="M600.841 73.1374C580.004 73.1374 563.056 56.7301 563.056 36.5687C563.056 16.4073 580.004 0 600.841 0C621.677 0 638.625 16.403 638.625 36.5687C638.625 56.7344 621.672 73.1374 600.841 73.1374ZM600.841 3.67631C582.098 3.67631 566.855 18.4334 566.855 36.5687C566.855 54.704 582.102 69.4611 600.841 69.4611C619.579 69.4611 634.826 54.704 634.826 36.5687C634.826 18.4334 619.579 3.67631 600.841 3.67631Z" fill="#4E002E"/>
<path d="M600.841 63.716C585.374 63.716 572.792 51.5379 572.792 36.5692C572.792 21.6004 585.374 9.42236 600.841 9.42236C616.307 9.42236 628.89 21.6004 628.89 36.5692C628.89 51.5379 616.307 63.716 600.841 63.716ZM600.841 12.8049C587.303 12.8049 576.286 23.4623 576.286 36.5692C576.286 49.676 587.298 60.3334 600.841 60.3334C614.383 60.3334 625.395 49.676 625.395 36.5692C625.395 23.4623 614.383 12.8049 600.841 12.8049Z" fill="#4E002E"/>
<path d="M525.272 73.1374C504.436 73.1374 487.488 56.7301 487.488 36.5687C487.488 16.4073 504.436 0 525.272 0C546.108 0 563.056 16.403 563.056 36.5687C563.056 56.7344 546.104 73.1374 525.272 73.1374ZM525.272 3.67631C506.53 3.67631 491.286 18.4334 491.286 36.5687C491.286 54.704 506.534 69.4611 525.272 69.4611C544.01 69.4611 559.258 54.704 559.258 36.5687C559.258 18.4334 544.01 3.67631 525.272 3.67631Z" fill="#4E002E"/>
<path d="M525.272 63.716C509.806 63.716 497.223 51.5379 497.223 36.5692C497.223 21.6004 509.806 9.42236 525.272 9.42236C540.739 9.42236 553.322 21.6004 553.322 36.5692C553.322 51.5379 540.739 63.716 525.272 63.716ZM525.272 12.8049C511.734 12.8049 500.718 23.4623 500.718 36.5692C500.718 49.676 511.73 60.3334 525.272 60.3334C538.815 60.3334 549.827 49.676 549.827 36.5692C549.827 23.4623 538.815 12.8049 525.272 12.8049Z" fill="#4E002E"/>
<path d="M676.409 73.1374C655.573 73.1374 638.625 56.7301 638.625 36.5687C638.625 16.4073 655.573 0 676.409 0C697.245 0 714.194 16.403 714.194 36.5687C714.194 56.7344 697.241 73.1374 676.409 73.1374ZM676.409 3.67631C657.667 3.67631 642.424 18.4334 642.424 36.5687C642.424 54.704 657.671 69.4611 676.409 69.4611C695.148 69.4611 710.395 54.704 710.395 36.5687C710.395 18.4334 695.148 3.67631 676.409 3.67631Z" fill="#4E002E"/>
<path d="M676.41 63.716C660.943 63.716 648.36 51.5379 648.36 36.5692C648.36 21.6004 660.943 9.42236 676.41 9.42236C691.876 9.42236 704.459 21.6004 704.459 36.5692C704.459 51.5379 691.876 63.716 676.41 63.716ZM676.41 12.8049C662.871 12.8049 651.855 23.4623 651.855 36.5692C651.855 49.676 662.867 60.3334 676.41 60.3334C689.952 60.3334 700.964 49.676 700.964 36.5692C700.964 23.4623 689.952 12.8049 676.41 12.8049Z" fill="#4E002E"/>
<path d="M793.476 73.1374C772.64 73.1374 755.691 56.7301 755.691 36.5687C755.691 16.4073 772.64 0 793.476 0C814.312 0 831.26 16.403 831.26 36.5687C831.26 56.7344 814.307 73.1374 793.476 73.1374ZM793.476 3.67631C774.733 3.67631 759.49 18.4334 759.49 36.5687C759.49 54.704 774.738 69.4611 793.476 69.4611C812.214 69.4611 827.462 54.704 827.462 36.5687C827.462 18.4334 812.214 3.67631 793.476 3.67631Z" fill="#4E002E"/>
<path d="M793.476 63.716C778.01 63.716 765.427 51.5379 765.427 36.5692C765.427 21.6004 778.01 9.42236 793.476 9.42236C808.942 9.42236 821.525 21.6004 821.525 36.5692C821.525 51.5379 808.942 63.716 793.476 63.716ZM793.476 12.8049C779.938 12.8049 768.922 23.4623 768.922 36.5692C768.922 49.676 779.933 60.3334 793.476 60.3334C807.019 60.3334 818.03 49.676 818.03 36.5692C818.03 23.4623 807.019 12.8049 793.476 12.8049Z" fill="#4E002E"/>
<path d="M717.907 73.1374C697.071 73.1374 680.123 56.7301 680.123 36.5687C680.123 16.4073 697.071 0 717.907 0C738.743 0 755.692 16.403 755.692 36.5687C755.692 56.7344 738.739 73.1374 717.907 73.1374ZM717.907 3.67631C699.165 3.67631 683.922 18.4334 683.922 36.5687C683.922 54.704 699.169 69.4611 717.907 69.4611C736.646 69.4611 751.893 54.704 751.893 36.5687C751.893 18.4334 736.646 3.67631 717.907 3.67631Z" fill="#4E002E"/>
<path d="M717.908 63.716C702.441 63.716 689.858 51.5379 689.858 36.5692C689.858 21.6004 702.441 9.42236 717.908 9.42236C733.374 9.42236 745.957 21.6004 745.957 36.5692C745.957 51.5379 733.374 63.716 717.908 63.716ZM717.908 12.8049C704.37 12.8049 693.353 23.4623 693.353 36.5692C693.353 49.676 704.365 60.3334 717.908 60.3334C731.45 60.3334 742.462 49.676 742.462 36.5692C742.462 23.4623 731.45 12.8049 717.908 12.8049Z" fill="#4E002E"/>
<path d="M869.045 73.1374C848.209 73.1374 831.261 56.7301 831.261 36.5687C831.261 16.4073 848.209 0 869.045 0C889.881 0 906.829 16.403 906.829 36.5687C906.829 56.7344 889.877 73.1374 869.045 73.1374ZM869.045 3.67631C850.302 3.67631 835.059 18.4334 835.059 36.5687C835.059 54.704 850.307 69.4611 869.045 69.4611C887.783 69.4611 903.031 54.704 903.031 36.5687C903.031 18.4334 887.783 3.67631 869.045 3.67631Z" fill="#4E002E"/>
<path d="M869.045 63.716C853.579 63.716 840.996 51.5379 840.996 36.5692C840.996 21.6004 853.579 9.42236 869.045 9.42236C884.512 9.42236 897.095 21.6004 897.095 36.5692C897.095 51.5379 884.512 63.716 869.045 63.716ZM869.045 12.8049C855.507 12.8049 844.491 23.4623 844.491 36.5692C844.491 49.676 855.503 60.3334 869.045 60.3334C882.588 60.3334 893.6 49.676 893.6 36.5692C893.6 23.4623 882.588 12.8049 869.045 12.8049Z" fill="#4E002E"/>
<path d="M827.547 73.1374C806.711 73.1374 789.763 56.7301 789.763 36.5687C789.763 16.4073 806.711 0 827.547 0C848.383 0 865.331 16.403 865.331 36.5687C865.331 56.7344 848.379 73.1374 827.547 73.1374ZM827.547 3.67631C808.804 3.67631 793.561 18.4334 793.561 36.5687C793.561 54.704 808.809 69.4611 827.547 69.4611C846.285 69.4611 861.533 54.704 861.533 36.5687C861.533 18.4334 846.285 3.67631 827.547 3.67631Z" fill="#4E002E"/>
<path d="M827.547 63.716C812.081 63.716 799.498 51.5379 799.498 36.5692C799.498 21.6004 812.081 9.42236 827.547 9.42236C843.014 9.42236 855.597 21.6004 855.597 36.5692C855.597 51.5379 843.014 63.716 827.547 63.716ZM827.547 12.8049C814.009 12.8049 802.993 23.4623 802.993 36.5692C802.993 49.676 814.005 60.3334 827.547 60.3334C841.09 60.3334 852.102 49.676 852.102 36.5692C852.102 23.4623 841.09 12.8049 827.547 12.8049Z" fill="#4E002E"/>
<path d="M751.978 73.1374C731.142 73.1374 714.193 56.7301 714.193 36.5687C714.193 16.4073 731.142 0 751.978 0C772.814 0 789.762 16.403 789.762 36.5687C789.762 56.7344 772.809 73.1374 751.978 73.1374ZM751.978 3.67631C733.235 3.67631 717.992 18.4334 717.992 36.5687C717.992 54.704 733.239 69.4611 751.978 69.4611C770.716 69.4611 785.964 54.704 785.964 36.5687C785.964 18.4334 770.716 3.67631 751.978 3.67631Z" fill="#4E002E"/>
<path d="M751.978 63.716C736.512 63.716 723.929 51.5379 723.929 36.5692C723.929 21.6004 736.512 9.42236 751.978 9.42236C767.444 9.42236 780.027 21.6004 780.027 36.5692C780.027 51.5379 767.444 63.716 751.978 63.716ZM751.978 12.8049C738.44 12.8049 727.424 23.4623 727.424 36.5692C727.424 49.676 738.435 60.3334 751.978 60.3334C765.521 60.3334 776.532 49.676 776.532 36.5692C776.532 23.4623 765.521 12.8049 751.978 12.8049Z" fill="#4E002E"/>
<path d="M903.115 73.1374C882.279 73.1374 865.331 56.7301 865.331 36.5687C865.331 16.4073 882.279 0 903.115 0C923.952 0 940.9 16.403 940.9 36.5687C940.9 56.7344 923.947 73.1374 903.115 73.1374ZM903.115 3.67631C884.373 3.67631 869.13 18.4334 869.13 36.5687C869.13 54.704 884.377 69.4611 903.115 69.4611C921.854 69.4611 937.101 54.704 937.101 36.5687C937.101 18.4334 921.854 3.67631 903.115 3.67631Z" fill="#4E002E"/>
<path d="M903.116 63.716C887.649 63.716 875.066 51.5379 875.066 36.5692C875.066 21.6004 887.649 9.42236 903.116 9.42236C918.582 9.42236 931.165 21.6004 931.165 36.5692C931.165 51.5379 918.582 63.716 903.116 63.716ZM903.116 12.8049C889.578 12.8049 878.561 23.4623 878.561 36.5692C878.561 49.676 889.573 60.3334 903.116 60.3334C916.658 60.3334 927.67 49.676 927.67 36.5692C927.67 23.4623 916.658 12.8049 903.116 12.8049Z" fill="#4E002E"/>
</g>
<g clip-path="url(#clip1_219_53)">
<path d="M1020.45 73.1374C999.617 73.1374 982.669 56.7301 982.669 36.5687C982.669 16.4073 999.617 0 1020.45 0C1041.29 0 1058.24 16.403 1058.24 36.5687C1058.24 56.7344 1041.28 73.1374 1020.45 73.1374ZM1020.45 3.67631C1001.71 3.67631 986.467 18.4334 986.467 36.5687C986.467 54.704 1001.72 69.4611 1020.45 69.4611C1039.19 69.4611 1054.44 54.704 1054.44 36.5687C1054.44 18.4334 1039.19 3.67631 1020.45 3.67631Z" fill="#4E002E"/>
<path d="M1020.45 63.716C1004.99 63.716 992.404 51.5379 992.404 36.5692C992.404 21.6004 1004.99 9.42236 1020.45 9.42236C1035.92 9.42236 1048.5 21.6004 1048.5 36.5692C1048.5 51.5379 1035.92 63.716 1020.45 63.716ZM1020.45 12.8049C1006.92 12.8049 995.899 23.4623 995.899 36.5692C995.899 49.676 1006.91 60.3334 1020.45 60.3334C1034 60.3334 1045.01 49.676 1045.01 36.5692C1045.01 23.4623 1034 12.8049 1020.45 12.8049Z" fill="#4E002E"/>
<path d="M944.884 73.1374C924.048 73.1374 907.1 56.7301 907.1 36.5687C907.1 16.4073 924.048 0 944.884 0C965.721 0 982.669 16.403 982.669 36.5687C982.669 56.7344 965.716 73.1374 944.884 73.1374ZM944.884 3.67631C926.142 3.67631 910.899 18.4291 910.899 36.5687C910.899 54.7083 926.146 69.4611 944.884 69.4611C963.623 69.4611 978.87 54.704 978.87 36.5687C978.87 18.4334 963.623 3.67631 944.884 3.67631Z" fill="#4E002E"/>
<path d="M944.885 63.716C929.418 63.716 916.835 51.5379 916.835 36.5692C916.835 21.6004 929.418 9.42236 944.885 9.42236C960.351 9.42236 972.934 21.6004 972.934 36.5692C972.934 51.5379 960.351 63.716 944.885 63.716ZM944.885 12.8049C931.347 12.8049 920.33 23.4623 920.33 36.5692C920.33 49.676 931.342 60.3334 944.885 60.3334C958.427 60.3334 969.439 49.676 969.439 36.5692C969.439 23.4623 958.427 12.8049 944.885 12.8049Z" fill="#4E002E"/>
<path d="M1096.02 73.1374C1075.19 73.1374 1058.24 56.7301 1058.24 36.5687C1058.24 16.4073 1075.19 0 1096.02 0C1116.86 0 1133.81 16.403 1133.81 36.5687C1133.81 56.7344 1116.85 73.1374 1096.02 73.1374ZM1096.02 3.67631C1077.28 3.67631 1062.04 18.4334 1062.04 36.5687C1062.04 54.704 1077.28 69.4611 1096.02 69.4611C1114.76 69.4611 1130.01 54.704 1130.01 36.5687C1130.01 18.4334 1114.76 3.67631 1096.02 3.67631Z" fill="#4E002E"/>
<path d="M1096.02 63.716C1080.56 63.716 1067.97 51.5379 1067.97 36.5692C1067.97 21.6004 1080.56 9.42236 1096.02 9.42236C1111.49 9.42236 1124.07 21.6004 1124.07 36.5692C1124.07 51.5379 1111.49 63.716 1096.02 63.716ZM1096.02 12.8049C1082.48 12.8049 1071.47 23.4623 1071.47 36.5692C1071.47 49.676 1082.48 60.3334 1096.02 60.3334C1109.56 60.3334 1120.58 49.676 1120.58 36.5692C1120.58 23.4623 1109.56 12.8049 1096.02 12.8049Z" fill="#4E002E"/>
<path d="M1054.52 73.1374C1033.69 73.1374 1016.74 56.7301 1016.74 36.5687C1016.74 16.4073 1033.69 0 1054.52 0C1075.36 0 1092.31 16.403 1092.31 36.5687C1092.31 56.7344 1075.36 73.1374 1054.52 73.1374ZM1054.52 3.67631C1035.78 3.67631 1020.54 18.4334 1020.54 36.5687C1020.54 54.704 1035.79 69.4611 1054.52 69.4611C1073.26 69.4611 1088.51 54.704 1088.51 36.5687C1088.51 18.4334 1073.27 3.67631 1054.52 3.67631Z" fill="#4E002E"/>
<path d="M1054.52 63.716C1039.06 63.716 1026.47 51.5379 1026.47 36.5692C1026.47 21.6004 1039.06 9.42236 1054.52 9.42236C1069.99 9.42236 1082.57 21.6004 1082.57 36.5692C1082.57 51.5379 1069.99 63.716 1054.52 63.716ZM1054.52 12.8049C1040.99 12.8049 1029.97 23.4623 1029.97 36.5692C1029.97 49.676 1040.98 60.3334 1054.52 60.3334C1068.07 60.3334 1079.08 49.676 1079.08 36.5692C1079.08 23.4623 1068.07 12.8049 1054.52 12.8049Z" fill="#4E002E"/>
<path d="M978.955 73.1374C958.119 73.1374 941.171 56.7301 941.171 36.5687C941.171 16.4073 958.119 0 978.955 0C999.791 0 1016.74 16.403 1016.74 36.5687C1016.74 56.7344 999.787 73.1374 978.955 73.1374ZM978.955 3.67631C960.213 3.67631 944.969 18.4334 944.969 36.5687C944.969 54.704 960.217 69.4611 978.955 69.4611C997.693 69.4611 1012.94 54.704 1012.94 36.5687C1012.94 18.4334 997.698 3.67631 978.955 3.67631Z" fill="#4E002E"/>
<path d="M978.955 63.716C963.489 63.716 950.906 51.5379 950.906 36.5692C950.906 21.6004 963.489 9.42236 978.955 9.42236C994.422 9.42236 1007 21.6004 1007 36.5692C1007 51.5379 994.422 63.716 978.955 63.716ZM978.955 12.8049C965.417 12.8049 954.401 23.4623 954.401 36.5692C954.401 49.676 965.413 60.3334 978.955 60.3334C992.498 60.3334 1003.51 49.676 1003.51 36.5692C1003.51 23.4623 992.498 12.8049 978.955 12.8049Z" fill="#4E002E"/>
<path d="M1130.09 73.1374C1109.26 73.1374 1092.31 56.7301 1092.31 36.5687C1092.31 16.4073 1109.26 0 1130.09 0C1150.92 0 1167.88 16.403 1167.88 36.5687C1167.88 56.7344 1150.92 73.1374 1130.09 73.1374ZM1130.09 3.67631C1111.35 3.67631 1096.11 18.4334 1096.11 36.5687C1096.11 54.704 1111.35 69.4611 1130.09 69.4611C1148.83 69.4611 1164.08 54.704 1164.08 36.5687C1164.08 18.4334 1148.83 3.67631 1130.09 3.67631Z" fill="#4E002E"/>
<path d="M1130.09 63.716C1114.63 63.716 1102.04 51.5379 1102.04 36.5692C1102.04 21.6004 1114.63 9.42236 1130.09 9.42236C1145.56 9.42236 1158.14 21.6004 1158.14 36.5692C1158.14 51.5379 1145.56 63.716 1130.09 63.716ZM1130.09 12.8049C1116.56 12.8049 1105.54 23.4623 1105.54 36.5692C1105.54 49.676 1116.55 60.3334 1130.09 60.3334C1143.64 60.3334 1154.65 49.676 1154.65 36.5692C1154.65 23.4623 1143.64 12.8049 1130.09 12.8049Z" fill="#4E002E"/>
<path d="M1247.16 73.1374C1226.32 73.1374 1209.38 56.7301 1209.38 36.5687C1209.38 16.4073 1226.33 0 1247.16 0C1267.99 0 1284.94 16.403 1284.94 36.5687C1284.94 56.7344 1267.99 73.1374 1247.16 73.1374ZM1247.16 3.67631C1228.42 3.67631 1213.17 18.4334 1213.17 36.5687C1213.17 54.704 1228.42 69.4611 1247.16 69.4611C1265.9 69.4611 1281.15 54.704 1281.15 36.5687C1281.15 18.4334 1265.9 3.67631 1247.16 3.67631Z" fill="#4E002E"/>
<path d="M1247.16 63.716C1231.69 63.716 1219.11 51.5379 1219.11 36.5692C1219.11 21.6004 1231.69 9.42236 1247.16 9.42236C1262.63 9.42236 1275.21 21.6004 1275.21 36.5692C1275.21 51.5379 1262.63 63.716 1247.16 63.716ZM1247.16 12.8049C1233.62 12.8049 1222.61 23.4623 1222.61 36.5692C1222.61 49.676 1233.62 60.3334 1247.16 60.3334C1260.7 60.3334 1271.71 49.676 1271.71 36.5692C1271.71 23.4623 1260.7 12.8049 1247.16 12.8049Z" fill="#4E002E"/>
<path d="M1171.59 73.1374C1150.75 73.1374 1133.81 56.7301 1133.81 36.5687C1133.81 16.4073 1150.76 0 1171.59 0C1192.42 0 1209.38 16.403 1209.38 36.5687C1209.38 56.7344 1192.42 73.1374 1171.59 73.1374ZM1171.59 3.67631C1152.85 3.67631 1137.61 18.4334 1137.61 36.5687C1137.61 54.704 1152.85 69.4611 1171.59 69.4611C1190.33 69.4611 1205.58 54.704 1205.58 36.5687C1205.58 18.4334 1190.33 3.67631 1171.59 3.67631Z" fill="#4E002E"/>
<path d="M1171.59 63.716C1156.12 63.716 1143.54 51.5379 1143.54 36.5692C1143.54 21.6004 1156.12 9.42236 1171.59 9.42236C1187.06 9.42236 1199.64 21.6004 1199.64 36.5692C1199.64 51.5379 1187.06 63.716 1171.59 63.716ZM1171.59 12.8049C1158.05 12.8049 1147.04 23.4623 1147.04 36.5692C1147.04 49.676 1158.05 60.3334 1171.59 60.3334C1185.13 60.3334 1196.15 49.676 1196.15 36.5692C1196.15 23.4623 1185.13 12.8049 1171.59 12.8049Z" fill="#4E002E"/>
<path d="M1322.73 73.1374C1301.89 73.1374 1284.94 56.7301 1284.94 36.5687C1284.94 16.4073 1301.9 0 1322.73 0C1343.56 0 1360.51 16.403 1360.51 36.5687C1360.51 56.7344 1343.56 73.1374 1322.73 73.1374ZM1322.73 3.67631C1303.99 3.67631 1288.74 18.4334 1288.74 36.5687C1288.74 54.704 1303.99 69.4611 1322.73 69.4611C1341.47 69.4611 1356.71 54.704 1356.71 36.5687C1356.71 18.4334 1341.47 3.67631 1322.73 3.67631Z" fill="#4E002E"/>
<path d="M1322.73 63.716C1307.26 63.716 1294.68 51.5379 1294.68 36.5692C1294.68 21.6004 1307.26 9.42236 1322.73 9.42236C1338.19 9.42236 1350.78 21.6004 1350.78 36.5692C1350.78 51.5379 1338.19 63.716 1322.73 63.716ZM1322.73 12.8049C1309.19 12.8049 1298.17 23.4623 1298.17 36.5692C1298.17 49.676 1309.19 60.3334 1322.73 60.3334C1336.27 60.3334 1347.28 49.676 1347.28 36.5692C1347.28 23.4623 1336.27 12.8049 1322.73 12.8049Z" fill="#4E002E"/>
<path d="M1281.23 73.1374C1260.39 73.1374 1243.45 56.7301 1243.45 36.5687C1243.45 16.4073 1260.4 0 1281.23 0C1302.06 0 1319.01 16.403 1319.01 36.5687C1319.01 56.7344 1302.06 73.1374 1281.23 73.1374ZM1281.23 3.67631C1262.49 3.67631 1247.24 18.4334 1247.24 36.5687C1247.24 54.704 1262.49 69.4611 1281.23 69.4611C1299.97 69.4611 1315.22 54.704 1315.22 36.5687C1315.22 18.4334 1299.97 3.67631 1281.23 3.67631Z" fill="#4E002E"/>
<path d="M1281.23 63.716C1265.77 63.716 1253.19 51.5379 1253.19 36.5692C1253.19 21.6004 1265.77 9.42236 1281.23 9.42236C1296.7 9.42236 1309.28 21.6004 1309.28 36.5692C1309.28 51.5379 1296.7 63.716 1281.23 63.716ZM1281.23 12.8049C1267.7 12.8049 1256.68 23.4623 1256.68 36.5692C1256.68 49.676 1267.69 60.3334 1281.23 60.3334C1294.78 60.3334 1305.79 49.676 1305.79 36.5692C1305.79 23.4623 1294.78 12.8049 1281.23 12.8049Z" fill="#4E002E"/>
<path d="M1205.66 73.1374C1184.83 73.1374 1167.88 56.7301 1167.88 36.5687C1167.88 16.4073 1184.83 0 1205.66 0C1226.49 0 1243.45 16.403 1243.45 36.5687C1243.45 56.7344 1226.49 73.1374 1205.66 73.1374ZM1205.66 3.67631C1186.92 3.67631 1171.68 18.4334 1171.68 36.5687C1171.68 54.704 1186.92 69.4611 1205.66 69.4611C1224.4 69.4611 1239.65 54.704 1239.65 36.5687C1239.65 18.4334 1224.4 3.67631 1205.66 3.67631Z" fill="#4E002E"/>
<path d="M1205.67 63.716C1190.2 63.716 1177.62 51.5379 1177.62 36.5692C1177.62 21.6004 1190.2 9.42236 1205.67 9.42236C1221.13 9.42236 1233.72 21.6004 1233.72 36.5692C1233.72 51.5379 1221.13 63.716 1205.67 63.716ZM1205.67 12.8049C1192.13 12.8049 1181.11 23.4623 1181.11 36.5692C1181.11 49.676 1192.12 60.3334 1205.67 60.3334C1219.21 60.3334 1230.22 49.676 1230.22 36.5692C1230.22 23.4623 1219.21 12.8049 1205.67 12.8049Z" fill="#4E002E"/>
<path d="M1356.8 73.1374C1335.96 73.1374 1319.01 56.7301 1319.01 36.5687C1319.01 16.4073 1335.97 0 1356.8 0C1377.63 0 1394.58 16.403 1394.58 36.5687C1394.58 56.7344 1377.63 73.1374 1356.8 73.1374ZM1356.8 3.67631C1338.06 3.67631 1322.81 18.4334 1322.81 36.5687C1322.81 54.704 1338.06 69.4611 1356.8 69.4611C1375.54 69.4611 1390.78 54.704 1390.78 36.5687C1390.78 18.4334 1375.54 3.67631 1356.8 3.67631Z" fill="#4E002E"/>
<path d="M1356.8 63.716C1341.34 63.716 1328.75 51.5379 1328.75 36.5692C1328.75 21.6004 1341.34 9.42236 1356.8 9.42236C1372.27 9.42236 1384.85 21.6004 1384.85 36.5692C1384.85 51.5379 1372.27 63.716 1356.8 63.716ZM1356.8 12.8049C1343.27 12.8049 1332.25 23.4623 1332.25 36.5692C1332.25 49.676 1343.26 60.3334 1356.8 60.3334C1370.35 60.3334 1381.36 49.676 1381.36 36.5692C1381.36 23.4623 1370.35 12.8049 1356.8 12.8049Z" fill="#4E002E"/>
<path d="M1473.87 73.1374C1453.03 73.1374 1436.08 56.7301 1436.08 36.5687C1436.08 16.4073 1453.03 0 1473.87 0C1494.7 0 1511.65 16.403 1511.65 36.5687C1511.65 56.7344 1494.7 73.1374 1473.87 73.1374ZM1473.87 3.67631C1455.12 3.67631 1439.88 18.4334 1439.88 36.5687C1439.88 54.704 1455.13 69.4611 1473.87 69.4611C1492.6 69.4611 1507.85 54.704 1507.85 36.5687C1507.85 18.4334 1492.6 3.67631 1473.87 3.67631Z" fill="#4E002E"/>
<path d="M1473.87 63.716C1458.4 63.716 1445.82 51.5379 1445.82 36.5692C1445.82 21.6004 1458.4 9.42236 1473.87 9.42236C1489.34 9.42236 1501.92 21.6004 1501.92 36.5692C1501.92 51.5379 1489.34 63.716 1473.87 63.716ZM1473.87 12.8049C1460.33 12.8049 1449.32 23.4623 1449.32 36.5692C1449.32 49.676 1460.33 60.3334 1473.87 60.3334C1487.41 60.3334 1498.42 49.676 1498.42 36.5692C1498.42 23.4623 1487.41 12.8049 1473.87 12.8049Z" fill="#4E002E"/>
<path d="M1398.3 73.1374C1377.46 73.1374 1360.51 56.7301 1360.51 36.5687C1360.51 16.4073 1377.46 0 1398.3 0C1419.13 0 1436.08 16.403 1436.08 36.5687C1436.08 56.7344 1419.13 73.1374 1398.3 73.1374ZM1398.3 3.67631C1379.55 3.67631 1364.31 18.4334 1364.31 36.5687C1364.31 54.704 1379.56 69.4611 1398.3 69.4611C1417.03 69.4611 1432.28 54.704 1432.28 36.5687C1432.28 18.4334 1417.03 3.67631 1398.3 3.67631Z" fill="#4E002E"/>
<path d="M1398.3 63.716C1382.83 63.716 1370.25 51.5379 1370.25 36.5692C1370.25 21.6004 1382.83 9.42236 1398.3 9.42236C1413.77 9.42236 1426.35 21.6004 1426.35 36.5692C1426.35 51.5379 1413.77 63.716 1398.3 63.716ZM1398.3 12.8049C1384.76 12.8049 1373.75 23.4623 1373.75 36.5692C1373.75 49.676 1384.76 60.3334 1398.3 60.3334C1411.84 60.3334 1422.86 49.676 1422.86 36.5692C1422.86 23.4623 1411.84 12.8049 1398.3 12.8049Z" fill="#4E002E"/>
<path d="M1549.44 73.1374C1528.6 73.1374 1511.65 56.7301 1511.65 36.5687C1511.65 16.4073 1528.6 0 1549.44 0C1570.27 0 1587.22 16.403 1587.22 36.5687C1587.22 56.7344 1570.27 73.1374 1549.44 73.1374ZM1549.44 3.67631C1530.7 3.67631 1515.45 18.4334 1515.45 36.5687C1515.45 54.704 1530.7 69.4611 1549.44 69.4611C1568.18 69.4611 1583.42 54.704 1583.42 36.5687C1583.42 18.4334 1568.18 3.67631 1549.44 3.67631Z" fill="#4E002E"/>
<path d="M1549.44 63.716C1533.97 63.716 1521.39 51.5379 1521.39 36.5692C1521.39 21.6004 1533.97 9.42236 1549.44 9.42236C1564.91 9.42236 1577.49 21.6004 1577.49 36.5692C1577.49 51.5379 1564.91 63.716 1549.44 63.716ZM1549.44 12.8049C1535.9 12.8049 1524.88 23.4623 1524.88 36.5692C1524.88 49.676 1535.9 60.3334 1549.44 60.3334C1562.98 60.3334 1573.99 49.676 1573.99 36.5692C1573.99 23.4623 1562.98 12.8049 1549.44 12.8049Z" fill="#4E002E"/>
<path d="M1507.94 73.1374C1487.1 73.1374 1470.16 56.7301 1470.16 36.5687C1470.16 16.4073 1487.1 0 1507.94 0C1528.78 0 1545.72 16.403 1545.72 36.5687C1545.72 56.7344 1528.77 73.1374 1507.94 73.1374ZM1507.94 3.67631C1489.2 3.67631 1473.95 18.4334 1473.95 36.5687C1473.95 54.704 1489.2 69.4611 1507.94 69.4611C1526.68 69.4611 1541.93 54.704 1541.93 36.5687C1541.93 18.4334 1526.68 3.67631 1507.94 3.67631Z" fill="#4E002E"/>
<path d="M1507.94 63.716C1492.47 63.716 1479.89 51.5379 1479.89 36.5692C1479.89 21.6004 1492.47 9.42236 1507.94 9.42236C1523.41 9.42236 1535.99 21.6004 1535.99 36.5692C1535.99 51.5379 1523.41 63.716 1507.94 63.716ZM1507.94 12.8049C1494.4 12.8049 1483.39 23.4623 1483.39 36.5692C1483.39 49.676 1494.4 60.3334 1507.94 60.3334C1521.48 60.3334 1532.5 49.676 1532.5 36.5692C1532.5 23.4623 1521.48 12.8049 1507.94 12.8049Z" fill="#4E002E"/>
<path d="M1432.37 73.1374C1411.54 73.1374 1394.59 56.7301 1394.59 36.5687C1394.59 16.4073 1411.54 0 1432.37 0C1453.21 0 1470.16 16.403 1470.16 36.5687C1470.16 56.7344 1453.2 73.1374 1432.37 73.1374ZM1432.37 3.67631C1413.63 3.67631 1398.39 18.4334 1398.39 36.5687C1398.39 54.704 1413.63 69.4611 1432.37 69.4611C1451.11 69.4611 1466.36 54.704 1466.36 36.5687C1466.36 18.4334 1451.11 3.67631 1432.37 3.67631Z" fill="#4E002E"/>
<path d="M1432.37 63.716C1416.91 63.716 1404.32 51.5379 1404.32 36.5692C1404.32 21.6004 1416.91 9.42236 1432.37 9.42236C1447.84 9.42236 1460.42 21.6004 1460.42 36.5692C1460.42 51.5379 1447.84 63.716 1432.37 63.716ZM1432.37 12.8049C1418.83 12.8049 1407.82 23.4623 1407.82 36.5692C1407.82 49.676 1418.83 60.3334 1432.37 60.3334C1445.92 60.3334 1456.93 49.676 1456.93 36.5692C1456.93 23.4623 1445.92 12.8049 1432.37 12.8049Z" fill="#4E002E"/>
<path d="M1583.51 73.1374C1562.67 73.1374 1545.72 56.7301 1545.72 36.5687C1545.72 16.4073 1562.67 0 1583.51 0C1604.35 0 1621.29 16.403 1621.29 36.5687C1621.29 56.7344 1604.34 73.1374 1583.51 73.1374ZM1583.51 3.67631C1564.77 3.67631 1549.52 18.4334 1549.52 36.5687C1549.52 54.704 1564.77 69.4611 1583.51 69.4611C1602.25 69.4611 1617.49 54.704 1617.49 36.5687C1617.49 18.4334 1602.25 3.67631 1583.51 3.67631Z" fill="#4E002E"/>
<path d="M1583.51 63.716C1568.04 63.716 1555.46 51.5379 1555.46 36.5692C1555.46 21.6004 1568.04 9.42236 1583.51 9.42236C1598.98 9.42236 1611.56 21.6004 1611.56 36.5692C1611.56 51.5379 1598.98 63.716 1583.51 63.716ZM1583.51 12.8049C1569.97 12.8049 1558.95 23.4623 1558.95 36.5692C1558.95 49.676 1569.97 60.3334 1583.51 60.3334C1597.05 60.3334 1608.06 49.676 1608.06 36.5692C1608.06 23.4623 1597.05 12.8049 1583.51 12.8049Z" fill="#4E002E"/>
<path d="M1700.58 73.1374C1679.74 73.1374 1662.79 56.7301 1662.79 36.5687C1662.79 16.4073 1679.74 0 1700.58 0C1721.41 0 1738.36 16.403 1738.36 36.5687C1738.36 56.7344 1721.41 73.1374 1700.58 73.1374ZM1700.58 3.67631C1681.83 3.67631 1666.59 18.4334 1666.59 36.5687C1666.59 54.704 1681.84 69.4611 1700.58 69.4611C1719.31 69.4611 1734.56 54.704 1734.56 36.5687C1734.56 18.4334 1719.31 3.67631 1700.58 3.67631Z" fill="#4E002E"/>
<path d="M1700.58 63.716C1685.11 63.716 1672.53 51.5379 1672.53 36.5692C1672.53 21.6004 1685.11 9.42236 1700.58 9.42236C1716.04 9.42236 1728.63 21.6004 1728.63 36.5692C1728.63 51.5379 1716.04 63.716 1700.58 63.716ZM1700.58 12.8049C1687.04 12.8049 1676.02 23.4623 1676.02 36.5692C1676.02 49.676 1687.03 60.3334 1700.58 60.3334C1714.12 60.3334 1725.13 49.676 1725.13 36.5692C1725.13 23.4623 1714.12 12.8049 1700.58 12.8049Z" fill="#4E002E"/>
<path d="M1625.01 73.1374C1604.17 73.1374 1587.22 56.7301 1587.22 36.5687C1587.22 16.4073 1604.17 0 1625.01 0C1645.84 0 1662.79 16.403 1662.79 36.5687C1662.79 56.7344 1645.84 73.1374 1625.01 73.1374ZM1625.01 3.67631C1606.26 3.67631 1591.02 18.4334 1591.02 36.5687C1591.02 54.704 1606.27 69.4611 1625.01 69.4611C1643.75 69.4611 1658.99 54.704 1658.99 36.5687C1658.99 18.4334 1643.75 3.67631 1625.01 3.67631Z" fill="#4E002E"/>
<path d="M1625.01 63.716C1609.54 63.716 1596.96 51.5379 1596.96 36.5692C1596.96 21.6004 1609.54 9.42236 1625.01 9.42236C1640.47 9.42236 1653.06 21.6004 1653.06 36.5692C1653.06 51.5379 1640.47 63.716 1625.01 63.716ZM1625.01 12.8049C1611.47 12.8049 1600.45 23.4623 1600.45 36.5692C1600.45 49.676 1611.47 60.3334 1625.01 60.3334C1638.55 60.3334 1649.56 49.676 1649.56 36.5692C1649.56 23.4623 1638.55 12.8049 1625.01 12.8049Z" fill="#4E002E"/>
<path d="M1776.15 73.1374C1755.31 73.1374 1738.36 56.7301 1738.36 36.5687C1738.36 16.4073 1755.31 0 1776.15 0C1796.98 0 1813.93 16.403 1813.93 36.5687C1813.93 56.7344 1796.98 73.1374 1776.15 73.1374ZM1776.15 3.67631C1757.4 3.67631 1742.16 18.4334 1742.16 36.5687C1742.16 54.704 1757.41 69.4611 1776.15 69.4611C1794.88 69.4611 1810.13 54.704 1810.13 36.5687C1810.13 18.4334 1794.88 3.67631 1776.15 3.67631Z" fill="#4E002E"/>
<path d="M1776.15 63.716C1760.68 63.716 1748.1 51.5379 1748.1 36.5692C1748.1 21.6004 1760.68 9.42236 1776.15 9.42236C1791.61 9.42236 1804.19 21.6004 1804.19 36.5692C1804.19 51.5379 1791.61 63.716 1776.15 63.716ZM1776.15 12.8049C1762.61 12.8049 1751.59 23.4623 1751.59 36.5692C1751.59 49.676 1762.6 60.3334 1776.15 60.3334C1789.69 60.3334 1800.7 49.676 1800.7 36.5692C1800.7 23.4623 1789.69 12.8049 1776.15 12.8049Z" fill="#4E002E"/>
<path d="M1734.65 73.1374C1713.81 73.1374 1696.86 56.7301 1696.86 36.5687C1696.86 16.4073 1713.81 0 1734.65 0C1755.48 0 1772.43 16.403 1772.43 36.5687C1772.43 56.7344 1755.48 73.1374 1734.65 73.1374ZM1734.65 3.67631C1715.9 3.67631 1700.66 18.4334 1700.66 36.5687C1700.66 54.704 1715.91 69.4611 1734.65 69.4611C1753.39 69.4611 1768.63 54.704 1768.63 36.5687C1768.63 18.4334 1753.39 3.67631 1734.65 3.67631Z" fill="#4E002E"/>
<path d="M1734.65 63.716C1719.18 63.716 1706.6 51.5379 1706.6 36.5692C1706.6 21.6004 1719.18 9.42236 1734.65 9.42236C1750.11 9.42236 1762.7 21.6004 1762.7 36.5692C1762.7 51.5379 1750.11 63.716 1734.65 63.716ZM1734.65 12.8049C1721.11 12.8049 1710.09 23.4623 1710.09 36.5692C1710.09 49.676 1721.1 60.3334 1734.65 60.3334C1748.19 60.3334 1759.2 49.676 1759.2 36.5692C1759.2 23.4623 1748.19 12.8049 1734.65 12.8049Z" fill="#4E002E"/>
<path d="M1659.08 73.1374C1638.24 73.1374 1621.29 56.7301 1621.29 36.5687C1621.29 16.4073 1638.24 0 1659.08 0C1679.91 0 1696.86 16.403 1696.86 36.5687C1696.86 56.7344 1679.91 73.1374 1659.08 73.1374ZM1659.08 3.67631C1640.34 3.67631 1625.09 18.4334 1625.09 36.5687C1625.09 54.704 1640.34 69.4611 1659.08 69.4611C1677.82 69.4611 1693.06 54.704 1693.06 36.5687C1693.06 18.4334 1677.82 3.67631 1659.08 3.67631Z" fill="#4E002E"/>
<path d="M1659.08 63.716C1643.61 63.716 1631.03 51.5379 1631.03 36.5692C1631.03 21.6004 1643.61 9.42236 1659.08 9.42236C1674.54 9.42236 1687.13 21.6004 1687.13 36.5692C1687.13 51.5379 1674.54 63.716 1659.08 63.716ZM1659.08 12.8049C1645.54 12.8049 1634.52 23.4623 1634.52 36.5692C1634.52 49.676 1645.54 60.3334 1659.08 60.3334C1672.62 60.3334 1683.63 49.676 1683.63 36.5692C1683.63 23.4623 1672.62 12.8049 1659.08 12.8049Z" fill="#4E002E"/>
<path d="M1810.22 73.1374C1789.38 73.1374 1772.43 56.7301 1772.43 36.5687C1772.43 16.4073 1789.38 0 1810.22 0C1831.05 0 1848 16.403 1848 36.5687C1848 56.7344 1831.05 73.1374 1810.22 73.1374ZM1810.22 3.67631C1791.47 3.67631 1776.23 18.4334 1776.23 36.5687C1776.23 54.704 1791.48 69.4611 1810.22 69.4611C1828.95 69.4611 1844.2 54.704 1844.2 36.5687C1844.2 18.4334 1828.95 3.67631 1810.22 3.67631Z" fill="#4E002E"/>
<path d="M1810.22 63.716C1794.75 63.716 1782.17 51.5379 1782.17 36.5692C1782.17 21.6004 1794.75 9.42236 1810.22 9.42236C1825.68 9.42236 1838.26 21.6004 1838.26 36.5692C1838.26 51.5379 1825.68 63.716 1810.22 63.716ZM1810.22 12.8049C1796.68 12.8049 1785.66 23.4623 1785.66 36.5692C1785.66 49.676 1796.67 60.3334 1810.22 60.3334C1823.76 60.3334 1834.77 49.676 1834.77 36.5692C1834.77 23.4623 1823.76 12.8049 1810.22 12.8049Z" fill="#4E002E"/>
</g>
<defs>
<clipPath id="clip0_219_53">
<rect width="940.9" height="73.1374" fill="white"/>
</clipPath>
<clipPath id="clip1_219_53">
<rect width="940.9" height="73.1374" fill="white" transform="translate(907.1)"/>
</clipPath>
</defs>
</svg>
