<svg width="30" height="20" viewBox="0 0 30 20" fill="none" xmlns="http://www.w3.org/2000/svg">
<path d="M10.7497 12.4793C7.43467 12.4793 0.833008 14.1368 0.833008 17.4377V19.9168H20.6663V17.4377C20.6663 14.1368 14.0647 12.4793 10.7497 12.4793ZM4.14801 17.0835C5.33801 16.2618 8.21384 15.3127 10.7497 15.3127C13.2855 15.3127 16.1613 16.2618 17.3513 17.0835H4.14801ZM10.7497 10.0002C13.4838 10.0002 15.708 7.776 15.708 5.04183C15.708 2.30766 13.4838 0.0834961 10.7497 0.0834961C8.01551 0.0834961 5.79134 2.30766 5.79134 5.04183C5.79134 7.776 8.01551 10.0002 10.7497 10.0002ZM10.7497 2.91683C11.9255 2.91683 12.8747 3.866 12.8747 5.04183C12.8747 6.21766 11.9255 7.16683 10.7497 7.16683C9.57384 7.16683 8.62467 6.21766 8.62467 5.04183C8.62467 3.866 9.57384 2.91683 10.7497 2.91683ZM20.723 12.5643C22.3663 13.7543 23.4997 15.341 23.4997 17.4377V19.9168H29.1663V17.4377C29.1663 14.576 24.208 12.9468 20.723 12.5643ZM19.2497 10.0002C21.9838 10.0002 24.208 7.776 24.208 5.04183C24.208 2.30766 21.9838 0.0834961 19.2497 0.0834961C18.4847 0.0834961 17.7763 0.267663 17.1247 0.579329C18.0172 1.84016 18.5413 3.38433 18.5413 5.04183C18.5413 6.69933 18.0172 8.24349 17.1247 9.50433C17.7763 9.816 18.4847 10.0002 19.2497 10.0002Z" fill="#4E002E"/>
</svg>
