<svg width="22" height="22" viewBox="0 0 22 22" fill="none" xmlns="http://www.w3.org/2000/svg">
<path d="M15.7299 13.9169H14.7753L14.437 13.5906C15.887 11.8989 16.6362 9.59103 16.2253 7.13811C15.6574 3.77894 12.8541 1.09644 9.47076 0.685608C4.35951 0.0572747 0.0578393 4.35894 0.686173 9.47019C1.09701 12.8535 3.77951 15.6569 7.13867 16.2248C9.59159 16.6356 11.8995 15.8864 13.5912 14.4364L13.9174 14.7748V15.7294L19.0528 20.8648C19.5483 21.3602 20.3578 21.3602 20.8533 20.8648C21.3487 20.3694 21.3487 19.5598 20.8533 19.0644L15.7299 13.9169ZM8.47992 13.9169C5.47117 13.9169 3.04242 11.4881 3.04242 8.47936C3.04242 5.47061 5.47117 3.04186 8.47992 3.04186C11.4887 3.04186 13.9174 5.47061 13.9174 8.47936C13.9174 11.4881 11.4887 13.9169 8.47992 13.9169Z" fill="#4E002E"/>
</svg>
