<svg width="1854" height="1033" viewBox="0 0 1854 1033" fill="none" xmlns="http://www.w3.org/2000/svg">
<g clip-path="url(#clip0_26_28)">
<path d="M927.002 1C927.002 54.4069 877.407 104.002 824 104.002C877.407 104.002 927.002 153.594 927.002 207.001C927.002 153.594 976.594 104.002 1030 104.002C976.594 104.002 927.002 54.4069 927.002 1ZM948.001 78.5275C946.909 79.3679 945.863 80.2882 944.868 81.2836L927.043 99.1079H926.998L909.174 81.2836C908.175 80.2852 907.12 79.3609 906.019 78.5107C914.441 69.6528 921.577 59.5813 927.002 48.7149C932.431 59.5883 939.572 69.6657 948.001 78.5285V78.5275ZM871.714 104.002C882.4 98.6665 892.319 91.678 901.069 83.4363C902.198 84.2411 903.276 85.1546 904.291 86.1638L922.07 103.988H922.116L922.07 104.034L904.291 121.858C903.284 122.865 902.209 123.769 901.087 124.576L901.199 124.687C892.416 116.393 882.453 109.362 871.714 104V104.002ZM905.791 129.253L906.037 129.498C907.131 128.657 908.177 127.735 909.173 126.74L926.952 108.916L926.997 108.87L927.042 108.916L944.867 126.74C945.851 127.731 946.892 128.64 947.979 129.481L948.25 129.212C939.711 138.137 932.483 148.307 927 159.29C921.526 148.325 914.311 138.169 905.789 129.254L905.791 129.253ZM952.639 124.844L952.931 124.554C951.809 123.753 950.744 122.848 949.749 121.859L931.924 104.035L931.878 103.989L931.924 103.944L949.749 86.1648C950.742 85.1595 951.811 84.251 952.936 83.4403C961.685 91.68 971.603 98.6675 982.289 104.003C971.482 109.399 961.461 116.484 952.639 124.846V124.844Z" fill="#FF8C6B" fill-opacity="0.1"/>
</g>
<g clip-path="url(#clip1_26_28)">
<path d="M927.002 414C927.002 467.407 877.407 517.002 824 517.002C877.407 517.002 927.002 566.594 927.002 620.001C927.002 566.594 976.594 517.002 1030 517.002C976.594 517.002 927.002 467.407 927.002 414ZM948.001 491.527C946.909 492.368 945.863 493.288 944.868 494.284L927.043 512.108H926.998L909.174 494.284C908.175 493.285 907.12 492.361 906.019 491.511C914.441 482.653 921.577 472.581 927.002 461.715C932.431 472.588 939.572 482.666 948.001 491.528V491.527ZM871.714 517.002C882.4 511.667 892.319 504.678 901.069 496.436C902.198 497.241 903.276 498.155 904.291 499.164L922.07 516.988H922.116L922.07 517.034L904.291 534.858C903.284 535.865 902.209 536.769 901.087 537.576L901.199 537.687C892.416 529.393 882.453 522.362 871.714 517V517.002ZM905.791 542.253L906.037 542.498C907.131 541.657 908.177 540.735 909.173 539.74L926.952 521.916L926.997 521.87L927.042 521.916L944.867 539.74C945.851 540.731 946.892 541.64 947.979 542.481L948.25 542.212C939.711 551.137 932.483 561.307 927 572.29C921.526 561.325 914.311 551.169 905.789 542.254L905.791 542.253ZM952.639 537.844L952.931 537.554C951.809 536.753 950.744 535.848 949.749 534.859L931.924 517.035L931.878 516.989L931.924 516.944L949.749 499.165C950.742 498.16 951.811 497.251 952.936 496.44C961.685 504.68 971.603 511.668 982.289 517.003C971.482 522.399 961.461 529.484 952.639 537.846V537.844Z" fill="#FF8C6B" fill-opacity="0.1"/>
</g>
<g clip-path="url(#clip2_26_28)">
<path d="M927.002 208C927.002 261.407 877.407 311.002 824 311.002C877.407 311.002 927.002 360.594 927.002 414.001C927.002 360.594 976.594 311.002 1030 311.002C976.594 311.002 927.002 261.407 927.002 208ZM948.001 285.527C946.909 286.368 945.863 287.288 944.868 288.284L927.043 306.108H926.998L909.174 288.284C908.175 287.285 907.12 286.361 906.019 285.511C914.441 276.653 921.577 266.581 927.002 255.715C932.431 266.588 939.572 276.666 948.001 285.528V285.527ZM871.714 311.002C882.4 305.667 892.319 298.678 901.069 290.436C902.198 291.241 903.276 292.155 904.291 293.164L922.07 310.988H922.116L922.07 311.034L904.291 328.858C903.284 329.865 902.209 330.769 901.087 331.576L901.199 331.687C892.416 323.393 882.453 316.362 871.714 311V311.002ZM905.791 336.253L906.037 336.498C907.131 335.657 908.177 334.735 909.173 333.74L926.952 315.916L926.997 315.87L927.042 315.916L944.867 333.74C945.851 334.731 946.892 335.64 947.979 336.481L948.25 336.212C939.711 345.137 932.483 355.307 927 366.29C921.526 355.325 914.311 345.169 905.789 336.254L905.791 336.253ZM952.639 331.844L952.931 331.554C951.809 330.753 950.744 329.848 949.749 328.859L931.924 311.035L931.878 310.989L931.924 310.944L949.749 293.165C950.742 292.16 951.811 291.251 952.936 290.44C961.685 298.68 971.603 305.668 982.289 311.003C971.482 316.399 961.461 323.484 952.639 331.846V331.844Z" fill="#FF8C6B" fill-opacity="0.1"/>
</g>
<g clip-path="url(#clip3_26_28)">
<path d="M927.002 621C927.002 674.407 877.407 724.002 824 724.002C877.407 724.002 927.002 773.594 927.002 827.001C927.002 773.594 976.594 724.002 1030 724.002C976.594 724.002 927.002 674.407 927.002 621ZM948.001 698.527C946.909 699.368 945.863 700.288 944.868 701.284L927.043 719.108H926.998L909.174 701.284C908.175 700.285 907.12 699.361 906.019 698.511C914.441 689.653 921.577 679.581 927.002 668.715C932.431 679.588 939.572 689.666 948.001 698.528V698.527ZM871.714 724.002C882.4 718.667 892.319 711.678 901.069 703.436C902.198 704.241 903.276 705.155 904.291 706.164L922.07 723.988H922.116L922.07 724.034L904.291 741.858C903.284 742.865 902.209 743.769 901.087 744.576L901.199 744.687C892.416 736.393 882.453 729.362 871.714 724V724.002ZM905.791 749.253L906.037 749.498C907.131 748.657 908.177 747.735 909.173 746.74L926.952 728.916L926.997 728.87L927.042 728.916L944.867 746.74C945.851 747.731 946.892 748.64 947.979 749.481L948.25 749.212C939.711 758.137 932.483 768.307 927 779.29C921.526 768.325 914.311 758.169 905.789 749.254L905.791 749.253ZM952.639 744.844L952.931 744.554C951.809 743.753 950.744 742.848 949.749 741.859L931.924 724.035L931.878 723.989L931.924 723.944L949.749 706.165C950.742 705.16 951.811 704.251 952.936 703.44C961.685 711.68 971.603 718.668 982.289 724.003C971.482 729.399 961.461 736.484 952.639 744.846V744.844Z" fill="#FF8C6B" fill-opacity="0.1"/>
</g>
<g clip-path="url(#clip4_26_28)">
<path d="M722.002 414C722.002 467.407 672.407 517.002 619 517.002C672.407 517.002 722.002 566.594 722.002 620.001C722.002 566.594 771.594 517.002 825.001 517.002C771.594 517.002 722.002 467.407 722.002 414ZM743.001 491.527C741.909 492.368 740.863 493.288 739.868 494.284L722.043 512.108H721.998L704.174 494.284C703.175 493.285 702.12 492.361 701.019 491.511C709.441 482.653 716.577 472.581 722.002 461.715C727.431 472.588 734.572 482.666 743.001 491.528V491.527ZM666.714 517.002C677.4 511.667 687.319 504.678 696.069 496.436C697.198 497.241 698.276 498.155 699.291 499.164L717.07 516.988H717.116L717.07 517.034L699.291 534.858C698.284 535.865 697.209 536.769 696.087 537.576L696.199 537.687C687.416 529.393 677.453 522.362 666.714 517V517.002ZM700.791 542.253L701.037 542.498C702.131 541.657 703.177 540.735 704.173 539.74L721.952 521.916L721.997 521.87L722.042 521.916L739.867 539.74C740.851 540.731 741.892 541.64 742.979 542.481L743.25 542.212C734.711 551.137 727.483 561.307 722 572.29C716.526 561.325 709.311 551.169 700.789 542.254L700.791 542.253ZM747.639 537.844L747.931 537.554C746.809 536.753 745.744 535.848 744.749 534.859L726.924 517.035L726.878 516.989L726.924 516.944L744.749 499.165C745.742 498.16 746.811 497.251 747.936 496.44C756.685 504.68 766.603 511.668 777.289 517.003C766.482 522.399 756.461 529.484 747.639 537.846V537.844Z" fill="#FF8C6B" fill-opacity="0.1"/>
</g>
<g clip-path="url(#clip5_26_28)">
<path d="M722.002 208C722.002 261.407 672.407 311.002 619 311.002C672.407 311.002 722.002 360.594 722.002 414.001C722.002 360.594 771.594 311.002 825.001 311.002C771.594 311.002 722.002 261.407 722.002 208ZM743.001 285.527C741.909 286.368 740.863 287.288 739.868 288.284L722.043 306.108H721.998L704.174 288.284C703.175 287.285 702.12 286.361 701.019 285.511C709.441 276.653 716.577 266.581 722.002 255.715C727.431 266.588 734.572 276.666 743.001 285.528V285.527ZM666.714 311.002C677.4 305.667 687.319 298.678 696.069 290.436C697.198 291.241 698.276 292.155 699.291 293.164L717.07 310.988H717.116L717.07 311.034L699.291 328.858C698.284 329.865 697.209 330.769 696.087 331.576L696.199 331.687C687.416 323.393 677.453 316.362 666.714 311V311.002ZM700.791 336.253L701.037 336.498C702.131 335.657 703.177 334.735 704.173 333.74L721.952 315.916L721.997 315.87L722.042 315.916L739.867 333.74C740.851 334.731 741.892 335.64 742.979 336.481L743.25 336.212C734.711 345.137 727.483 355.307 722 366.29C716.526 355.325 709.311 345.169 700.789 336.254L700.791 336.253ZM747.639 331.844L747.931 331.554C746.809 330.753 745.744 329.848 744.749 328.859L726.924 311.035L726.878 310.989L726.924 310.944L744.749 293.165C745.742 292.16 746.811 291.251 747.936 290.44C756.685 298.68 766.603 305.668 777.289 311.003C766.482 316.399 756.461 323.484 747.639 331.846V331.844Z" fill="#FF8C6B" fill-opacity="0.1"/>
</g>
<g clip-path="url(#clip6_26_28)">
<path d="M722.002 621C722.002 674.407 672.407 724.002 619 724.002C672.407 724.002 722.002 773.594 722.002 827.001C722.002 773.594 771.594 724.002 825.001 724.002C771.594 724.002 722.002 674.407 722.002 621ZM743.001 698.527C741.909 699.368 740.863 700.288 739.868 701.284L722.043 719.108H721.998L704.174 701.284C703.175 700.285 702.12 699.361 701.019 698.511C709.441 689.653 716.577 679.581 722.002 668.715C727.431 679.588 734.572 689.666 743.001 698.528V698.527ZM666.714 724.002C677.4 718.667 687.319 711.678 696.069 703.436C697.198 704.241 698.276 705.155 699.291 706.164L717.07 723.988H717.116L717.07 724.034L699.291 741.858C698.284 742.865 697.209 743.769 696.087 744.576L696.199 744.687C687.416 736.393 677.453 729.362 666.714 724V724.002ZM700.791 749.253L701.037 749.498C702.131 748.657 703.177 747.735 704.173 746.74L721.952 728.916L721.997 728.87L722.042 728.916L739.867 746.74C740.851 747.731 741.892 748.64 742.979 749.481L743.25 749.212C734.711 758.137 727.483 768.307 722 779.29C716.526 768.325 709.311 758.169 700.789 749.254L700.791 749.253ZM747.639 744.844L747.931 744.554C746.809 743.753 745.744 742.848 744.749 741.859L726.924 724.035L726.878 723.989L726.924 723.944L744.749 706.165C745.742 705.16 746.811 704.251 747.936 703.44C756.685 711.68 766.603 718.668 777.289 724.003C766.482 729.399 756.461 736.484 747.639 744.846V744.844Z" fill="#FF8C6B" fill-opacity="0.1"/>
</g>
<g clip-path="url(#clip7_26_28)">
<path d="M515.002 414C515.002 467.407 465.407 517.002 412 517.002C465.407 517.002 515.002 566.594 515.002 620.001C515.002 566.594 564.594 517.002 618.001 517.002C564.594 517.002 515.002 467.407 515.002 414ZM536.001 491.527C534.909 492.368 533.863 493.288 532.868 494.284L515.043 512.108H514.998L497.174 494.284C496.175 493.285 495.12 492.361 494.019 491.511C502.441 482.653 509.577 472.581 515.002 461.715C520.431 472.588 527.572 482.666 536.001 491.528V491.527ZM459.714 517.002C470.4 511.667 480.319 504.678 489.069 496.436C490.198 497.241 491.276 498.155 492.291 499.164L510.07 516.988H510.116L510.07 517.034L492.291 534.858C491.284 535.865 490.209 536.769 489.087 537.576L489.199 537.687C480.416 529.393 470.453 522.362 459.714 517V517.002ZM493.791 542.253L494.037 542.498C495.131 541.657 496.177 540.735 497.173 539.74L514.952 521.916L514.997 521.87L515.042 521.916L532.867 539.74C533.851 540.731 534.892 541.64 535.979 542.481L536.25 542.212C527.711 551.137 520.483 561.307 515 572.29C509.526 561.325 502.311 551.169 493.789 542.254L493.791 542.253ZM540.639 537.844L540.931 537.554C539.809 536.753 538.744 535.848 537.749 534.859L519.924 517.035L519.878 516.989L519.924 516.944L537.749 499.165C538.742 498.16 539.811 497.251 540.936 496.44C549.685 504.68 559.603 511.668 570.289 517.003C559.482 522.399 549.461 529.484 540.639 537.846V537.844Z" fill="#FF8C6B" fill-opacity="0.1"/>
</g>
<g clip-path="url(#clip8_26_28)">
<path d="M515.002 208C515.002 261.407 465.407 311.002 412 311.002C465.407 311.002 515.002 360.594 515.002 414.001C515.002 360.594 564.594 311.002 618.001 311.002C564.594 311.002 515.002 261.407 515.002 208ZM536.001 285.527C534.909 286.368 533.863 287.288 532.868 288.284L515.043 306.108H514.998L497.174 288.284C496.175 287.285 495.12 286.361 494.019 285.511C502.441 276.653 509.577 266.581 515.002 255.715C520.431 266.588 527.572 276.666 536.001 285.528V285.527ZM459.714 311.002C470.4 305.667 480.319 298.678 489.069 290.436C490.198 291.241 491.276 292.155 492.291 293.164L510.07 310.988H510.116L510.07 311.034L492.291 328.858C491.284 329.865 490.209 330.769 489.087 331.576L489.199 331.687C480.416 323.393 470.453 316.362 459.714 311V311.002ZM493.791 336.253L494.037 336.498C495.131 335.657 496.177 334.735 497.173 333.74L514.952 315.916L514.997 315.87L515.042 315.916L532.867 333.74C533.851 334.731 534.892 335.64 535.979 336.481L536.25 336.212C527.711 345.137 520.483 355.307 515 366.29C509.526 355.325 502.311 345.169 493.789 336.254L493.791 336.253ZM540.639 331.844L540.931 331.554C539.809 330.753 538.744 329.848 537.749 328.859L519.924 311.035L519.878 310.989L519.924 310.944L537.749 293.165C538.742 292.16 539.811 291.251 540.936 290.44C549.685 298.68 559.603 305.668 570.289 311.003C559.482 316.399 549.461 323.484 540.639 331.846V331.844Z" fill="#FF8C6B" fill-opacity="0.1"/>
</g>
<g clip-path="url(#clip9_26_28)">
<path d="M515.002 621C515.002 674.407 465.407 724.002 412 724.002C465.407 724.002 515.002 773.594 515.002 827.001C515.002 773.594 564.594 724.002 618.001 724.002C564.594 724.002 515.002 674.407 515.002 621ZM536.001 698.527C534.909 699.368 533.863 700.288 532.868 701.284L515.043 719.108H514.998L497.174 701.284C496.175 700.285 495.12 699.361 494.019 698.511C502.441 689.653 509.577 679.581 515.002 668.715C520.431 679.588 527.572 689.666 536.001 698.528V698.527ZM459.714 724.002C470.4 718.667 480.319 711.678 489.069 703.436C490.198 704.241 491.276 705.155 492.291 706.164L510.07 723.988H510.116L510.07 724.034L492.291 741.858C491.284 742.865 490.209 743.769 489.087 744.576L489.199 744.687C480.416 736.393 470.453 729.362 459.714 724V724.002ZM493.791 749.253L494.037 749.498C495.131 748.657 496.177 747.735 497.173 746.74L514.952 728.916L514.997 728.87L515.042 728.916L532.867 746.74C533.851 747.731 534.892 748.64 535.979 749.481L536.25 749.212C527.711 758.137 520.483 768.307 515 779.29C509.526 768.325 502.311 758.169 493.789 749.254L493.791 749.253ZM540.639 744.844L540.931 744.554C539.809 743.753 538.744 742.848 537.749 741.859L519.924 724.035L519.878 723.989L519.924 723.944L537.749 706.165C538.742 705.16 539.811 704.251 540.936 703.44C549.685 711.68 559.603 718.668 570.289 724.003C559.482 729.399 549.461 736.484 540.639 744.846V744.844Z" fill="#FF8C6B" fill-opacity="0.1"/>
</g>
<g clip-path="url(#clip10_26_28)">
<path d="M927.002 827C927.002 880.407 877.407 930.002 824 930.002C877.407 930.002 927.002 979.594 927.002 1033C927.002 979.594 976.594 930.002 1030 930.002C976.594 930.002 927.002 880.407 927.002 827ZM948.001 904.527C946.909 905.368 945.863 906.288 944.868 907.284L927.043 925.108H926.998L909.174 907.284C908.175 906.285 907.12 905.361 906.019 904.511C914.441 895.653 921.577 885.581 927.002 874.715C932.431 885.588 939.572 895.666 948.001 904.528V904.527ZM871.714 930.002C882.4 924.667 892.319 917.678 901.069 909.436C902.198 910.241 903.276 911.155 904.291 912.164L922.07 929.988H922.116L922.07 930.034L904.291 947.858C903.284 948.865 902.209 949.769 901.087 950.576L901.199 950.687C892.416 942.393 882.453 935.362 871.714 930V930.002ZM905.791 955.253L906.037 955.498C907.131 954.657 908.177 953.735 909.173 952.74L926.952 934.916L926.997 934.87L927.042 934.916L944.867 952.74C945.851 953.731 946.892 954.64 947.979 955.481L948.25 955.212C939.711 964.137 932.483 974.307 927 985.29C921.526 974.325 914.311 964.169 905.789 955.254L905.791 955.253ZM952.639 950.844L952.931 950.554C951.809 949.753 950.744 948.848 949.749 947.859L931.924 930.035L931.878 929.989L931.924 929.944L949.749 912.165C950.742 911.16 951.811 910.251 952.936 909.44C961.685 917.68 971.603 924.668 982.289 930.003C971.482 935.399 961.461 942.484 952.639 950.846V950.844Z" fill="#FF8C6B" fill-opacity="0.1"/>
</g>
<g clip-path="url(#clip11_26_28)">
<path d="M1133 827C1133 880.407 1083.41 930.002 1030 930.002C1083.41 930.002 1133 979.594 1133 1033C1133 979.594 1182.59 930.002 1236 930.002C1182.59 930.002 1133 880.407 1133 827ZM1154 904.527C1152.91 905.368 1151.86 906.288 1150.87 907.284L1133.04 925.108H1133L1115.17 907.284C1114.18 906.285 1113.12 905.361 1112.02 904.511C1120.44 895.653 1127.58 885.581 1133 874.715C1138.43 885.588 1145.57 895.666 1154 904.528V904.527ZM1077.71 930.002C1088.4 924.667 1098.32 917.678 1107.07 909.436C1108.2 910.241 1109.28 911.155 1110.29 912.164L1128.07 929.988H1128.12L1128.07 930.034L1110.29 947.858C1109.28 948.865 1108.21 949.769 1107.09 950.576L1107.2 950.687C1098.42 942.393 1088.45 935.362 1077.71 930V930.002ZM1111.79 955.253L1112.04 955.498C1113.13 954.657 1114.18 953.735 1115.17 952.74L1132.95 934.916L1133 934.87L1133.04 934.916L1150.87 952.74C1151.85 953.731 1152.89 954.64 1153.98 955.481L1154.25 955.212C1145.71 964.137 1138.48 974.307 1133 985.29C1127.53 974.325 1120.31 964.169 1111.79 955.254L1111.79 955.253ZM1158.64 950.844L1158.93 950.554C1157.81 949.753 1156.74 948.848 1155.75 947.859L1137.92 930.035L1137.88 929.989L1137.92 929.944L1155.75 912.165C1156.74 911.16 1157.81 910.251 1158.94 909.44C1167.68 917.68 1177.6 924.668 1188.29 930.003C1177.48 935.399 1167.46 942.484 1158.64 950.846V950.844Z" fill="#FF8C6B" fill-opacity="0.1"/>
</g>
<g clip-path="url(#clip12_26_28)">
<path d="M1339 827C1339 880.407 1289.41 930.002 1236 930.002C1289.41 930.002 1339 979.594 1339 1033C1339 979.594 1388.59 930.002 1442 930.002C1388.59 930.002 1339 880.407 1339 827ZM1360 904.527C1358.91 905.368 1357.86 906.288 1356.87 907.284L1339.04 925.108H1339L1321.17 907.284C1320.18 906.285 1319.12 905.361 1318.02 904.511C1326.44 895.653 1333.58 885.581 1339 874.715C1344.43 885.588 1351.57 895.666 1360 904.528V904.527ZM1283.71 930.002C1294.4 924.667 1304.32 917.678 1313.07 909.436C1314.2 910.241 1315.28 911.155 1316.29 912.164L1334.07 929.988H1334.12L1334.07 930.034L1316.29 947.858C1315.28 948.865 1314.21 949.769 1313.09 950.576L1313.2 950.687C1304.42 942.393 1294.45 935.362 1283.71 930V930.002ZM1317.79 955.253L1318.04 955.498C1319.13 954.657 1320.18 953.735 1321.17 952.74L1338.95 934.916L1339 934.87L1339.04 934.916L1356.87 952.74C1357.85 953.731 1358.89 954.64 1359.98 955.481L1360.25 955.212C1351.71 964.137 1344.48 974.307 1339 985.29C1333.53 974.325 1326.31 964.169 1317.79 955.254L1317.79 955.253ZM1364.64 950.844L1364.93 950.554C1363.81 949.753 1362.74 948.848 1361.75 947.859L1343.92 930.035L1343.88 929.989L1343.92 929.944L1361.75 912.165C1362.74 911.16 1363.81 910.251 1364.94 909.44C1373.68 917.68 1383.6 924.668 1394.29 930.003C1383.48 935.399 1373.46 942.484 1364.64 950.846V950.844Z" fill="#FF8C6B" fill-opacity="0.1"/>
</g>
<g clip-path="url(#clip13_26_28)">
<path d="M1133 1C1133 54.4069 1083.41 104.002 1030 104.002C1083.41 104.002 1133 153.594 1133 207.001C1133 153.594 1182.59 104.002 1236 104.002C1182.59 104.002 1133 54.4069 1133 1ZM1154 78.5275C1152.91 79.3679 1151.86 80.2882 1150.87 81.2836L1133.04 99.1079H1133L1115.17 81.2836C1114.18 80.2852 1113.12 79.3609 1112.02 78.5107C1120.44 69.6528 1127.58 59.5813 1133 48.7149C1138.43 59.5883 1145.57 69.6657 1154 78.5285V78.5275ZM1077.71 104.002C1088.4 98.6665 1098.32 91.678 1107.07 83.4363C1108.2 84.2411 1109.28 85.1546 1110.29 86.1638L1128.07 103.988H1128.12L1128.07 104.034L1110.29 121.858C1109.28 122.865 1108.21 123.769 1107.09 124.576L1107.2 124.687C1098.42 116.393 1088.45 109.362 1077.71 104V104.002ZM1111.79 129.253L1112.04 129.498C1113.13 128.657 1114.18 127.735 1115.17 126.74L1132.95 108.916L1133 108.87L1133.04 108.916L1150.87 126.74C1151.85 127.731 1152.89 128.64 1153.98 129.481L1154.25 129.212C1145.71 138.137 1138.48 148.307 1133 159.29C1127.53 148.325 1120.31 138.169 1111.79 129.254L1111.79 129.253ZM1158.64 124.844L1158.93 124.554C1157.81 123.753 1156.74 122.848 1155.75 121.859L1137.92 104.035L1137.88 103.989L1137.92 103.944L1155.75 86.1648C1156.74 85.1595 1157.81 84.251 1158.94 83.4403C1167.68 91.68 1177.6 98.6675 1188.29 104.003C1177.48 109.399 1167.46 116.484 1158.64 124.846V124.844Z" fill="#FF8C6B" fill-opacity="0.1"/>
</g>
<g clip-path="url(#clip14_26_28)">
<path d="M1133 414C1133 467.407 1083.41 517.002 1030 517.002C1083.41 517.002 1133 566.594 1133 620.001C1133 566.594 1182.59 517.002 1236 517.002C1182.59 517.002 1133 467.407 1133 414ZM1154 491.527C1152.91 492.368 1151.86 493.288 1150.87 494.284L1133.04 512.108H1133L1115.17 494.284C1114.18 493.285 1113.12 492.361 1112.02 491.511C1120.44 482.653 1127.58 472.581 1133 461.715C1138.43 472.588 1145.57 482.666 1154 491.528V491.527ZM1077.71 517.002C1088.4 511.667 1098.32 504.678 1107.07 496.436C1108.2 497.241 1109.28 498.155 1110.29 499.164L1128.07 516.988H1128.12L1128.07 517.034L1110.29 534.858C1109.28 535.865 1108.21 536.769 1107.09 537.576L1107.2 537.687C1098.42 529.393 1088.45 522.362 1077.71 517V517.002ZM1111.79 542.253L1112.04 542.498C1113.13 541.657 1114.18 540.735 1115.17 539.74L1132.95 521.916L1133 521.87L1133.04 521.916L1150.87 539.74C1151.85 540.731 1152.89 541.64 1153.98 542.481L1154.25 542.212C1145.71 551.137 1138.48 561.307 1133 572.29C1127.53 561.325 1120.31 551.169 1111.79 542.254L1111.79 542.253ZM1158.64 537.844L1158.93 537.554C1157.81 536.753 1156.74 535.848 1155.75 534.859L1137.92 517.035L1137.88 516.989L1137.92 516.944L1155.75 499.165C1156.74 498.16 1157.81 497.251 1158.94 496.44C1167.68 504.68 1177.6 511.668 1188.29 517.003C1177.48 522.399 1167.46 529.484 1158.64 537.846V537.844Z" fill="#FF8C6B" fill-opacity="0.1"/>
</g>
<g clip-path="url(#clip15_26_28)">
<path d="M1133 208C1133 261.407 1083.41 311.002 1030 311.002C1083.41 311.002 1133 360.594 1133 414.001C1133 360.594 1182.59 311.002 1236 311.002C1182.59 311.002 1133 261.407 1133 208ZM1154 285.527C1152.91 286.368 1151.86 287.288 1150.87 288.284L1133.04 306.108H1133L1115.17 288.284C1114.18 287.285 1113.12 286.361 1112.02 285.511C1120.44 276.653 1127.58 266.581 1133 255.715C1138.43 266.588 1145.57 276.666 1154 285.528V285.527ZM1077.71 311.002C1088.4 305.667 1098.32 298.678 1107.07 290.436C1108.2 291.241 1109.28 292.155 1110.29 293.164L1128.07 310.988H1128.12L1128.07 311.034L1110.29 328.858C1109.28 329.865 1108.21 330.769 1107.09 331.576L1107.2 331.687C1098.42 323.393 1088.45 316.362 1077.71 311V311.002ZM1111.79 336.253L1112.04 336.498C1113.13 335.657 1114.18 334.735 1115.17 333.74L1132.95 315.916L1133 315.87L1133.04 315.916L1150.87 333.74C1151.85 334.731 1152.89 335.64 1153.98 336.481L1154.25 336.212C1145.71 345.137 1138.48 355.307 1133 366.29C1127.53 355.325 1120.31 345.169 1111.79 336.254L1111.79 336.253ZM1158.64 331.844L1158.93 331.554C1157.81 330.753 1156.74 329.848 1155.75 328.859L1137.92 311.035L1137.88 310.989L1137.92 310.944L1155.75 293.165C1156.74 292.16 1157.81 291.251 1158.94 290.44C1167.68 298.68 1177.6 305.668 1188.29 311.003C1177.48 316.399 1167.46 323.484 1158.64 331.846V331.844Z" fill="#FF8C6B" fill-opacity="0.1"/>
</g>
<g clip-path="url(#clip16_26_28)">
<path d="M1133 621C1133 674.407 1083.41 724.002 1030 724.002C1083.41 724.002 1133 773.594 1133 827.001C1133 773.594 1182.59 724.002 1236 724.002C1182.59 724.002 1133 674.407 1133 621ZM1154 698.527C1152.91 699.368 1151.86 700.288 1150.87 701.284L1133.04 719.108H1133L1115.17 701.284C1114.18 700.285 1113.12 699.361 1112.02 698.511C1120.44 689.653 1127.58 679.581 1133 668.715C1138.43 679.588 1145.57 689.666 1154 698.528V698.527ZM1077.71 724.002C1088.4 718.667 1098.32 711.678 1107.07 703.436C1108.2 704.241 1109.28 705.155 1110.29 706.164L1128.07 723.988H1128.12L1128.07 724.034L1110.29 741.858C1109.28 742.865 1108.21 743.769 1107.09 744.576L1107.2 744.687C1098.42 736.393 1088.45 729.362 1077.71 724V724.002ZM1111.79 749.253L1112.04 749.498C1113.13 748.657 1114.18 747.735 1115.17 746.74L1132.95 728.916L1133 728.87L1133.04 728.916L1150.87 746.74C1151.85 747.731 1152.89 748.64 1153.98 749.481L1154.25 749.212C1145.71 758.137 1138.48 768.307 1133 779.29C1127.53 768.325 1120.31 758.169 1111.79 749.254L1111.79 749.253ZM1158.64 744.844L1158.93 744.554C1157.81 743.753 1156.74 742.848 1155.75 741.859L1137.92 724.035L1137.88 723.989L1137.92 723.944L1155.75 706.165C1156.74 705.16 1157.81 704.251 1158.94 703.44C1167.68 711.68 1177.6 718.668 1188.29 724.003C1177.48 729.399 1167.46 736.484 1158.64 744.846V744.844Z" fill="#FF8C6B" fill-opacity="0.1"/>
</g>
<g clip-path="url(#clip17_26_28)">
<path d="M1339 414C1339 467.407 1289.41 517.002 1236 517.002C1289.41 517.002 1339 566.594 1339 620.001C1339 566.594 1388.59 517.002 1442 517.002C1388.59 517.002 1339 467.407 1339 414ZM1360 491.527C1358.91 492.368 1357.86 493.288 1356.87 494.284L1339.04 512.108H1339L1321.17 494.284C1320.18 493.285 1319.12 492.361 1318.02 491.511C1326.44 482.653 1333.58 472.581 1339 461.715C1344.43 472.588 1351.57 482.666 1360 491.528V491.527ZM1283.71 517.002C1294.4 511.667 1304.32 504.678 1313.07 496.436C1314.2 497.241 1315.28 498.155 1316.29 499.164L1334.07 516.988H1334.12L1334.07 517.034L1316.29 534.858C1315.28 535.865 1314.21 536.769 1313.09 537.576L1313.2 537.687C1304.42 529.393 1294.45 522.362 1283.71 517V517.002ZM1317.79 542.253L1318.04 542.498C1319.13 541.657 1320.18 540.735 1321.17 539.74L1338.95 521.916L1339 521.87L1339.04 521.916L1356.87 539.74C1357.85 540.731 1358.89 541.64 1359.98 542.481L1360.25 542.212C1351.71 551.137 1344.48 561.307 1339 572.29C1333.53 561.325 1326.31 551.169 1317.79 542.254L1317.79 542.253ZM1364.64 537.844L1364.93 537.554C1363.81 536.753 1362.74 535.848 1361.75 534.859L1343.92 517.035L1343.88 516.989L1343.92 516.944L1361.75 499.165C1362.74 498.16 1363.81 497.251 1364.94 496.44C1373.68 504.68 1383.6 511.668 1394.29 517.003C1383.48 522.399 1373.46 529.484 1364.64 537.846V537.844Z" fill="#FF8C6B" fill-opacity="0.1"/>
</g>
<g clip-path="url(#clip18_26_28)">
<path d="M1339 208C1339 261.407 1289.41 311.002 1236 311.002C1289.41 311.002 1339 360.594 1339 414.001C1339 360.594 1388.59 311.002 1442 311.002C1388.59 311.002 1339 261.407 1339 208ZM1360 285.527C1358.91 286.368 1357.86 287.288 1356.87 288.284L1339.04 306.108H1339L1321.17 288.284C1320.18 287.285 1319.12 286.361 1318.02 285.511C1326.44 276.653 1333.58 266.581 1339 255.715C1344.43 266.588 1351.57 276.666 1360 285.528V285.527ZM1283.71 311.002C1294.4 305.667 1304.32 298.678 1313.07 290.436C1314.2 291.241 1315.28 292.155 1316.29 293.164L1334.07 310.988H1334.12L1334.07 311.034L1316.29 328.858C1315.28 329.865 1314.21 330.769 1313.09 331.576L1313.2 331.687C1304.42 323.393 1294.45 316.362 1283.71 311V311.002ZM1317.79 336.253L1318.04 336.498C1319.13 335.657 1320.18 334.735 1321.17 333.74L1338.95 315.916L1339 315.87L1339.04 315.916L1356.87 333.74C1357.85 334.731 1358.89 335.64 1359.98 336.481L1360.25 336.212C1351.71 345.137 1344.48 355.307 1339 366.29C1333.53 355.325 1326.31 345.169 1317.79 336.254L1317.79 336.253ZM1364.64 331.844L1364.93 331.554C1363.81 330.753 1362.74 329.848 1361.75 328.859L1343.92 311.035L1343.88 310.989L1343.92 310.944L1361.75 293.165C1362.74 292.16 1363.81 291.251 1364.94 290.44C1373.68 298.68 1383.6 305.668 1394.29 311.003C1383.48 316.399 1373.46 323.484 1364.64 331.846V331.844Z" fill="#FF8C6B" fill-opacity="0.1"/>
</g>
<g clip-path="url(#clip19_26_28)">
<path d="M1339 621C1339 674.407 1289.41 724.002 1236 724.002C1289.41 724.002 1339 773.594 1339 827.001C1339 773.594 1388.59 724.002 1442 724.002C1388.59 724.002 1339 674.407 1339 621ZM1360 698.527C1358.91 699.368 1357.86 700.288 1356.87 701.284L1339.04 719.108H1339L1321.17 701.284C1320.18 700.285 1319.12 699.361 1318.02 698.511C1326.44 689.653 1333.58 679.581 1339 668.715C1344.43 679.588 1351.57 689.666 1360 698.528V698.527ZM1283.71 724.002C1294.4 718.667 1304.32 711.678 1313.07 703.436C1314.2 704.241 1315.28 705.155 1316.29 706.164L1334.07 723.988H1334.12L1334.07 724.034L1316.29 741.858C1315.28 742.865 1314.21 743.769 1313.09 744.576L1313.2 744.687C1304.42 736.393 1294.45 729.362 1283.71 724V724.002ZM1317.79 749.253L1318.04 749.498C1319.13 748.657 1320.18 747.735 1321.17 746.74L1338.95 728.916L1339 728.87L1339.04 728.916L1356.87 746.74C1357.85 747.731 1358.89 748.64 1359.98 749.481L1360.25 749.212C1351.71 758.137 1344.48 768.307 1339 779.29C1333.53 768.325 1326.31 758.169 1317.79 749.254L1317.79 749.253ZM1364.64 744.844L1364.93 744.554C1363.81 743.753 1362.74 742.848 1361.75 741.859L1343.92 724.035L1343.88 723.989L1343.92 723.944L1361.75 706.165C1362.74 705.16 1363.81 704.251 1364.94 703.44C1373.68 711.68 1383.6 718.668 1394.29 724.003C1383.48 729.399 1373.46 736.484 1364.64 744.846V744.844Z" fill="#FF8C6B" fill-opacity="0.1"/>
</g>
<g clip-path="url(#clip20_26_28)">
<path d="M1339 1C1339 54.4069 1289.41 104.002 1236 104.002C1289.41 104.002 1339 153.594 1339 207.001C1339 153.594 1388.59 104.002 1442 104.002C1388.59 104.002 1339 54.4069 1339 1ZM1360 78.5275C1358.91 79.3679 1357.86 80.2882 1356.87 81.2836L1339.04 99.1079H1339L1321.17 81.2836C1320.18 80.2852 1319.12 79.3609 1318.02 78.5107C1326.44 69.6528 1333.58 59.5813 1339 48.7149C1344.43 59.5883 1351.57 69.6657 1360 78.5285V78.5275ZM1283.71 104.002C1294.4 98.6665 1304.32 91.678 1313.07 83.4363C1314.2 84.2411 1315.28 85.1546 1316.29 86.1638L1334.07 103.988H1334.12L1334.07 104.034L1316.29 121.858C1315.28 122.865 1314.21 123.769 1313.09 124.576L1313.2 124.687C1304.42 116.393 1294.45 109.362 1283.71 104V104.002ZM1317.79 129.253L1318.04 129.498C1319.13 128.657 1320.18 127.735 1321.17 126.74L1338.95 108.916L1339 108.87L1339.04 108.916L1356.87 126.74C1357.85 127.731 1358.89 128.64 1359.98 129.481L1360.25 129.212C1351.71 138.137 1344.48 148.307 1339 159.29C1333.53 148.325 1326.31 138.169 1317.79 129.254L1317.79 129.253ZM1364.64 124.844L1364.93 124.554C1363.81 123.753 1362.74 122.848 1361.75 121.859L1343.92 104.035L1343.88 103.989L1343.92 103.944L1361.75 86.1648C1362.74 85.1595 1363.81 84.251 1364.94 83.4403C1373.68 91.68 1383.6 98.6675 1394.29 104.003C1383.48 109.399 1373.46 116.484 1364.64 124.846V124.844Z" fill="#FF8C6B" fill-opacity="0.1"/>
</g>
<g clip-path="url(#clip21_26_28)">
<path d="M1545 1C1545 54.4069 1495.41 104.002 1442 104.002C1495.41 104.002 1545 153.594 1545 207.001C1545 153.594 1594.59 104.002 1648 104.002C1594.59 104.002 1545 54.4069 1545 1ZM1566 78.5275C1564.91 79.3679 1563.86 80.2882 1562.87 81.2836L1545.04 99.1079H1545L1527.17 81.2836C1526.18 80.2852 1525.12 79.3609 1524.02 78.5107C1532.44 69.6528 1539.58 59.5813 1545 48.7149C1550.43 59.5883 1557.57 69.6657 1566 78.5285V78.5275ZM1489.71 104.002C1500.4 98.6665 1510.32 91.678 1519.07 83.4363C1520.2 84.2411 1521.28 85.1546 1522.29 86.1638L1540.07 103.988H1540.12L1540.07 104.034L1522.29 121.858C1521.28 122.865 1520.21 123.769 1519.09 124.576L1519.2 124.687C1510.42 116.393 1500.45 109.362 1489.71 104V104.002ZM1523.79 129.253L1524.04 129.498C1525.13 128.657 1526.18 127.735 1527.17 126.74L1544.95 108.916L1545 108.87L1545.04 108.916L1562.87 126.74C1563.85 127.731 1564.89 128.64 1565.98 129.481L1566.25 129.212C1557.71 138.137 1550.48 148.307 1545 159.29C1539.53 148.325 1532.31 138.169 1523.79 129.254L1523.79 129.253ZM1570.64 124.844L1570.93 124.554C1569.81 123.753 1568.74 122.848 1567.75 121.859L1549.92 104.035L1549.88 103.989L1549.92 103.944L1567.75 86.1648C1568.74 85.1595 1569.81 84.251 1570.94 83.4403C1579.68 91.68 1589.6 98.6675 1600.29 104.003C1589.48 109.399 1579.46 116.484 1570.64 124.846V124.844Z" fill="#FF8C6B" fill-opacity="0.1"/>
</g>
<g clip-path="url(#clip22_26_28)">
<path d="M1751 1C1751 54.4069 1701.41 104.002 1648 104.002C1701.41 104.002 1751 153.594 1751 207.001C1751 153.594 1800.59 104.002 1854 104.002C1800.59 104.002 1751 54.4069 1751 1ZM1772 78.5275C1770.91 79.3679 1769.86 80.2882 1768.87 81.2836L1751.04 99.1079H1751L1733.17 81.2836C1732.18 80.2852 1731.12 79.3609 1730.02 78.5107C1738.44 69.6528 1745.58 59.5813 1751 48.7149C1756.43 59.5883 1763.57 69.6657 1772 78.5285V78.5275ZM1695.71 104.002C1706.4 98.6665 1716.32 91.678 1725.07 83.4363C1726.2 84.2411 1727.28 85.1546 1728.29 86.1638L1746.07 103.988H1746.12L1746.07 104.034L1728.29 121.858C1727.28 122.865 1726.21 123.769 1725.09 124.576L1725.2 124.687C1716.42 116.393 1706.45 109.362 1695.71 104V104.002ZM1729.79 129.253L1730.04 129.498C1731.13 128.657 1732.18 127.735 1733.17 126.74L1750.95 108.916L1751 108.87L1751.04 108.916L1768.87 126.74C1769.85 127.731 1770.89 128.64 1771.98 129.481L1772.25 129.212C1763.71 138.137 1756.48 148.307 1751 159.29C1745.53 148.325 1738.31 138.169 1729.79 129.254L1729.79 129.253ZM1776.64 124.844L1776.93 124.554C1775.81 123.753 1774.74 122.848 1773.75 121.859L1755.92 104.035L1755.88 103.989L1755.92 103.944L1773.75 86.1648C1774.74 85.1595 1775.81 84.251 1776.94 83.4403C1785.68 91.68 1795.6 98.6675 1806.29 104.003C1795.48 109.399 1785.46 116.484 1776.64 124.846V124.844Z" fill="#FF8C6B" fill-opacity="0.1"/>
</g>
<g clip-path="url(#clip23_26_28)">
<path d="M1751 414C1751 467.407 1701.41 517.002 1648 517.002C1701.41 517.002 1751 566.594 1751 620.001C1751 566.594 1800.59 517.002 1854 517.002C1800.59 517.002 1751 467.407 1751 414ZM1772 491.527C1770.91 492.368 1769.86 493.288 1768.87 494.284L1751.04 512.108H1751L1733.17 494.284C1732.18 493.285 1731.12 492.361 1730.02 491.511C1738.44 482.653 1745.58 472.581 1751 461.715C1756.43 472.588 1763.57 482.666 1772 491.528V491.527ZM1695.71 517.002C1706.4 511.667 1716.32 504.678 1725.07 496.436C1726.2 497.241 1727.28 498.155 1728.29 499.164L1746.07 516.988H1746.12L1746.07 517.034L1728.29 534.858C1727.28 535.865 1726.21 536.769 1725.09 537.576L1725.2 537.687C1716.42 529.393 1706.45 522.362 1695.71 517V517.002ZM1729.79 542.253L1730.04 542.498C1731.13 541.657 1732.18 540.735 1733.17 539.74L1750.95 521.916L1751 521.87L1751.04 521.916L1768.87 539.74C1769.85 540.731 1770.89 541.64 1771.98 542.481L1772.25 542.212C1763.71 551.137 1756.48 561.307 1751 572.29C1745.53 561.325 1738.31 551.169 1729.79 542.254L1729.79 542.253ZM1776.64 537.844L1776.93 537.554C1775.81 536.753 1774.74 535.848 1773.75 534.859L1755.92 517.035L1755.88 516.989L1755.92 516.944L1773.75 499.165C1774.74 498.16 1775.81 497.251 1776.94 496.44C1785.68 504.68 1795.6 511.668 1806.29 517.003C1795.48 522.399 1785.46 529.484 1776.64 537.846V537.844Z" fill="#FF8C6B" fill-opacity="0.1"/>
</g>
<g clip-path="url(#clip24_26_28)">
<path d="M1751 208C1751 261.407 1701.41 311.002 1648 311.002C1701.41 311.002 1751 360.594 1751 414.001C1751 360.594 1800.59 311.002 1854 311.002C1800.59 311.002 1751 261.407 1751 208ZM1772 285.527C1770.91 286.368 1769.86 287.288 1768.87 288.284L1751.04 306.108H1751L1733.17 288.284C1732.18 287.285 1731.12 286.361 1730.02 285.511C1738.44 276.653 1745.58 266.581 1751 255.715C1756.43 266.588 1763.57 276.666 1772 285.528V285.527ZM1695.71 311.002C1706.4 305.667 1716.32 298.678 1725.07 290.436C1726.2 291.241 1727.28 292.155 1728.29 293.164L1746.07 310.988H1746.12L1746.07 311.034L1728.29 328.858C1727.28 329.865 1726.21 330.769 1725.09 331.576L1725.2 331.687C1716.42 323.393 1706.45 316.362 1695.71 311V311.002ZM1729.79 336.253L1730.04 336.498C1731.13 335.657 1732.18 334.735 1733.17 333.74L1750.95 315.916L1751 315.87L1751.04 315.916L1768.87 333.74C1769.85 334.731 1770.89 335.64 1771.98 336.481L1772.25 336.212C1763.71 345.137 1756.48 355.307 1751 366.29C1745.53 355.325 1738.31 345.169 1729.79 336.254L1729.79 336.253ZM1776.64 331.844L1776.93 331.554C1775.81 330.753 1774.74 329.848 1773.75 328.859L1755.92 311.035L1755.88 310.989L1755.92 310.944L1773.75 293.165C1774.74 292.16 1775.81 291.251 1776.94 290.44C1785.68 298.68 1795.6 305.668 1806.29 311.003C1795.48 316.399 1785.46 323.484 1776.64 331.846V331.844Z" fill="#FF8C6B" fill-opacity="0.1"/>
</g>
<g clip-path="url(#clip25_26_28)">
<path d="M1751 621C1751 674.407 1701.41 724.002 1648 724.002C1701.41 724.002 1751 773.594 1751 827.001C1751 773.594 1800.59 724.002 1854 724.002C1800.59 724.002 1751 674.407 1751 621ZM1772 698.527C1770.91 699.368 1769.86 700.288 1768.87 701.284L1751.04 719.108H1751L1733.17 701.284C1732.18 700.285 1731.12 699.361 1730.02 698.511C1738.44 689.653 1745.58 679.581 1751 668.715C1756.43 679.588 1763.57 689.666 1772 698.528V698.527ZM1695.71 724.002C1706.4 718.667 1716.32 711.678 1725.07 703.436C1726.2 704.241 1727.28 705.155 1728.29 706.164L1746.07 723.988H1746.12L1746.07 724.034L1728.29 741.858C1727.28 742.865 1726.21 743.769 1725.09 744.576L1725.2 744.687C1716.42 736.393 1706.45 729.362 1695.71 724V724.002ZM1729.79 749.253L1730.04 749.498C1731.13 748.657 1732.18 747.735 1733.17 746.74L1750.95 728.916L1751 728.87L1751.04 728.916L1768.87 746.74C1769.85 747.731 1770.89 748.64 1771.98 749.481L1772.25 749.212C1763.71 758.137 1756.48 768.307 1751 779.29C1745.53 768.325 1738.31 758.169 1729.79 749.254L1729.79 749.253ZM1776.64 744.844L1776.93 744.554C1775.81 743.753 1774.74 742.848 1773.75 741.859L1755.92 724.035L1755.88 723.989L1755.92 723.944L1773.75 706.165C1774.74 705.16 1775.81 704.251 1776.94 703.44C1785.68 711.68 1795.6 718.668 1806.29 724.003C1795.48 729.399 1785.46 736.484 1776.64 744.846V744.844Z" fill="#FF8C6B" fill-opacity="0.1"/>
</g>
<g clip-path="url(#clip26_26_28)">
<path d="M1751 827C1751 880.407 1701.41 930.002 1648 930.002C1701.41 930.002 1751 979.594 1751 1033C1751 979.594 1800.59 930.002 1854 930.002C1800.59 930.002 1751 880.407 1751 827ZM1772 904.527C1770.91 905.368 1769.86 906.288 1768.87 907.284L1751.04 925.108H1751L1733.17 907.284C1732.18 906.285 1731.12 905.361 1730.02 904.511C1738.44 895.653 1745.58 885.581 1751 874.715C1756.43 885.588 1763.57 895.666 1772 904.528V904.527ZM1695.71 930.002C1706.4 924.667 1716.32 917.678 1725.07 909.436C1726.2 910.241 1727.28 911.155 1728.29 912.164L1746.07 929.988H1746.12L1746.07 930.034L1728.29 947.858C1727.28 948.865 1726.21 949.769 1725.09 950.576L1725.2 950.687C1716.42 942.393 1706.45 935.362 1695.71 930V930.002ZM1729.79 955.253L1730.04 955.498C1731.13 954.657 1732.18 953.735 1733.17 952.74L1750.95 934.916L1751 934.87L1751.04 934.916L1768.87 952.74C1769.85 953.731 1770.89 954.64 1771.98 955.481L1772.25 955.212C1763.71 964.137 1756.48 974.307 1751 985.29C1745.53 974.325 1738.31 964.169 1729.79 955.254L1729.79 955.253ZM1776.64 950.844L1776.93 950.554C1775.81 949.753 1774.74 948.848 1773.75 947.859L1755.92 930.035L1755.88 929.989L1755.92 929.944L1773.75 912.165C1774.74 911.16 1775.81 910.251 1776.94 909.44C1785.68 917.68 1795.6 924.668 1806.29 930.003C1795.48 935.399 1785.46 942.484 1776.64 950.846V950.844Z" fill="#FF8C6B" fill-opacity="0.1"/>
</g>
<g clip-path="url(#clip27_26_28)">
<path d="M1545 414C1545 467.407 1495.41 517.002 1442 517.002C1495.41 517.002 1545 566.594 1545 620.001C1545 566.594 1594.59 517.002 1648 517.002C1594.59 517.002 1545 467.407 1545 414ZM1566 491.527C1564.91 492.368 1563.86 493.288 1562.87 494.284L1545.04 512.108H1545L1527.17 494.284C1526.18 493.285 1525.12 492.361 1524.02 491.511C1532.44 482.653 1539.58 472.581 1545 461.715C1550.43 472.588 1557.57 482.666 1566 491.528V491.527ZM1489.71 517.002C1500.4 511.667 1510.32 504.678 1519.07 496.436C1520.2 497.241 1521.28 498.155 1522.29 499.164L1540.07 516.988H1540.12L1540.07 517.034L1522.29 534.858C1521.28 535.865 1520.21 536.769 1519.09 537.576L1519.2 537.687C1510.42 529.393 1500.45 522.362 1489.71 517V517.002ZM1523.79 542.253L1524.04 542.498C1525.13 541.657 1526.18 540.735 1527.17 539.74L1544.95 521.916L1545 521.87L1545.04 521.916L1562.87 539.74C1563.85 540.731 1564.89 541.64 1565.98 542.481L1566.25 542.212C1557.71 551.137 1550.48 561.307 1545 572.29C1539.53 561.325 1532.31 551.169 1523.79 542.254L1523.79 542.253ZM1570.64 537.844L1570.93 537.554C1569.81 536.753 1568.74 535.848 1567.75 534.859L1549.92 517.035L1549.88 516.989L1549.92 516.944L1567.75 499.165C1568.74 498.16 1569.81 497.251 1570.94 496.44C1579.68 504.68 1589.6 511.668 1600.29 517.003C1589.48 522.399 1579.46 529.484 1570.64 537.846V537.844Z" fill="#FF8C6B" fill-opacity="0.1"/>
</g>
<g clip-path="url(#clip28_26_28)">
<path d="M1545 208C1545 261.407 1495.41 311.002 1442 311.002C1495.41 311.002 1545 360.594 1545 414.001C1545 360.594 1594.59 311.002 1648 311.002C1594.59 311.002 1545 261.407 1545 208ZM1566 285.527C1564.91 286.368 1563.86 287.288 1562.87 288.284L1545.04 306.108H1545L1527.17 288.284C1526.18 287.285 1525.12 286.361 1524.02 285.511C1532.44 276.653 1539.58 266.581 1545 255.715C1550.43 266.588 1557.57 276.666 1566 285.528V285.527ZM1489.71 311.002C1500.4 305.667 1510.32 298.678 1519.07 290.436C1520.2 291.241 1521.28 292.155 1522.29 293.164L1540.07 310.988H1540.12L1540.07 311.034L1522.29 328.858C1521.28 329.865 1520.21 330.769 1519.09 331.576L1519.2 331.687C1510.42 323.393 1500.45 316.362 1489.71 311V311.002ZM1523.79 336.253L1524.04 336.498C1525.13 335.657 1526.18 334.735 1527.17 333.74L1544.95 315.916L1545 315.87L1545.04 315.916L1562.87 333.74C1563.85 334.731 1564.89 335.64 1565.98 336.481L1566.25 336.212C1557.71 345.137 1550.48 355.307 1545 366.29C1539.53 355.325 1532.31 345.169 1523.79 336.254L1523.79 336.253ZM1570.64 331.844L1570.93 331.554C1569.81 330.753 1568.74 329.848 1567.75 328.859L1549.92 311.035L1549.88 310.989L1549.92 310.944L1567.75 293.165C1568.74 292.16 1569.81 291.251 1570.94 290.44C1579.68 298.68 1589.6 305.668 1600.29 311.003C1589.48 316.399 1579.46 323.484 1570.64 331.846V331.844Z" fill="#FF8C6B" fill-opacity="0.1"/>
</g>
<g clip-path="url(#clip29_26_28)">
<path d="M1545 621C1545 674.407 1495.41 724.002 1442 724.002C1495.41 724.002 1545 773.594 1545 827.001C1545 773.594 1594.59 724.002 1648 724.002C1594.59 724.002 1545 674.407 1545 621ZM1566 698.527C1564.91 699.368 1563.86 700.288 1562.87 701.284L1545.04 719.108H1545L1527.17 701.284C1526.18 700.285 1525.12 699.361 1524.02 698.511C1532.44 689.653 1539.58 679.581 1545 668.715C1550.43 679.588 1557.57 689.666 1566 698.528V698.527ZM1489.71 724.002C1500.4 718.667 1510.32 711.678 1519.07 703.436C1520.2 704.241 1521.28 705.155 1522.29 706.164L1540.07 723.988H1540.12L1540.07 724.034L1522.29 741.858C1521.28 742.865 1520.21 743.769 1519.09 744.576L1519.2 744.687C1510.42 736.393 1500.45 729.362 1489.71 724V724.002ZM1523.79 749.253L1524.04 749.498C1525.13 748.657 1526.18 747.735 1527.17 746.74L1544.95 728.916L1545 728.87L1545.04 728.916L1562.87 746.74C1563.85 747.731 1564.89 748.64 1565.98 749.481L1566.25 749.212C1557.71 758.137 1550.48 768.307 1545 779.29C1539.53 768.325 1532.31 758.169 1523.79 749.254L1523.79 749.253ZM1570.64 744.844L1570.93 744.554C1569.81 743.753 1568.74 742.848 1567.75 741.859L1549.92 724.035L1549.88 723.989L1549.92 723.944L1567.75 706.165C1568.74 705.16 1569.81 704.251 1570.94 703.44C1579.68 711.68 1589.6 718.668 1600.29 724.003C1589.48 729.399 1579.46 736.484 1570.64 744.846V744.844Z" fill="#FF8C6B" fill-opacity="0.1"/>
</g>
<g clip-path="url(#clip30_26_28)">
<path d="M1545 827C1545 880.407 1495.41 930.002 1442 930.002C1495.41 930.002 1545 979.594 1545 1033C1545 979.594 1594.59 930.002 1648 930.002C1594.59 930.002 1545 880.407 1545 827ZM1566 904.527C1564.91 905.368 1563.86 906.288 1562.87 907.284L1545.04 925.108H1545L1527.17 907.284C1526.18 906.285 1525.12 905.361 1524.02 904.511C1532.44 895.653 1539.58 885.581 1545 874.715C1550.43 885.588 1557.57 895.666 1566 904.528V904.527ZM1489.71 930.002C1500.4 924.667 1510.32 917.678 1519.07 909.436C1520.2 910.241 1521.28 911.155 1522.29 912.164L1540.07 929.988H1540.12L1540.07 930.034L1522.29 947.858C1521.28 948.865 1520.21 949.769 1519.09 950.576L1519.2 950.687C1510.42 942.393 1500.45 935.362 1489.71 930V930.002ZM1523.79 955.253L1524.04 955.498C1525.13 954.657 1526.18 953.735 1527.17 952.74L1544.95 934.916L1545 934.87L1545.04 934.916L1562.87 952.74C1563.85 953.731 1564.89 954.64 1565.98 955.481L1566.25 955.212C1557.71 964.137 1550.48 974.307 1545 985.29C1539.53 974.325 1532.31 964.169 1523.79 955.254L1523.79 955.253ZM1570.64 950.844L1570.93 950.554C1569.81 949.753 1568.74 948.848 1567.75 947.859L1549.92 930.035L1549.88 929.989L1549.92 929.944L1567.75 912.165C1568.74 911.16 1569.81 910.251 1570.94 909.44C1579.68 917.68 1589.6 924.668 1600.29 930.003C1589.48 935.399 1579.46 942.484 1570.64 950.846V950.844Z" fill="#FF8C6B" fill-opacity="0.1"/>
</g>
<g clip-path="url(#clip31_26_28)">
<path d="M721.002 1C721.002 54.4069 671.407 104.002 618 104.002C671.407 104.002 721.002 153.594 721.002 207.001C721.002 153.594 770.594 104.002 824.001 104.002C770.594 104.002 721.002 54.4069 721.002 1ZM742.001 78.5275C740.909 79.3679 739.863 80.2882 738.868 81.2836L721.043 99.1079H720.998L703.174 81.2836C702.175 80.2852 701.12 79.3609 700.019 78.5107C708.441 69.6528 715.577 59.5813 721.002 48.7149C726.431 59.5883 733.572 69.6657 742.001 78.5285V78.5275ZM665.714 104.002C676.4 98.6665 686.319 91.678 695.069 83.4363C696.198 84.2411 697.276 85.1546 698.291 86.1638L716.07 103.988H716.116L716.07 104.034L698.291 121.858C697.284 122.865 696.209 123.769 695.087 124.576L695.199 124.687C686.416 116.393 676.453 109.362 665.714 104V104.002ZM699.791 129.253L700.037 129.498C701.131 128.657 702.177 127.735 703.173 126.74L720.952 108.916L720.997 108.87L721.042 108.916L738.867 126.74C739.851 127.731 740.892 128.64 741.979 129.481L742.25 129.212C733.711 138.137 726.483 148.307 721 159.29C715.526 148.325 708.311 138.169 699.789 129.254L699.791 129.253ZM746.639 124.844L746.931 124.554C745.809 123.753 744.744 122.848 743.749 121.859L725.924 104.035L725.878 103.989L725.924 103.944L743.749 86.1648C744.742 85.1595 745.811 84.251 746.936 83.4403C755.685 91.68 765.603 98.6675 776.289 104.003C765.482 109.399 755.461 116.484 746.639 124.846V124.844Z" fill="#FF8C6B" fill-opacity="0.1"/>
</g>
<g clip-path="url(#clip32_26_28)">
<path d="M309.002 0C309.002 53.4069 259.407 103.002 206 103.002C259.407 103.002 309.002 152.594 309.002 206.001C309.002 152.594 358.594 103.002 412.001 103.002C358.594 103.002 309.002 53.4069 309.002 0ZM330.001 77.5275C328.909 78.3679 327.863 79.2882 326.868 80.2836L309.043 98.1079H308.998L291.174 80.2836C290.175 79.2852 289.12 78.3609 288.019 77.5107C296.441 68.6528 303.577 58.5813 309.002 47.7149C314.431 58.5883 321.572 68.6657 330.001 77.5285V77.5275ZM253.714 103.002C264.4 97.6665 274.319 90.678 283.069 82.4363C284.198 83.2411 285.276 84.1546 286.291 85.1638L304.07 102.988H304.116L304.07 103.034L286.291 120.858C285.284 121.865 284.209 122.769 283.087 123.576L283.199 123.687C274.416 115.393 264.453 108.362 253.714 103V103.002ZM287.791 128.253L288.037 128.498C289.131 127.657 290.177 126.735 291.173 125.74L308.952 107.916L308.997 107.87L309.042 107.916L326.867 125.74C327.851 126.731 328.892 127.64 329.979 128.481L330.25 128.212C321.711 137.137 314.483 147.307 309 158.29C303.526 147.325 296.311 137.169 287.789 128.254L287.791 128.253ZM334.639 123.844L334.931 123.554C333.809 122.753 332.744 121.848 331.749 120.859L313.924 103.035L313.878 102.989L313.924 102.944L331.749 85.1648C332.742 84.1595 333.811 83.251 334.936 82.4403C343.685 90.68 353.603 97.6675 364.289 103.003C353.482 108.399 343.461 115.484 334.639 123.846V123.844Z" fill="#FF8C6B" fill-opacity="0.1"/>
</g>
<g clip-path="url(#clip33_26_28)">
<path d="M103.002 0C103.002 53.4069 53.4069 103.002 0 103.002C53.4069 103.002 103.002 152.594 103.002 206.001C103.002 152.594 152.594 103.002 206.001 103.002C152.594 103.002 103.002 53.4069 103.002 0ZM124.001 77.5275C122.909 78.3679 121.863 79.2882 120.868 80.2836L103.043 98.1079H102.998L85.1737 80.2836C84.1753 79.2852 83.1197 78.3609 82.0186 77.5107C90.441 68.6528 97.5767 58.5813 103.002 47.7149C108.431 58.5883 115.572 68.6657 124.001 77.5285V77.5275ZM47.7139 103.002C58.3997 97.6665 68.3191 90.678 77.0693 82.4363C78.198 83.2411 79.2764 84.1546 80.2915 85.1638L98.0704 102.988H98.1158L98.0704 103.034L80.2915 120.858C79.2842 121.865 78.2089 122.769 77.0871 123.576L77.1987 123.687C68.4158 115.393 58.453 108.362 47.7139 103V103.002ZM81.7905 128.253L82.0374 128.498C83.1306 127.657 84.1773 126.735 85.1727 125.74L102.952 107.916L102.997 107.87L103.042 107.916L120.867 125.74C121.851 126.731 122.892 127.64 123.979 128.481L124.25 128.212C115.711 137.137 108.483 147.307 103 158.29C97.5263 147.325 90.3106 137.169 81.7885 128.254L81.7905 128.253ZM128.639 123.844L128.931 123.554C127.809 122.753 126.744 121.848 125.749 120.859L107.924 103.035L107.878 102.989L107.924 102.944L125.749 85.1648C126.742 84.1595 127.811 83.251 128.936 82.4403C137.685 90.68 147.603 97.6675 158.289 103.003C147.482 108.399 137.461 115.484 128.639 123.846V123.844Z" fill="#FF8C6B" fill-opacity="0.1"/>
</g>
<g clip-path="url(#clip34_26_28)">
<path d="M309.002 413C309.002 466.407 259.407 516.002 206 516.002C259.407 516.002 309.002 565.594 309.002 619.001C309.002 565.594 358.594 516.002 412.001 516.002C358.594 516.002 309.002 466.407 309.002 413ZM330.001 490.527C328.909 491.368 327.863 492.288 326.868 493.284L309.043 511.108H308.998L291.174 493.284C290.175 492.285 289.12 491.361 288.019 490.511C296.441 481.653 303.577 471.581 309.002 460.715C314.431 471.588 321.572 481.666 330.001 490.528V490.527ZM253.714 516.002C264.4 510.667 274.319 503.678 283.069 495.436C284.198 496.241 285.276 497.155 286.291 498.164L304.07 515.988H304.116L304.07 516.034L286.291 533.858C285.284 534.865 284.209 535.769 283.087 536.576L283.199 536.687C274.416 528.393 264.453 521.362 253.714 516V516.002ZM287.791 541.253L288.037 541.498C289.131 540.657 290.177 539.735 291.173 538.74L308.952 520.916L308.997 520.87L309.042 520.916L326.867 538.74C327.851 539.731 328.892 540.64 329.979 541.481L330.25 541.212C321.711 550.137 314.483 560.307 309 571.29C303.526 560.325 296.311 550.169 287.789 541.254L287.791 541.253ZM334.639 536.844L334.931 536.554C333.809 535.753 332.744 534.848 331.749 533.859L313.924 516.035L313.878 515.989L313.924 515.944L331.749 498.165C332.742 497.16 333.811 496.251 334.936 495.44C343.685 503.68 353.603 510.668 364.289 516.003C353.482 521.399 343.461 528.484 334.639 536.846V536.844Z" fill="#FF8C6B" fill-opacity="0.1"/>
</g>
<g clip-path="url(#clip35_26_28)">
<path d="M103.002 413C103.002 466.407 53.4069 516.002 0 516.002C53.4069 516.002 103.002 565.594 103.002 619.001C103.002 565.594 152.594 516.002 206.001 516.002C152.594 516.002 103.002 466.407 103.002 413ZM124.001 490.527C122.909 491.368 121.863 492.288 120.868 493.284L103.043 511.108H102.998L85.1737 493.284C84.1753 492.285 83.1197 491.361 82.0186 490.511C90.441 481.653 97.5767 471.581 103.002 460.715C108.431 471.588 115.572 481.666 124.001 490.528V490.527ZM47.7139 516.002C58.3997 510.667 68.3191 503.678 77.0693 495.436C78.198 496.241 79.2764 497.155 80.2915 498.164L98.0704 515.988H98.1158L98.0704 516.034L80.2915 533.858C79.2842 534.865 78.2089 535.769 77.0871 536.576L77.1987 536.687C68.4158 528.393 58.453 521.362 47.7139 516V516.002ZM81.7905 541.253L82.0374 541.498C83.1306 540.657 84.1773 539.735 85.1727 538.74L102.952 520.916L102.997 520.87L103.042 520.916L120.867 538.74C121.851 539.731 122.892 540.64 123.979 541.481L124.25 541.212C115.711 550.137 108.483 560.307 103 571.29C97.5263 560.325 90.3106 550.169 81.7885 541.254L81.7905 541.253ZM128.639 536.844L128.931 536.554C127.809 535.753 126.744 534.848 125.749 533.859L107.924 516.035L107.878 515.989L107.924 515.944L125.749 498.165C126.742 497.16 127.811 496.251 128.936 495.44C137.685 503.68 147.603 510.668 158.289 516.003C147.482 521.399 137.461 528.484 128.639 536.846V536.844Z" fill="#FF8C6B" fill-opacity="0.1"/>
</g>
<g clip-path="url(#clip36_26_28)">
<path d="M309.002 207C309.002 260.407 259.407 310.002 206 310.002C259.407 310.002 309.002 359.594 309.002 413.001C309.002 359.594 358.594 310.002 412.001 310.002C358.594 310.002 309.002 260.407 309.002 207ZM330.001 284.527C328.909 285.368 327.863 286.288 326.868 287.284L309.043 305.108H308.998L291.174 287.284C290.175 286.285 289.12 285.361 288.019 284.511C296.441 275.653 303.577 265.581 309.002 254.715C314.431 265.588 321.572 275.666 330.001 284.528V284.527ZM253.714 310.002C264.4 304.667 274.319 297.678 283.069 289.436C284.198 290.241 285.276 291.155 286.291 292.164L304.07 309.988H304.116L304.07 310.034L286.291 327.858C285.284 328.865 284.209 329.769 283.087 330.576L283.199 330.687C274.416 322.393 264.453 315.362 253.714 310V310.002ZM287.791 335.253L288.037 335.498C289.131 334.657 290.177 333.735 291.173 332.74L308.952 314.916L308.997 314.87L309.042 314.916L326.867 332.74C327.851 333.731 328.892 334.64 329.979 335.481L330.25 335.212C321.711 344.137 314.483 354.307 309 365.29C303.526 354.325 296.311 344.169 287.789 335.254L287.791 335.253ZM334.639 330.844L334.931 330.554C333.809 329.753 332.744 328.848 331.749 327.859L313.924 310.035L313.878 309.989L313.924 309.944L331.749 292.165C332.742 291.16 333.811 290.251 334.936 289.44C343.685 297.68 353.603 304.668 364.289 310.003C353.482 315.399 343.461 322.484 334.639 330.846V330.844Z" fill="#FF8C6B" fill-opacity="0.1"/>
</g>
<g clip-path="url(#clip37_26_28)">
<path d="M103.002 207C103.002 260.407 53.4069 310.002 0 310.002C53.4069 310.002 103.002 359.594 103.002 413.001C103.002 359.594 152.594 310.002 206.001 310.002C152.594 310.002 103.002 260.407 103.002 207ZM124.001 284.527C122.909 285.368 121.863 286.288 120.868 287.284L103.043 305.108H102.998L85.1737 287.284C84.1753 286.285 83.1197 285.361 82.0186 284.511C90.441 275.653 97.5767 265.581 103.002 254.715C108.431 265.588 115.572 275.666 124.001 284.528V284.527ZM47.7139 310.002C58.3997 304.667 68.3191 297.678 77.0693 289.436C78.198 290.241 79.2764 291.155 80.2915 292.164L98.0704 309.988H98.1158L98.0704 310.034L80.2915 327.858C79.2842 328.865 78.2089 329.769 77.0871 330.576L77.1987 330.687C68.4158 322.393 58.453 315.362 47.7139 310V310.002ZM81.7905 335.253L82.0374 335.498C83.1306 334.657 84.1773 333.735 85.1727 332.74L102.952 314.916L102.997 314.87L103.042 314.916L120.867 332.74C121.851 333.731 122.892 334.64 123.979 335.481L124.25 335.212C115.711 344.137 108.483 354.307 103 365.29C97.5263 354.325 90.3106 344.169 81.7885 335.254L81.7905 335.253ZM128.639 330.844L128.931 330.554C127.809 329.753 126.744 328.848 125.749 327.859L107.924 310.035L107.878 309.989L107.924 309.944L125.749 292.165C126.742 291.16 127.811 290.251 128.936 289.44C137.685 297.68 147.603 304.668 158.289 310.003C147.482 315.399 137.461 322.484 128.639 330.846V330.844Z" fill="#FF8C6B" fill-opacity="0.1"/>
</g>
<g clip-path="url(#clip38_26_28)">
<path d="M309.002 620C309.002 673.407 259.407 723.002 206 723.002C259.407 723.002 309.002 772.594 309.002 826.001C309.002 772.594 358.594 723.002 412.001 723.002C358.594 723.002 309.002 673.407 309.002 620ZM330.001 697.527C328.909 698.368 327.863 699.288 326.868 700.284L309.043 718.108H308.998L291.174 700.284C290.175 699.285 289.12 698.361 288.019 697.511C296.441 688.653 303.577 678.581 309.002 667.715C314.431 678.588 321.572 688.666 330.001 697.528V697.527ZM253.714 723.002C264.4 717.667 274.319 710.678 283.069 702.436C284.198 703.241 285.276 704.155 286.291 705.164L304.07 722.988H304.116L304.07 723.034L286.291 740.858C285.284 741.865 284.209 742.769 283.087 743.576L283.199 743.687C274.416 735.393 264.453 728.362 253.714 723V723.002ZM287.791 748.253L288.037 748.498C289.131 747.657 290.177 746.735 291.173 745.74L308.952 727.916L308.997 727.87L309.042 727.916L326.867 745.74C327.851 746.731 328.892 747.64 329.979 748.481L330.25 748.212C321.711 757.137 314.483 767.307 309 778.29C303.526 767.325 296.311 757.169 287.789 748.254L287.791 748.253ZM334.639 743.844L334.931 743.554C333.809 742.753 332.744 741.848 331.749 740.859L313.924 723.035L313.878 722.989L313.924 722.944L331.749 705.165C332.742 704.16 333.811 703.251 334.936 702.44C343.685 710.68 353.603 717.668 364.289 723.003C353.482 728.399 343.461 735.484 334.639 743.846V743.844Z" fill="#FF8C6B" fill-opacity="0.1"/>
</g>
<g clip-path="url(#clip39_26_28)">
<path d="M103.002 620C103.002 673.407 53.4069 723.002 0 723.002C53.4069 723.002 103.002 772.594 103.002 826.001C103.002 772.594 152.594 723.002 206.001 723.002C152.594 723.002 103.002 673.407 103.002 620ZM124.001 697.527C122.909 698.368 121.863 699.288 120.868 700.284L103.043 718.108H102.998L85.1737 700.284C84.1753 699.285 83.1197 698.361 82.0186 697.511C90.441 688.653 97.5767 678.581 103.002 667.715C108.431 678.588 115.572 688.666 124.001 697.528V697.527ZM47.7139 723.002C58.3997 717.667 68.3191 710.678 77.0693 702.436C78.198 703.241 79.2764 704.155 80.2915 705.164L98.0704 722.988H98.1158L98.0704 723.034L80.2915 740.858C79.2842 741.865 78.2089 742.769 77.0871 743.576L77.1987 743.687C68.4158 735.393 58.453 728.362 47.7139 723V723.002ZM81.7905 748.253L82.0374 748.498C83.1306 747.657 84.1773 746.735 85.1727 745.74L102.952 727.916L102.997 727.87L103.042 727.916L120.867 745.74C121.851 746.731 122.892 747.64 123.979 748.481L124.25 748.212C115.711 757.137 108.483 767.307 103 778.29C97.5263 767.325 90.3106 757.169 81.7885 748.254L81.7905 748.253ZM128.639 743.844L128.931 743.554C127.809 742.753 126.744 741.848 125.749 740.859L107.924 723.035L107.878 722.989L107.924 722.944L125.749 705.165C126.742 704.16 127.811 703.251 128.936 702.44C137.685 710.68 147.603 717.668 158.289 723.003C147.482 728.399 137.461 735.484 128.639 743.846V743.844Z" fill="#FF8C6B" fill-opacity="0.1"/>
</g>
<g clip-path="url(#clip40_26_28)">
<path d="M309.002 826C309.002 879.407 259.407 929.002 206 929.002C259.407 929.002 309.002 978.594 309.002 1032C309.002 978.594 358.594 929.002 412.001 929.002C358.594 929.002 309.002 879.407 309.002 826ZM330.001 903.527C328.909 904.368 327.863 905.288 326.868 906.284L309.043 924.108H308.998L291.174 906.284C290.175 905.285 289.12 904.361 288.019 903.511C296.441 894.653 303.577 884.581 309.002 873.715C314.431 884.588 321.572 894.666 330.001 903.528V903.527ZM253.714 929.002C264.4 923.667 274.319 916.678 283.069 908.436C284.198 909.241 285.276 910.155 286.291 911.164L304.07 928.988H304.116L304.07 929.034L286.291 946.858C285.284 947.865 284.209 948.769 283.087 949.576L283.199 949.687C274.416 941.393 264.453 934.362 253.714 929V929.002ZM287.791 954.253L288.037 954.498C289.131 953.657 290.177 952.735 291.173 951.74L308.952 933.916L308.997 933.87L309.042 933.916L326.867 951.74C327.851 952.731 328.892 953.64 329.979 954.481L330.25 954.212C321.711 963.137 314.483 973.307 309 984.29C303.526 973.325 296.311 963.169 287.789 954.254L287.791 954.253ZM334.639 949.844L334.931 949.554C333.809 948.753 332.744 947.848 331.749 946.859L313.924 929.035L313.878 928.989L313.924 928.944L331.749 911.165C332.742 910.16 333.811 909.251 334.936 908.44C343.685 916.68 353.603 923.668 364.289 929.003C353.482 934.399 343.461 941.484 334.639 949.846V949.844Z" fill="#FF8C6B" fill-opacity="0.1"/>
</g>
<g clip-path="url(#clip41_26_28)">
<path d="M103.002 826C103.002 879.407 53.4069 929.002 0 929.002C53.4069 929.002 103.002 978.594 103.002 1032C103.002 978.594 152.594 929.002 206.001 929.002C152.594 929.002 103.002 879.407 103.002 826ZM124.001 903.527C122.909 904.368 121.863 905.288 120.868 906.284L103.043 924.108H102.998L85.1737 906.284C84.1753 905.285 83.1197 904.361 82.0186 903.511C90.441 894.653 97.5767 884.581 103.002 873.715C108.431 884.588 115.572 894.666 124.001 903.528V903.527ZM47.7139 929.002C58.3997 923.667 68.3191 916.678 77.0693 908.436C78.198 909.241 79.2764 910.155 80.2915 911.164L98.0704 928.988H98.1158L98.0704 929.034L80.2915 946.858C79.2842 947.865 78.2089 948.769 77.0871 949.576L77.1987 949.687C68.4158 941.393 58.453 934.362 47.7139 929V929.002ZM81.7905 954.253L82.0374 954.498C83.1306 953.657 84.1773 952.735 85.1727 951.74L102.952 933.916L102.997 933.87L103.042 933.916L120.867 951.74C121.851 952.731 122.892 953.64 123.979 954.481L124.25 954.212C115.711 963.137 108.483 973.307 103 984.29C97.5263 973.325 90.3106 963.169 81.7885 954.254L81.7905 954.253ZM128.639 949.844L128.931 949.554C127.809 948.753 126.744 947.848 125.749 946.859L107.924 929.035L107.878 928.989L107.924 928.944L125.749 911.165C126.742 910.16 127.811 909.251 128.936 908.44C137.685 916.68 147.603 923.668 158.289 929.003C147.482 934.399 137.461 941.484 128.639 949.846V949.844Z" fill="#FF8C6B" fill-opacity="0.1"/>
</g>
<g clip-path="url(#clip42_26_28)">
<path d="M515.002 826C515.002 879.407 465.407 929.002 412 929.002C465.407 929.002 515.002 978.594 515.002 1032C515.002 978.594 564.594 929.002 618.001 929.002C564.594 929.002 515.002 879.407 515.002 826ZM536.001 903.527C534.909 904.368 533.863 905.288 532.868 906.284L515.043 924.108H514.998L497.174 906.284C496.175 905.285 495.12 904.361 494.019 903.511C502.441 894.653 509.577 884.581 515.002 873.715C520.431 884.588 527.572 894.666 536.001 903.528V903.527ZM459.714 929.002C470.4 923.667 480.319 916.678 489.069 908.436C490.198 909.241 491.276 910.155 492.291 911.164L510.07 928.988H510.116L510.07 929.034L492.291 946.858C491.284 947.865 490.209 948.769 489.087 949.576L489.199 949.687C480.416 941.393 470.453 934.362 459.714 929V929.002ZM493.791 954.253L494.037 954.498C495.131 953.657 496.177 952.735 497.173 951.74L514.952 933.916L514.997 933.87L515.042 933.916L532.867 951.74C533.851 952.731 534.892 953.64 535.979 954.481L536.25 954.212C527.711 963.137 520.483 973.307 515 984.29C509.526 973.325 502.311 963.169 493.789 954.254L493.791 954.253ZM540.639 949.844L540.931 949.554C539.809 948.753 538.744 947.848 537.749 946.859L519.924 929.035L519.878 928.989L519.924 928.944L537.749 911.165C538.742 910.16 539.811 909.251 540.936 908.44C549.685 916.68 559.603 923.668 570.289 929.003C559.482 934.399 549.461 941.484 540.639 949.846V949.844Z" fill="#FF8C6B" fill-opacity="0.1"/>
</g>
<g clip-path="url(#clip43_26_28)">
<path d="M721.002 826C721.002 879.407 671.407 929.002 618 929.002C671.407 929.002 721.002 978.594 721.002 1032C721.002 978.594 770.594 929.002 824.001 929.002C770.594 929.002 721.002 879.407 721.002 826ZM742.001 903.527C740.909 904.368 739.863 905.288 738.868 906.284L721.043 924.108H720.998L703.174 906.284C702.175 905.285 701.12 904.361 700.019 903.511C708.441 894.653 715.577 884.581 721.002 873.715C726.431 884.588 733.572 894.666 742.001 903.528V903.527ZM665.714 929.002C676.4 923.667 686.319 916.678 695.069 908.436C696.198 909.241 697.276 910.155 698.291 911.164L716.07 928.988H716.116L716.07 929.034L698.291 946.858C697.284 947.865 696.209 948.769 695.087 949.576L695.199 949.687C686.416 941.393 676.453 934.362 665.714 929V929.002ZM699.791 954.253L700.037 954.498C701.131 953.657 702.177 952.735 703.173 951.74L720.952 933.916L720.997 933.87L721.042 933.916L738.867 951.74C739.851 952.731 740.892 953.64 741.979 954.481L742.25 954.212C733.711 963.137 726.483 973.307 721 984.29C715.526 973.325 708.311 963.169 699.789 954.254L699.791 954.253ZM746.639 949.844L746.931 949.554C745.809 948.753 744.744 947.848 743.749 946.859L725.924 929.035L725.878 928.989L725.924 928.944L743.749 911.165C744.742 910.16 745.811 909.251 746.936 908.44C755.685 916.68 765.603 923.668 776.289 929.003C765.482 934.399 755.461 941.484 746.639 949.846V949.844Z" fill="#FF8C6B" fill-opacity="0.1"/>
</g>
<g clip-path="url(#clip44_26_28)">
<path d="M515.002 0C515.002 53.4069 465.407 103.002 412 103.002C465.407 103.002 515.002 152.594 515.002 206.001C515.002 152.594 564.594 103.002 618.001 103.002C564.594 103.002 515.002 53.4069 515.002 0ZM536.001 77.5275C534.909 78.3679 533.863 79.2882 532.868 80.2836L515.043 98.1079H514.998L497.174 80.2836C496.175 79.2852 495.12 78.3609 494.019 77.5107C502.441 68.6528 509.577 58.5813 515.002 47.7149C520.431 58.5883 527.572 68.6657 536.001 77.5285V77.5275ZM459.714 103.002C470.4 97.6665 480.319 90.678 489.069 82.4363C490.198 83.2411 491.276 84.1546 492.291 85.1638L510.07 102.988H510.116L510.07 103.034L492.291 120.858C491.284 121.865 490.209 122.769 489.087 123.576L489.199 123.687C480.416 115.393 470.453 108.362 459.714 103V103.002ZM493.791 128.253L494.037 128.498C495.131 127.657 496.177 126.735 497.173 125.74L514.952 107.916L514.997 107.87L515.042 107.916L532.867 125.74C533.851 126.731 534.892 127.64 535.979 128.481L536.25 128.212C527.711 137.137 520.483 147.307 515 158.29C509.526 147.325 502.311 137.169 493.789 128.254L493.791 128.253ZM540.639 123.844L540.931 123.554C539.809 122.753 538.744 121.848 537.749 120.859L519.924 103.035L519.878 102.989L519.924 102.944L537.749 85.1648C538.742 84.1595 539.811 83.251 540.936 82.4403C549.685 90.68 559.603 97.6675 570.289 103.003C559.482 108.399 549.461 115.484 540.639 123.846V123.844Z" fill="#FF8C6B" fill-opacity="0.1"/>
</g>
<defs>
<clipPath id="clip0_26_28">
<rect width="206" height="206" fill="white" transform="translate(824 1)"/>
</clipPath>
<clipPath id="clip1_26_28">
<rect width="206" height="206" fill="white" transform="translate(824 414)"/>
</clipPath>
<clipPath id="clip2_26_28">
<rect width="206" height="206" fill="white" transform="translate(824 208)"/>
</clipPath>
<clipPath id="clip3_26_28">
<rect width="206" height="206" fill="white" transform="translate(824 621)"/>
</clipPath>
<clipPath id="clip4_26_28">
<rect width="206" height="206" fill="white" transform="translate(619 414)"/>
</clipPath>
<clipPath id="clip5_26_28">
<rect width="206" height="206" fill="white" transform="translate(619 208)"/>
</clipPath>
<clipPath id="clip6_26_28">
<rect width="206" height="206" fill="white" transform="translate(619 621)"/>
</clipPath>
<clipPath id="clip7_26_28">
<rect width="206" height="206" fill="white" transform="translate(412 414)"/>
</clipPath>
<clipPath id="clip8_26_28">
<rect width="206" height="206" fill="white" transform="translate(412 208)"/>
</clipPath>
<clipPath id="clip9_26_28">
<rect width="206" height="206" fill="white" transform="translate(412 621)"/>
</clipPath>
<clipPath id="clip10_26_28">
<rect width="206" height="206" fill="white" transform="translate(824 827)"/>
</clipPath>
<clipPath id="clip11_26_28">
<rect width="206" height="206" fill="white" transform="translate(1030 827)"/>
</clipPath>
<clipPath id="clip12_26_28">
<rect width="206" height="206" fill="white" transform="translate(1236 827)"/>
</clipPath>
<clipPath id="clip13_26_28">
<rect width="206" height="206" fill="white" transform="translate(1030 1)"/>
</clipPath>
<clipPath id="clip14_26_28">
<rect width="206" height="206" fill="white" transform="translate(1030 414)"/>
</clipPath>
<clipPath id="clip15_26_28">
<rect width="206" height="206" fill="white" transform="translate(1030 208)"/>
</clipPath>
<clipPath id="clip16_26_28">
<rect width="206" height="206" fill="white" transform="translate(1030 621)"/>
</clipPath>
<clipPath id="clip17_26_28">
<rect width="206" height="206" fill="white" transform="translate(1236 414)"/>
</clipPath>
<clipPath id="clip18_26_28">
<rect width="206" height="206" fill="white" transform="translate(1236 208)"/>
</clipPath>
<clipPath id="clip19_26_28">
<rect width="206" height="206" fill="white" transform="translate(1236 621)"/>
</clipPath>
<clipPath id="clip20_26_28">
<rect width="206" height="206" fill="white" transform="translate(1236 1)"/>
</clipPath>
<clipPath id="clip21_26_28">
<rect width="206" height="206" fill="white" transform="translate(1442 1)"/>
</clipPath>
<clipPath id="clip22_26_28">
<rect width="206" height="206" fill="white" transform="translate(1648 1)"/>
</clipPath>
<clipPath id="clip23_26_28">
<rect width="206" height="206" fill="white" transform="translate(1648 414)"/>
</clipPath>
<clipPath id="clip24_26_28">
<rect width="206" height="206" fill="white" transform="translate(1648 208)"/>
</clipPath>
<clipPath id="clip25_26_28">
<rect width="206" height="206" fill="white" transform="translate(1648 621)"/>
</clipPath>
<clipPath id="clip26_26_28">
<rect width="206" height="206" fill="white" transform="translate(1648 827)"/>
</clipPath>
<clipPath id="clip27_26_28">
<rect width="206" height="206" fill="white" transform="translate(1442 414)"/>
</clipPath>
<clipPath id="clip28_26_28">
<rect width="206" height="206" fill="white" transform="translate(1442 208)"/>
</clipPath>
<clipPath id="clip29_26_28">
<rect width="206" height="206" fill="white" transform="translate(1442 621)"/>
</clipPath>
<clipPath id="clip30_26_28">
<rect width="206" height="206" fill="white" transform="translate(1442 827)"/>
</clipPath>
<clipPath id="clip31_26_28">
<rect width="206" height="206" fill="white" transform="translate(618 1)"/>
</clipPath>
<clipPath id="clip32_26_28">
<rect width="206" height="206" fill="white" transform="translate(206)"/>
</clipPath>
<clipPath id="clip33_26_28">
<rect width="206" height="206" fill="white"/>
</clipPath>
<clipPath id="clip34_26_28">
<rect width="206" height="206" fill="white" transform="translate(206 413)"/>
</clipPath>
<clipPath id="clip35_26_28">
<rect width="206" height="206" fill="white" transform="translate(0 413)"/>
</clipPath>
<clipPath id="clip36_26_28">
<rect width="206" height="206" fill="white" transform="translate(206 207)"/>
</clipPath>
<clipPath id="clip37_26_28">
<rect width="206" height="206" fill="white" transform="translate(0 207)"/>
</clipPath>
<clipPath id="clip38_26_28">
<rect width="206" height="206" fill="white" transform="translate(206 620)"/>
</clipPath>
<clipPath id="clip39_26_28">
<rect width="206" height="206" fill="white" transform="translate(0 620)"/>
</clipPath>
<clipPath id="clip40_26_28">
<rect width="206" height="206" fill="white" transform="translate(206 826)"/>
</clipPath>
<clipPath id="clip41_26_28">
<rect width="206" height="206" fill="white" transform="translate(0 826)"/>
</clipPath>
<clipPath id="clip42_26_28">
<rect width="206" height="206" fill="white" transform="translate(412 826)"/>
</clipPath>
<clipPath id="clip43_26_28">
<rect width="206" height="206" fill="white" transform="translate(618 826)"/>
</clipPath>
<clipPath id="clip44_26_28">
<rect width="206" height="206" fill="white" transform="translate(412)"/>
</clipPath>
</defs>
</svg>
