<svg width="39" height="38" viewBox="0 0 39 38" fill="none" xmlns="http://www.w3.org/2000/svg">
<path d="M28.0249 22.819C27.6431 22.6292 25.1615 21.4906 24.7797 21.3009C24.3979 21.1111 24.0161 21.1111 23.6343 21.4906C23.2525 21.8702 22.489 23.0087 22.1072 23.3883C21.9163 23.7678 21.5345 23.7678 21.1527 23.578C19.8164 23.0087 18.4802 22.2497 17.3348 21.3009C16.3803 20.3521 15.4259 19.2135 14.6623 18.0749C14.4714 17.6954 14.6623 17.3159 14.8532 17.1261C15.0441 16.9363 15.235 16.5568 15.6167 16.367C15.8076 16.1773 15.9985 15.7978 15.9985 15.608C16.1894 15.4182 16.1894 15.0387 15.9985 14.8489C15.8076 14.6592 14.8532 12.382 14.4714 11.4332C14.2805 10.1049 13.8987 10.1049 13.5169 10.1049H12.5624C12.1806 10.1049 11.608 10.4844 11.4171 10.6742C10.2717 11.8127 9.69902 13.1411 9.69902 14.6592C9.88991 16.367 10.4626 18.0749 11.608 19.593C13.7078 22.6292 16.3803 25.0961 19.6255 26.6142C20.58 26.9938 21.3436 27.3733 22.2981 27.563C23.2525 27.9426 24.207 27.9426 25.3524 27.7528C26.6886 27.563 27.834 26.6142 28.5976 25.4757C28.9794 24.7166 28.9794 23.9576 28.7885 23.1985L28.0249 22.819ZM32.7973 5.55056C25.3524 -1.85019 13.326 -1.85019 5.88113 5.55056C-0.227492 11.623 -1.37286 20.9213 2.82682 28.3221L0.154297 38L10.2717 35.3433C13.1351 36.8614 16.1894 37.6205 19.2437 37.6205C29.7429 37.6205 38.1423 29.2709 38.1423 18.834C38.3332 13.9001 36.2334 9.15606 32.7973 5.55056ZM27.6431 32.1174C25.1615 33.6355 22.2981 34.5843 19.2437 34.5843C16.3803 34.5843 13.7078 33.8252 11.2262 32.4969L10.6535 32.1174L4.73576 33.6355L6.26292 27.9426L5.88113 27.3733C1.29966 19.7828 3.5904 10.2946 11.0353 5.55056C18.4802 0.806492 28.0249 3.27341 32.6064 10.4844C37.1878 17.8851 35.088 27.563 27.6431 32.1174Z" fill="#EFEEED"/>
</svg>
